M48
;Layer_Color=9474304
;FILE_FORMAT=2:4
INCH,TZ
;TYPE=PLATED
T1F00S00C0.0197
T2F00S00C0.0276
T3F00S00C0.0280
T4F00S00C0.0315
T5F00S00C0.0354
T6F00S00C0.0394
T7F00S00C0.0402
T8F00S00C0.0591
%
T01
X18780Y25800
X38660Y27600
T02
X52898Y12750
X52848Y15200
X48052
X48102Y12750
X41795Y12800
X37000
X4752Y20450
X4755Y22950
X4752Y25400
X4902Y28050
Y30250
X9698
Y28050
X9548Y25400
X11052Y25000
X11100Y22050
X9550Y22950
X9548Y20450
X15895Y22050
X15848Y25000
X31202Y23750
X35998
X9648Y32450
X4852
T03
X52292Y1198
Y4348
X51800Y7750
Y8750
Y9750
X52292Y10647
X49143
Y13796
Y7497
Y4348
Y1198
X45993
Y4348
Y7497
X42843Y10647
Y4348
Y1198
X39694
Y4348
X36544Y1198
Y10647
Y13796
X39694
X33394
Y10647
X30245Y13796
X27095
Y10647
X26950Y4500
X27950
X28950
X30245Y1198
X33394
X27095
X23946
X20796
X20800Y4350
X21800
X22800
X23946Y13796
X20796
X17646
X14497
X11347Y7497
Y1198
X14497
X17646
X16700Y4400
X15700
X14700
X8198Y1198
X5048
X1898
Y4348
Y7497
Y10647
Y13796
Y23245
X8198
Y26395
Y29544
X14497Y26395
X17646
X19700Y24200
Y23200
Y22200
X11347Y16946
X20796
X23946
X27095
X30245
Y23245
X33394
Y26395
X27095
Y29544
X23946
Y26395
Y23245
Y20096
X27095
X20796
Y23245
Y26395
X36544Y29544
X39694
X44650Y29400
Y30400
Y31400
X48200Y31300
Y30300
Y29300
X49143Y29544
Y26395
X48150Y26000
Y25000
Y24000
X49143Y23245
X48850Y20400
Y19400
Y18400
X45500
Y19400
Y20400
X45993Y20096
X39694Y23245
X36544
Y16946
X52292
X52050Y18450
Y19450
Y20450
X52292Y23245
X51850Y23950
Y24950
Y25950
X51800Y29300
Y30300
Y31300
X52292Y32694
X49143
X45993
X42843
X36544
X33394
X30245
X27095
X1898
T04
X5900Y14750
X6900
X7900
X8900
X9900
X10900
X11900
X4900
Y17750
X5900
X6900
X7900
X8900
X9900
X10900
X11900
T05
X37550Y6000
Y7000
Y8000
Y9000
X40550
Y8000
Y7000
Y6000
X43500Y11450
Y12450
Y13450
Y14450
X46500
Y13450
Y12450
Y11450
X18200Y11800
X17200
X16200
X15200
Y8800
X16200
X17200
X18200
X11400
X10400
X9400
X8400
X7400
X6400
X5400
Y11800
X6400
X7400
X8400
X9400
X10400
X11400
X12100Y28700
Y29700
Y30700
Y31700
X15100
Y30700
Y29700
Y28700
X25050Y28800
Y29800
Y30800
Y31800
X28050
Y30800
Y29800
Y28800
X38200Y28850
Y29850
Y30850
Y31850
X41200
Y30850
Y29850
Y28850
X41250Y26150
Y25150
Y24150
Y23150
X38250
Y24150
Y25150
Y26150
T06
X44174Y6900
X47126
X34426Y9500
X31474
X31750Y15624
X23900
X23850Y11226
Y8274
X9150Y4250
X6197
X15024Y17150
X17976
X19850Y28524
Y31476
X25224Y24000
X28176
X31750Y18576
X23900
X31997Y29600
X34950
X38274Y18050
X41226
T07
X2750Y15600
Y17750
X2700Y21150
Y23500
X2750Y26100
X2850Y28250
Y30250
X2900Y32400
T08
X1150Y1000
X53750Y1150
X54000Y34250
X1200
M30
