G04*
G04 #@! TF.GenerationSoftware,Altium Limited,Altium Designer,22.7.1 (60)*
G04*
G04 Layer_Color=32768*
%FSLAX25Y25*%
%MOIN*%
G70*
G04*
G04 #@! TF.SameCoordinates,62B07443-8612-450D-B8CB-4F7C4A51FEE5*
G04*
G04*
G04 #@! TF.FilePolarity,Positive*
G04*
G01*
G75*
%ADD11C,0.00787*%
%ADD47C,0.00394*%
%ADD48C,0.00197*%
D11*
X423626Y69000D02*
X423641Y67997D01*
X423687Y66996D01*
X423764Y65996D01*
X423870Y64999D01*
X424008Y64006D01*
X424175Y63017D01*
X424372Y62034D01*
X424600Y61058D01*
X424857Y60089D01*
X425143Y59128D01*
X425459Y58176D01*
X425804Y57235D01*
X426177Y56304D01*
X426578Y55385D01*
X427007Y54479D01*
X427463Y53586D01*
X427947Y52708D01*
X428457Y51845D01*
X428993Y50998D01*
X429555Y50167D01*
X430142Y49354D01*
X430754Y48559D01*
X431389Y47784D01*
X432048Y47028D01*
X432729Y46292D01*
X433432Y45578D01*
X434158Y44885D01*
X434903Y44215D01*
X435669Y43568D01*
X436454Y42945D01*
X437258Y42345D01*
X438080Y41771D01*
X438919Y41222D01*
X439774Y40699D01*
X440645Y40202D01*
X441531Y39732D01*
X442430Y39289D01*
X443343Y38874D01*
X444268Y38486D01*
X445204Y38128D01*
X446151Y37797D01*
X447107Y37496D01*
X448072Y37225D01*
X449045Y36982D01*
X450025Y36770D01*
X451011Y36588D01*
X452002Y36435D01*
X452997Y36313D01*
X453996Y36222D01*
X454996Y36160D01*
X455999Y36130D01*
X457001D01*
X458004Y36160D01*
X459004Y36222D01*
X460003Y36313D01*
X460998Y36435D01*
X461989Y36588D01*
X462975Y36770D01*
X463955Y36982D01*
X464928Y37225D01*
X465893Y37496D01*
X466849Y37797D01*
X467796Y38128D01*
X468732Y38486D01*
X469657Y38874D01*
X470570Y39289D01*
X471469Y39732D01*
X472355Y40202D01*
X473225Y40699D01*
X474081Y41222D01*
X474920Y41771D01*
X475741Y42345D01*
X476545Y42945D01*
X477331Y43568D01*
X478096Y44215D01*
X478842Y44885D01*
X479567Y45578D01*
X480271Y46292D01*
X480952Y47028D01*
X481611Y47784D01*
X482246Y48559D01*
X482858Y49354D01*
X483445Y50167D01*
X484006Y50997D01*
X484543Y51845D01*
X485053Y52708D01*
X485536Y53586D01*
X485993Y54479D01*
X486422Y55385D01*
X486823Y56304D01*
X487196Y57234D01*
X487541Y58176D01*
X487857Y59127D01*
X488143Y60088D01*
X488400Y61058D01*
X488627Y62034D01*
X488825Y63017D01*
X488992Y64006D01*
X489130Y64999D01*
X489236Y65996D01*
X489313Y66995D01*
X489359Y67997D01*
X489374Y68999D01*
Y69000D02*
X489359Y70003D01*
X489313Y71004D01*
X489236Y72004D01*
X489130Y73001D01*
X488993Y73994D01*
X488825Y74983D01*
X488628Y75966D01*
X488400Y76942D01*
X488143Y77911D01*
X487857Y78872D01*
X487541Y79824D01*
X487196Y80765D01*
X486823Y81696D01*
X486422Y82615D01*
X485993Y83521D01*
X485536Y84414D01*
X485053Y85292D01*
X484543Y86155D01*
X484007Y87002D01*
X483445Y87833D01*
X482858Y88646D01*
X482246Y89441D01*
X481611Y90216D01*
X480953Y90972D01*
X480271Y91708D01*
X479567Y92422D01*
X478842Y93115D01*
X478097Y93785D01*
X477331Y94432D01*
X476546Y95055D01*
X475742Y95654D01*
X474920Y96229D01*
X474081Y96778D01*
X473226Y97301D01*
X472355Y97798D01*
X471469Y98268D01*
X470570Y98711D01*
X469657Y99126D01*
X468732Y99514D01*
X467796Y99872D01*
X466849Y100203D01*
X465893Y100504D01*
X464928Y100775D01*
X463955Y101018D01*
X462975Y101230D01*
X461989Y101412D01*
X460998Y101565D01*
X460003Y101687D01*
X459004Y101778D01*
X458004Y101840D01*
X457001Y101870D01*
X455999D01*
X454996Y101840D01*
X453996Y101778D01*
X452997Y101687D01*
X452002Y101565D01*
X451011Y101412D01*
X450025Y101230D01*
X449045Y101018D01*
X448072Y100775D01*
X447107Y100504D01*
X446151Y100203D01*
X445204Y99872D01*
X444268Y99514D01*
X443343Y99126D01*
X442430Y98711D01*
X441531Y98268D01*
X440645Y97798D01*
X439774Y97301D01*
X438919Y96778D01*
X438080Y96229D01*
X437258Y95654D01*
X436454Y95055D01*
X435669Y94432D01*
X434903Y93785D01*
X434158Y93115D01*
X433432Y92422D01*
X432729Y91708D01*
X432048Y90972D01*
X431389Y90216D01*
X430753Y89441D01*
X430142Y88646D01*
X429555Y87833D01*
X428993Y87002D01*
X428457Y86155D01*
X427947Y85292D01*
X427463Y84414D01*
X427007Y83521D01*
X426578Y82615D01*
X426177Y81696D01*
X425804Y80765D01*
X425459Y79824D01*
X425143Y78872D01*
X424857Y77911D01*
X424600Y76942D01*
X424372Y75966D01*
X424175Y74983D01*
X424008Y73994D01*
X423870Y73001D01*
X423764Y72004D01*
X423687Y71004D01*
X423641Y70003D01*
X423626Y69000D01*
X198500Y332874D02*
X197497Y332859D01*
X196496Y332813D01*
X195496Y332736D01*
X194499Y332630D01*
X193506Y332492D01*
X192517Y332325D01*
X191534Y332128D01*
X190558Y331900D01*
X189589Y331643D01*
X188628Y331357D01*
X187676Y331041D01*
X186735Y330697D01*
X185804Y330324D01*
X184885Y329922D01*
X183979Y329493D01*
X183086Y329036D01*
X182208Y328553D01*
X181345Y328043D01*
X180498Y327507D01*
X179667Y326945D01*
X178854Y326358D01*
X178059Y325746D01*
X177284Y325111D01*
X176528Y324452D01*
X175792Y323771D01*
X175078Y323067D01*
X174385Y322342D01*
X173715Y321597D01*
X173068Y320831D01*
X172445Y320046D01*
X171845Y319242D01*
X171271Y318420D01*
X170722Y317581D01*
X170199Y316726D01*
X169702Y315855D01*
X169232Y314969D01*
X168789Y314070D01*
X168374Y313157D01*
X167987Y312232D01*
X167628Y311296D01*
X167297Y310349D01*
X166996Y309393D01*
X166725Y308428D01*
X166482Y307455D01*
X166270Y306475D01*
X166087Y305489D01*
X165935Y304498D01*
X165813Y303503D01*
X165721Y302504D01*
X165660Y301503D01*
X165630Y300501D01*
Y299499D01*
X165660Y298497D01*
X165721Y297496D01*
X165813Y296497D01*
X165935Y295502D01*
X166087Y294511D01*
X166270Y293525D01*
X166482Y292545D01*
X166725Y291572D01*
X166996Y290607D01*
X167297Y289651D01*
X167628Y288704D01*
X167987Y287768D01*
X168374Y286843D01*
X168789Y285930D01*
X169232Y285031D01*
X169702Y284145D01*
X170199Y283274D01*
X170722Y282419D01*
X171271Y281580D01*
X171846Y280758D01*
X172445Y279954D01*
X173068Y279169D01*
X173715Y278403D01*
X174385Y277658D01*
X175078Y276933D01*
X175792Y276229D01*
X176528Y275548D01*
X177284Y274889D01*
X178059Y274253D01*
X178854Y273642D01*
X179667Y273055D01*
X180498Y272493D01*
X181345Y271957D01*
X182208Y271447D01*
X183086Y270964D01*
X183979Y270507D01*
X184885Y270078D01*
X185804Y269676D01*
X186735Y269303D01*
X187676Y268959D01*
X188628Y268643D01*
X189589Y268357D01*
X190558Y268100D01*
X191534Y267872D01*
X192517Y267675D01*
X193506Y267508D01*
X194499Y267370D01*
X195496Y267264D01*
X196496Y267187D01*
X197497Y267141D01*
X198500Y267126D01*
X198500D02*
X199503Y267141D01*
X200504Y267187D01*
X201504Y267264D01*
X202501Y267370D01*
X203494Y267508D01*
X204483Y267675D01*
X205466Y267872D01*
X206442Y268100D01*
X207411Y268357D01*
X208372Y268643D01*
X209324Y268959D01*
X210265Y269303D01*
X211196Y269676D01*
X212115Y270078D01*
X213021Y270507D01*
X213914Y270964D01*
X214792Y271447D01*
X215655Y271957D01*
X216502Y272493D01*
X217333Y273055D01*
X218146Y273642D01*
X218940Y274253D01*
X219716Y274889D01*
X220472Y275547D01*
X221207Y276229D01*
X221922Y276932D01*
X222614Y277657D01*
X223285Y278403D01*
X223932Y279169D01*
X224555Y279954D01*
X225154Y280758D01*
X225729Y281580D01*
X226278Y282419D01*
X226801Y283274D01*
X227298Y284145D01*
X227768Y285031D01*
X228211Y285930D01*
X228626Y286843D01*
X229013Y287768D01*
X229372Y288704D01*
X229702Y289651D01*
X230003Y290607D01*
X230275Y291572D01*
X230518Y292545D01*
X230730Y293525D01*
X230912Y294511D01*
X231065Y295502D01*
X231187Y296497D01*
X231278Y297495D01*
X231340Y298496D01*
X231370Y299498D01*
X231370Y300501D01*
X231340Y301503D01*
X231278Y302504D01*
X231187Y303502D01*
X231065Y304498D01*
X230913Y305488D01*
X230730Y306474D01*
X230518Y307454D01*
X230276Y308427D01*
X230004Y309392D01*
X229703Y310349D01*
X229373Y311295D01*
X229014Y312232D01*
X228626Y313157D01*
X228211Y314069D01*
X227768Y314969D01*
X227298Y315854D01*
X226801Y316725D01*
X226278Y317580D01*
X225729Y318419D01*
X225155Y319241D01*
X224556Y320045D01*
X223932Y320830D01*
X223285Y321596D01*
X222615Y322342D01*
X221922Y323067D01*
X221208Y323771D01*
X220473Y324452D01*
X219717Y325111D01*
X218941Y325746D01*
X218146Y326358D01*
X217334Y326944D01*
X216503Y327506D01*
X215656Y328042D01*
X214793Y328553D01*
X213914Y329036D01*
X213022Y329493D01*
X212116Y329922D01*
X211197Y330323D01*
X210266Y330696D01*
X209325Y331041D01*
X208373Y331357D01*
X207412Y331643D01*
X206443Y331900D01*
X205466Y332127D01*
X204483Y332325D01*
X203495Y332492D01*
X202502Y332630D01*
X201505Y332736D01*
X200505Y332813D01*
X199503Y332859D01*
X198501Y332874D01*
X198500D01*
X234126Y240000D02*
X234141Y238998D01*
X234187Y237996D01*
X234263Y236996D01*
X234370Y235999D01*
X234507Y235006D01*
X234675Y234017D01*
X234872Y233034D01*
X235100Y232058D01*
X235357Y231089D01*
X235643Y230128D01*
X235959Y229176D01*
X236303Y228235D01*
X236677Y227304D01*
X237078Y226385D01*
X237507Y225479D01*
X237964Y224586D01*
X238447Y223708D01*
X238957Y222845D01*
X239493Y221997D01*
X240055Y221167D01*
X240642Y220354D01*
X241253Y219559D01*
X241889Y218784D01*
X242547Y218028D01*
X243229Y217292D01*
X243933Y216578D01*
X244657Y215885D01*
X245403Y215215D01*
X246169Y214568D01*
X246954Y213945D01*
X247758Y213346D01*
X248580Y212771D01*
X249419Y212222D01*
X250274Y211699D01*
X251145Y211202D01*
X252031Y210732D01*
X252930Y210289D01*
X253843Y209874D01*
X254768Y209487D01*
X255704Y209128D01*
X256651Y208798D01*
X257607Y208496D01*
X258572Y208225D01*
X259545Y207982D01*
X260525Y207770D01*
X261511Y207588D01*
X262502Y207435D01*
X263497Y207313D01*
X264496Y207222D01*
X265496Y207160D01*
X266499Y207130D01*
X267501D01*
X268503Y207160D01*
X269504Y207222D01*
X270503Y207313D01*
X271498Y207435D01*
X272489Y207587D01*
X273475Y207770D01*
X274455Y207982D01*
X275428Y208225D01*
X276393Y208496D01*
X277349Y208798D01*
X278296Y209128D01*
X279232Y209486D01*
X280157Y209874D01*
X281069Y210289D01*
X281969Y210732D01*
X282855Y211202D01*
X283726Y211699D01*
X284581Y212222D01*
X285420Y212771D01*
X286242Y213345D01*
X287045Y213945D01*
X287831Y214568D01*
X288597Y215215D01*
X289342Y215885D01*
X290067Y216578D01*
X290771Y217292D01*
X291452Y218028D01*
X292111Y218784D01*
X292746Y219559D01*
X293358Y220354D01*
X293945Y221167D01*
X294506Y221997D01*
X295043Y222845D01*
X295553Y223708D01*
X296036Y224586D01*
X296493Y225479D01*
X296922Y226385D01*
X297323Y227304D01*
X297696Y228234D01*
X298041Y229176D01*
X298357Y230128D01*
X298643Y231088D01*
X298900Y232057D01*
X299128Y233034D01*
X299325Y234017D01*
X299492Y235006D01*
X299630Y235999D01*
X299736Y236996D01*
X299813Y237995D01*
X299859Y238997D01*
X299874Y240000D01*
Y240000D02*
X299859Y241002D01*
X299813Y242004D01*
X299736Y243004D01*
X299630Y244001D01*
X299493Y244994D01*
X299325Y245983D01*
X299128Y246966D01*
X298900Y247942D01*
X298643Y248911D01*
X298357Y249872D01*
X298041Y250824D01*
X297696Y251765D01*
X297323Y252696D01*
X296922Y253615D01*
X296493Y254521D01*
X296037Y255414D01*
X295553Y256292D01*
X295043Y257155D01*
X294507Y258002D01*
X293945Y258833D01*
X293358Y259646D01*
X292746Y260441D01*
X292111Y261216D01*
X291453Y261972D01*
X290771Y262708D01*
X290068Y263422D01*
X289342Y264115D01*
X288597Y264785D01*
X287831Y265432D01*
X287046Y266055D01*
X286242Y266654D01*
X285420Y267229D01*
X284581Y267778D01*
X283726Y268301D01*
X282855Y268798D01*
X281969Y269268D01*
X281070Y269711D01*
X280157Y270126D01*
X279232Y270514D01*
X278296Y270872D01*
X277349Y271202D01*
X276393Y271504D01*
X275428Y271775D01*
X274455Y272018D01*
X273475Y272230D01*
X272489Y272412D01*
X271498Y272565D01*
X270503Y272687D01*
X269504Y272779D01*
X268503Y272840D01*
X267501Y272870D01*
X266499D01*
X265496Y272840D01*
X264496Y272779D01*
X263497Y272687D01*
X262502Y272565D01*
X261511Y272412D01*
X260525Y272230D01*
X259545Y272018D01*
X258572Y271775D01*
X257607Y271504D01*
X256651Y271202D01*
X255704Y270872D01*
X254768Y270514D01*
X253843Y270126D01*
X252930Y269711D01*
X252031Y269268D01*
X251145Y268798D01*
X250274Y268301D01*
X249419Y267778D01*
X248580Y267229D01*
X247758Y266654D01*
X246954Y266055D01*
X246169Y265432D01*
X245403Y264785D01*
X244657Y264115D01*
X243933Y263422D01*
X243229Y262708D01*
X242547Y261972D01*
X241889Y261216D01*
X241253Y260440D01*
X240642Y259646D01*
X240055Y258833D01*
X239493Y258002D01*
X238957Y257155D01*
X238447Y256292D01*
X237964Y255414D01*
X237507Y254521D01*
X237078Y253615D01*
X236677Y252696D01*
X236303Y251765D01*
X235959Y250824D01*
X235643Y249872D01*
X235357Y248911D01*
X235100Y247942D01*
X234872Y246966D01*
X234675Y245983D01*
X234507Y244994D01*
X234370Y244001D01*
X234263Y243004D01*
X234187Y242004D01*
X234141Y241002D01*
X234126Y240000D01*
X301862Y296000D02*
X301877Y294998D01*
X301923Y293996D01*
X302000Y292996D01*
X302106Y291999D01*
X302244Y291006D01*
X302411Y290017D01*
X302609Y289034D01*
X302836Y288058D01*
X303093Y287089D01*
X303380Y286128D01*
X303695Y285176D01*
X304040Y284235D01*
X304413Y283304D01*
X304814Y282385D01*
X305243Y281479D01*
X305700Y280586D01*
X306183Y279708D01*
X306693Y278845D01*
X307230Y277997D01*
X307791Y277167D01*
X308378Y276354D01*
X308990Y275559D01*
X309625Y274784D01*
X310284Y274028D01*
X310965Y273292D01*
X311669Y272578D01*
X312394Y271885D01*
X313140Y271215D01*
X313905Y270568D01*
X314691Y269945D01*
X315494Y269345D01*
X316316Y268771D01*
X317155Y268222D01*
X318011Y267699D01*
X318881Y267202D01*
X319767Y266732D01*
X320667Y266289D01*
X321579Y265874D01*
X322504Y265487D01*
X323440Y265128D01*
X324387Y264797D01*
X325343Y264496D01*
X326308Y264225D01*
X327281Y263982D01*
X328261Y263770D01*
X329247Y263587D01*
X330238Y263435D01*
X331233Y263313D01*
X332232Y263222D01*
X333233Y263160D01*
X334235Y263130D01*
X335238D01*
X336240Y263160D01*
X337240Y263222D01*
X338239Y263313D01*
X339234Y263435D01*
X340225Y263587D01*
X341211Y263770D01*
X342191Y263982D01*
X343164Y264225D01*
X344129Y264496D01*
X345085Y264797D01*
X346032Y265128D01*
X346968Y265486D01*
X347893Y265874D01*
X348806Y266289D01*
X349705Y266732D01*
X350591Y267202D01*
X351462Y267699D01*
X352317Y268222D01*
X353156Y268771D01*
X353978Y269345D01*
X354782Y269945D01*
X355567Y270568D01*
X356333Y271215D01*
X357079Y271885D01*
X357804Y272578D01*
X358507Y273292D01*
X359189Y274028D01*
X359847Y274784D01*
X360483Y275559D01*
X361094Y276354D01*
X361681Y277167D01*
X362243Y277997D01*
X362779Y278844D01*
X363289Y279708D01*
X363773Y280586D01*
X364229Y281479D01*
X364658Y282385D01*
X365059Y283304D01*
X365433Y284234D01*
X365777Y285176D01*
X366093Y286127D01*
X366379Y287088D01*
X366636Y288057D01*
X366864Y289034D01*
X367061Y290017D01*
X367229Y291006D01*
X367366Y291999D01*
X367473Y292996D01*
X367549Y293995D01*
X367595Y294997D01*
X367610Y296000D01*
Y296000D02*
X367595Y297003D01*
X367549Y298004D01*
X367473Y299004D01*
X367366Y300001D01*
X367229Y300994D01*
X367061Y301983D01*
X366864Y302966D01*
X366636Y303942D01*
X366379Y304911D01*
X366093Y305872D01*
X365777Y306824D01*
X365433Y307765D01*
X365060Y308696D01*
X364658Y309615D01*
X364229Y310521D01*
X363773Y311414D01*
X363289Y312292D01*
X362779Y313155D01*
X362243Y314002D01*
X361681Y314833D01*
X361094Y315646D01*
X360483Y316441D01*
X359847Y317216D01*
X359189Y317972D01*
X358507Y318708D01*
X357804Y319422D01*
X357079Y320115D01*
X356333Y320785D01*
X355567Y321432D01*
X354782Y322055D01*
X353978Y322655D01*
X353156Y323229D01*
X352317Y323778D01*
X351462Y324301D01*
X350591Y324798D01*
X349705Y325268D01*
X348806Y325711D01*
X347893Y326126D01*
X346968Y326514D01*
X346032Y326872D01*
X345085Y327203D01*
X344129Y327504D01*
X343164Y327775D01*
X342191Y328018D01*
X341211Y328230D01*
X340225Y328413D01*
X339234Y328565D01*
X338239Y328687D01*
X337241Y328779D01*
X336240Y328840D01*
X335238Y328870D01*
X334235D01*
X333233Y328840D01*
X332232Y328779D01*
X331233Y328687D01*
X330238Y328565D01*
X329247Y328413D01*
X328261Y328230D01*
X327281Y328018D01*
X326308Y327775D01*
X325343Y327504D01*
X324387Y327203D01*
X323440Y326872D01*
X322504Y326514D01*
X321579Y326126D01*
X320667Y325711D01*
X319767Y325268D01*
X318881Y324798D01*
X318011Y324301D01*
X317155Y323778D01*
X316316Y323229D01*
X315494Y322654D01*
X314691Y322055D01*
X313905Y321432D01*
X313139Y320785D01*
X312394Y320115D01*
X311669Y319422D01*
X310965Y318708D01*
X310284Y317972D01*
X309625Y317216D01*
X308990Y316441D01*
X308378Y315646D01*
X307791Y314833D01*
X307230Y314002D01*
X306693Y313155D01*
X306183Y312292D01*
X305700Y311414D01*
X305243Y310521D01*
X304814Y309615D01*
X304413Y308696D01*
X304040Y307765D01*
X303695Y306824D01*
X303380Y305872D01*
X303093Y304911D01*
X302836Y303942D01*
X302609Y302966D01*
X302411Y301983D01*
X302244Y300994D01*
X302106Y300001D01*
X302000Y299004D01*
X301923Y298004D01*
X301877Y297003D01*
X301862Y296000D01*
X317500Y203874D02*
X316497Y203859D01*
X315496Y203813D01*
X314496Y203736D01*
X313499Y203630D01*
X312506Y203492D01*
X311517Y203325D01*
X310534Y203128D01*
X309558Y202900D01*
X308589Y202643D01*
X307628Y202357D01*
X306676Y202041D01*
X305735Y201696D01*
X304804Y201324D01*
X303885Y200922D01*
X302979Y200493D01*
X302086Y200037D01*
X301208Y199553D01*
X300345Y199043D01*
X299498Y198507D01*
X298667Y197945D01*
X297854Y197358D01*
X297059Y196747D01*
X296284Y196111D01*
X295528Y195452D01*
X294792Y194771D01*
X294078Y194068D01*
X293385Y193342D01*
X292715Y192597D01*
X292068Y191831D01*
X291445Y191046D01*
X290845Y190242D01*
X290271Y189420D01*
X289722Y188581D01*
X289199Y187726D01*
X288702Y186855D01*
X288232Y185969D01*
X287789Y185070D01*
X287374Y184157D01*
X286986Y183232D01*
X286628Y182296D01*
X286297Y181349D01*
X285996Y180393D01*
X285725Y179428D01*
X285482Y178455D01*
X285270Y177475D01*
X285087Y176489D01*
X284935Y175498D01*
X284813Y174503D01*
X284721Y173504D01*
X284660Y172503D01*
X284630Y171501D01*
Y170499D01*
X284660Y169497D01*
X284721Y168496D01*
X284813Y167497D01*
X284935Y166502D01*
X285087Y165511D01*
X285270Y164525D01*
X285482Y163545D01*
X285725Y162572D01*
X285996Y161607D01*
X286297Y160651D01*
X286628Y159704D01*
X286986Y158768D01*
X287374Y157843D01*
X287789Y156930D01*
X288232Y156031D01*
X288702Y155145D01*
X289199Y154274D01*
X289722Y153419D01*
X290271Y152580D01*
X290846Y151758D01*
X291445Y150954D01*
X292068Y150169D01*
X292715Y149403D01*
X293385Y148658D01*
X294078Y147932D01*
X294792Y147229D01*
X295528Y146547D01*
X296284Y145889D01*
X297059Y145253D01*
X297854Y144642D01*
X298667Y144055D01*
X299498Y143493D01*
X300345Y142957D01*
X301208Y142447D01*
X302086Y141964D01*
X302979Y141507D01*
X303885Y141078D01*
X304804Y140676D01*
X305735Y140303D01*
X306676Y139959D01*
X307628Y139643D01*
X308589Y139357D01*
X309558Y139100D01*
X310534Y138872D01*
X311517Y138675D01*
X312506Y138507D01*
X313499Y138370D01*
X314496Y138263D01*
X315496Y138187D01*
X316497Y138141D01*
X317500Y138126D01*
X317500D02*
X318502Y138141D01*
X319504Y138187D01*
X320504Y138263D01*
X321501Y138370D01*
X322494Y138507D01*
X323482Y138675D01*
X324465Y138872D01*
X325442Y139100D01*
X326411Y139357D01*
X327372Y139643D01*
X328324Y139959D01*
X329265Y140303D01*
X330196Y140676D01*
X331115Y141078D01*
X332021Y141507D01*
X332914Y141963D01*
X333792Y142447D01*
X334655Y142957D01*
X335502Y143493D01*
X336333Y144055D01*
X337146Y144642D01*
X337940Y145253D01*
X338716Y145889D01*
X339472Y146547D01*
X340208Y147229D01*
X340922Y147932D01*
X341614Y148657D01*
X342285Y149403D01*
X342932Y150169D01*
X343555Y150954D01*
X344154Y151758D01*
X344729Y152580D01*
X345278Y153419D01*
X345801Y154274D01*
X346298Y155145D01*
X346768Y156031D01*
X347211Y156930D01*
X347626Y157843D01*
X348013Y158768D01*
X348372Y159704D01*
X348702Y160651D01*
X349004Y161607D01*
X349275Y162572D01*
X349517Y163545D01*
X349730Y164525D01*
X349913Y165511D01*
X350065Y166502D01*
X350187Y167497D01*
X350278Y168495D01*
X350340Y169496D01*
X350370Y170498D01*
X350370Y171501D01*
X350340Y172503D01*
X350278Y173504D01*
X350187Y174502D01*
X350065Y175497D01*
X349913Y176488D01*
X349730Y177474D01*
X349518Y178454D01*
X349275Y179427D01*
X349004Y180392D01*
X348703Y181349D01*
X348373Y182295D01*
X348014Y183232D01*
X347626Y184157D01*
X347211Y185069D01*
X346768Y185969D01*
X346298Y186854D01*
X345801Y187725D01*
X345278Y188580D01*
X344729Y189419D01*
X344155Y190241D01*
X343556Y191045D01*
X342932Y191830D01*
X342285Y192596D01*
X341615Y193342D01*
X340922Y194067D01*
X340208Y194771D01*
X339473Y195452D01*
X338717Y196111D01*
X337941Y196746D01*
X337146Y197357D01*
X336333Y197944D01*
X335503Y198506D01*
X334656Y199042D01*
X333793Y199553D01*
X332914Y200036D01*
X332022Y200493D01*
X331116Y200922D01*
X330197Y201323D01*
X329266Y201696D01*
X328325Y202041D01*
X327373Y202357D01*
X326412Y202643D01*
X325443Y202900D01*
X324466Y203127D01*
X323483Y203325D01*
X322495Y203492D01*
X321502Y203630D01*
X320505Y203736D01*
X319505Y203813D01*
X318503Y203859D01*
X317501Y203874D01*
X317500D01*
X364626Y180500D02*
X364641Y179498D01*
X364687Y178496D01*
X364763Y177496D01*
X364870Y176499D01*
X365007Y175506D01*
X365175Y174517D01*
X365372Y173534D01*
X365600Y172558D01*
X365857Y171589D01*
X366143Y170628D01*
X366459Y169676D01*
X366804Y168735D01*
X367177Y167804D01*
X367578Y166885D01*
X368007Y165979D01*
X368463Y165086D01*
X368947Y164208D01*
X369457Y163345D01*
X369993Y162497D01*
X370555Y161667D01*
X371142Y160854D01*
X371754Y160059D01*
X372389Y159284D01*
X373047Y158528D01*
X373729Y157792D01*
X374432Y157078D01*
X375157Y156385D01*
X375903Y155715D01*
X376669Y155068D01*
X377454Y154445D01*
X378258Y153846D01*
X379080Y153271D01*
X379919Y152722D01*
X380774Y152199D01*
X381645Y151702D01*
X382531Y151232D01*
X383430Y150789D01*
X384343Y150374D01*
X385268Y149987D01*
X386204Y149628D01*
X387151Y149297D01*
X388107Y148996D01*
X389072Y148725D01*
X390045Y148482D01*
X391025Y148270D01*
X392011Y148088D01*
X393002Y147935D01*
X393997Y147813D01*
X394996Y147722D01*
X395996Y147660D01*
X396999Y147630D01*
X398001D01*
X399004Y147660D01*
X400004Y147722D01*
X401003Y147813D01*
X401998Y147935D01*
X402989Y148087D01*
X403975Y148270D01*
X404955Y148482D01*
X405928Y148725D01*
X406893Y148996D01*
X407849Y149297D01*
X408796Y149628D01*
X409732Y149986D01*
X410657Y150374D01*
X411569Y150789D01*
X412469Y151232D01*
X413355Y151702D01*
X414225Y152199D01*
X415081Y152722D01*
X415920Y153271D01*
X416742Y153845D01*
X417545Y154445D01*
X418331Y155068D01*
X419097Y155715D01*
X419842Y156385D01*
X420567Y157078D01*
X421271Y157792D01*
X421952Y158528D01*
X422611Y159284D01*
X423246Y160059D01*
X423858Y160854D01*
X424445Y161667D01*
X425006Y162497D01*
X425543Y163345D01*
X426053Y164208D01*
X426536Y165086D01*
X426993Y165979D01*
X427422Y166885D01*
X427823Y167804D01*
X428196Y168734D01*
X428541Y169676D01*
X428857Y170627D01*
X429143Y171588D01*
X429400Y172557D01*
X429628Y173534D01*
X429825Y174517D01*
X429992Y175506D01*
X430130Y176499D01*
X430236Y177496D01*
X430313Y178495D01*
X430359Y179497D01*
X430374Y180499D01*
Y180500D02*
X430359Y181502D01*
X430313Y182504D01*
X430236Y183504D01*
X430130Y184501D01*
X429992Y185494D01*
X429825Y186483D01*
X429628Y187466D01*
X429400Y188442D01*
X429143Y189411D01*
X428857Y190372D01*
X428541Y191324D01*
X428196Y192265D01*
X427823Y193196D01*
X427422Y194115D01*
X426993Y195021D01*
X426537Y195914D01*
X426053Y196792D01*
X425543Y197655D01*
X425007Y198503D01*
X424445Y199333D01*
X423858Y200146D01*
X423246Y200941D01*
X422611Y201716D01*
X421952Y202472D01*
X421271Y203208D01*
X420568Y203922D01*
X419842Y204615D01*
X419097Y205285D01*
X418331Y205932D01*
X417546Y206555D01*
X416742Y207154D01*
X415920Y207729D01*
X415081Y208278D01*
X414226Y208801D01*
X413355Y209298D01*
X412469Y209768D01*
X411570Y210211D01*
X410657Y210626D01*
X409732Y211014D01*
X408796Y211372D01*
X407849Y211702D01*
X406893Y212004D01*
X405928Y212275D01*
X404955Y212518D01*
X403975Y212730D01*
X402989Y212913D01*
X401998Y213065D01*
X401003Y213187D01*
X400004Y213279D01*
X399004Y213340D01*
X398001Y213370D01*
X396999D01*
X395996Y213340D01*
X394996Y213279D01*
X393997Y213187D01*
X393002Y213065D01*
X392011Y212913D01*
X391025Y212730D01*
X390045Y212518D01*
X389072Y212275D01*
X388107Y212004D01*
X387151Y211702D01*
X386204Y211372D01*
X385268Y211014D01*
X384343Y210626D01*
X383430Y210211D01*
X382531Y209768D01*
X381645Y209298D01*
X380774Y208801D01*
X379919Y208278D01*
X379080Y207729D01*
X378258Y207154D01*
X377454Y206555D01*
X376669Y205932D01*
X375903Y205285D01*
X375157Y204615D01*
X374432Y203922D01*
X373729Y203208D01*
X373047Y202472D01*
X372389Y201716D01*
X371753Y200941D01*
X371142Y200146D01*
X370555Y199333D01*
X369993Y198502D01*
X369457Y197655D01*
X368947Y196792D01*
X368463Y195914D01*
X368007Y195021D01*
X367578Y194115D01*
X367177Y193196D01*
X366804Y192265D01*
X366459Y191324D01*
X366143Y190372D01*
X365857Y189411D01*
X365600Y188442D01*
X365372Y187466D01*
X365175Y186483D01*
X365007Y185494D01*
X364870Y184501D01*
X364763Y183504D01*
X364687Y182504D01*
X364641Y181502D01*
X364626Y180500D01*
X239000Y138126D02*
X240002Y138141D01*
X241004Y138187D01*
X242004Y138263D01*
X243001Y138370D01*
X243994Y138507D01*
X244983Y138675D01*
X245966Y138872D01*
X246942Y139100D01*
X247911Y139357D01*
X248872Y139643D01*
X249824Y139959D01*
X250765Y140303D01*
X251696Y140676D01*
X252615Y141078D01*
X253521Y141507D01*
X254414Y141963D01*
X255292Y142447D01*
X256155Y142957D01*
X257002Y143493D01*
X257833Y144055D01*
X258646Y144642D01*
X259440Y145253D01*
X260216Y145889D01*
X260972Y146547D01*
X261707Y147229D01*
X262422Y147932D01*
X263114Y148657D01*
X263785Y149403D01*
X264432Y150169D01*
X265055Y150954D01*
X265654Y151758D01*
X266229Y152580D01*
X266778Y153419D01*
X267301Y154274D01*
X267798Y155145D01*
X268268Y156031D01*
X268711Y156930D01*
X269126Y157843D01*
X269513Y158768D01*
X269872Y159704D01*
X270202Y160651D01*
X270503Y161607D01*
X270775Y162572D01*
X271018Y163545D01*
X271230Y164525D01*
X271412Y165511D01*
X271565Y166502D01*
X271687Y167497D01*
X271778Y168495D01*
X271840Y169496D01*
X271870Y170498D01*
X271870Y171501D01*
X271840Y172503D01*
X271778Y173504D01*
X271687Y174502D01*
X271565Y175497D01*
X271413Y176488D01*
X271230Y177474D01*
X271018Y178454D01*
X270776Y179427D01*
X270504Y180392D01*
X270203Y181349D01*
X269873Y182295D01*
X269514Y183232D01*
X269127Y184157D01*
X268711Y185069D01*
X268268Y185969D01*
X267798Y186854D01*
X267301Y187725D01*
X266778Y188580D01*
X266229Y189419D01*
X265655Y190241D01*
X265056Y191045D01*
X264432Y191830D01*
X263785Y192596D01*
X263115Y193342D01*
X262422Y194067D01*
X261708Y194771D01*
X260973Y195452D01*
X260217Y196111D01*
X259441Y196746D01*
X258646Y197357D01*
X257834Y197944D01*
X257003Y198506D01*
X256156Y199042D01*
X255293Y199553D01*
X254414Y200036D01*
X253522Y200493D01*
X252615Y200922D01*
X251697Y201323D01*
X250766Y201696D01*
X249825Y202041D01*
X248873Y202357D01*
X247912Y202643D01*
X246943Y202900D01*
X245966Y203127D01*
X244983Y203325D01*
X243995Y203492D01*
X243002Y203630D01*
X242005Y203736D01*
X241005Y203813D01*
X240003Y203859D01*
X239001Y203874D01*
X239000D01*
X237998Y203859D01*
X236996Y203813D01*
X235996Y203736D01*
X234999Y203630D01*
X234006Y203492D01*
X233017Y203325D01*
X232034Y203128D01*
X231058Y202900D01*
X230089Y202643D01*
X229128Y202357D01*
X228176Y202041D01*
X227235Y201696D01*
X226304Y201324D01*
X225385Y200922D01*
X224479Y200493D01*
X223586Y200037D01*
X222708Y199553D01*
X221845Y199043D01*
X220998Y198507D01*
X220167Y197945D01*
X219354Y197358D01*
X218559Y196747D01*
X217784Y196111D01*
X217028Y195452D01*
X216292Y194771D01*
X215578Y194068D01*
X214885Y193342D01*
X214215Y192597D01*
X213568Y191831D01*
X212945Y191046D01*
X212346Y190242D01*
X211771Y189420D01*
X211222Y188581D01*
X210699Y187726D01*
X210202Y186855D01*
X209732Y185969D01*
X209289Y185070D01*
X208874Y184157D01*
X208487Y183232D01*
X208128Y182296D01*
X207798Y181349D01*
X207496Y180393D01*
X207225Y179428D01*
X206982Y178455D01*
X206770Y177475D01*
X206588Y176489D01*
X206435Y175498D01*
X206313Y174503D01*
X206222Y173504D01*
X206160Y172503D01*
X206130Y171501D01*
Y170499D01*
X206160Y169497D01*
X206222Y168496D01*
X206313Y167497D01*
X206435Y166502D01*
X206588Y165511D01*
X206770Y164525D01*
X206982Y163545D01*
X207225Y162572D01*
X207496Y161607D01*
X207798Y160651D01*
X208128Y159704D01*
X208487Y158768D01*
X208874Y157843D01*
X209289Y156930D01*
X209732Y156031D01*
X210202Y155145D01*
X210699Y154274D01*
X211222Y153419D01*
X211771Y152580D01*
X212346Y151758D01*
X212945Y150954D01*
X213568Y150169D01*
X214215Y149403D01*
X214885Y148658D01*
X215578Y147932D01*
X216292Y147229D01*
X217028Y146547D01*
X217784Y145889D01*
X218560Y145253D01*
X219354Y144642D01*
X220167Y144055D01*
X220998Y143493D01*
X221845Y142957D01*
X222708Y142447D01*
X223586Y141964D01*
X224479Y141507D01*
X225385Y141078D01*
X226304Y140676D01*
X227235Y140303D01*
X228176Y139959D01*
X229128Y139643D01*
X230089Y139357D01*
X231058Y139100D01*
X232034Y138872D01*
X233017Y138675D01*
X234006Y138507D01*
X234999Y138370D01*
X235996Y138263D01*
X236996Y138187D01*
X237998Y138141D01*
X239000Y138126D01*
X197874Y171500D02*
X197859Y172503D01*
X197813Y173504D01*
X197737Y174504D01*
X197630Y175501D01*
X197493Y176494D01*
X197325Y177483D01*
X197128Y178466D01*
X196900Y179442D01*
X196643Y180411D01*
X196357Y181372D01*
X196041Y182324D01*
X195696Y183265D01*
X195324Y184196D01*
X194922Y185115D01*
X194493Y186021D01*
X194036Y186914D01*
X193553Y187792D01*
X193043Y188655D01*
X192507Y189503D01*
X191945Y190333D01*
X191358Y191146D01*
X190746Y191941D01*
X190111Y192716D01*
X189453Y193472D01*
X188771Y194208D01*
X188067Y194922D01*
X187343Y195615D01*
X186597Y196285D01*
X185831Y196932D01*
X185046Y197555D01*
X184242Y198154D01*
X183420Y198729D01*
X182581Y199278D01*
X181726Y199801D01*
X180855Y200298D01*
X179969Y200768D01*
X179070Y201211D01*
X178157Y201626D01*
X177232Y202013D01*
X176296Y202372D01*
X175349Y202702D01*
X174393Y203004D01*
X173428Y203275D01*
X172455Y203518D01*
X171475Y203730D01*
X170489Y203912D01*
X169498Y204065D01*
X168503Y204187D01*
X167504Y204278D01*
X166504Y204340D01*
X165501Y204370D01*
X164499D01*
X163496Y204340D01*
X162496Y204278D01*
X161497Y204187D01*
X160502Y204065D01*
X159511Y203912D01*
X158525Y203730D01*
X157545Y203518D01*
X156572Y203275D01*
X155607Y203004D01*
X154651Y202702D01*
X153704Y202372D01*
X152768Y202013D01*
X151843Y201626D01*
X150930Y201211D01*
X150031Y200768D01*
X149145Y200298D01*
X148274Y199801D01*
X147419Y199278D01*
X146580Y198729D01*
X145758Y198154D01*
X144954Y197555D01*
X144169Y196932D01*
X143403Y196285D01*
X142657Y195615D01*
X141932Y194922D01*
X141229Y194208D01*
X140548Y193472D01*
X139889Y192716D01*
X139253Y191941D01*
X138642Y191146D01*
X138055Y190333D01*
X137493Y189502D01*
X136957Y188655D01*
X136447Y187792D01*
X135963Y186914D01*
X135507Y186021D01*
X135078Y185115D01*
X134677Y184196D01*
X134303Y183265D01*
X133959Y182324D01*
X133643Y181372D01*
X133357Y180411D01*
X133100Y179442D01*
X132872Y178466D01*
X132675Y177483D01*
X132508Y176494D01*
X132370Y175501D01*
X132264Y174504D01*
X132187Y173504D01*
X132141Y172503D01*
X132126Y171500D01*
X132141Y170498D01*
X132187Y169496D01*
X132264Y168496D01*
X132370Y167499D01*
X132508Y166506D01*
X132675Y165517D01*
X132872Y164534D01*
X133100Y163558D01*
X133357Y162589D01*
X133643Y161628D01*
X133959Y160676D01*
X134303Y159735D01*
X134677Y158804D01*
X135078Y157885D01*
X135507Y156979D01*
X135963Y156086D01*
X136447Y155208D01*
X136957Y154345D01*
X137493Y153498D01*
X138055Y152667D01*
X138642Y151854D01*
X139253Y151059D01*
X139889Y150284D01*
X140548Y149528D01*
X141229Y148792D01*
X141932Y148078D01*
X142657Y147385D01*
X143403Y146715D01*
X144169Y146068D01*
X144954Y145445D01*
X145758Y144845D01*
X146580Y144271D01*
X147419Y143722D01*
X148274Y143199D01*
X149145Y142702D01*
X150031Y142232D01*
X150930Y141789D01*
X151843Y141374D01*
X152768Y140987D01*
X153704Y140628D01*
X154651Y140297D01*
X155607Y139996D01*
X156572Y139725D01*
X157545Y139482D01*
X158525Y139270D01*
X159511Y139087D01*
X160502Y138935D01*
X161497Y138813D01*
X162496Y138722D01*
X163496Y138660D01*
X164499Y138630D01*
X165501D01*
X166504Y138660D01*
X167504Y138722D01*
X168503Y138813D01*
X169498Y138935D01*
X170489Y139087D01*
X171475Y139270D01*
X172455Y139482D01*
X173428Y139725D01*
X174393Y139996D01*
X175349Y140297D01*
X176296Y140628D01*
X177232Y140986D01*
X178157Y141374D01*
X179069Y141789D01*
X179969Y142232D01*
X180855Y142702D01*
X181726Y143199D01*
X182581Y143722D01*
X183420Y144271D01*
X184241Y144845D01*
X185045Y145445D01*
X185831Y146068D01*
X186597Y146715D01*
X187342Y147385D01*
X188067Y148078D01*
X188771Y148792D01*
X189452Y149528D01*
X190111Y150284D01*
X190746Y151059D01*
X191358Y151854D01*
X191945Y152667D01*
X192506Y153497D01*
X193043Y154344D01*
X193553Y155208D01*
X194036Y156086D01*
X194493Y156979D01*
X194922Y157885D01*
X195323Y158804D01*
X195696Y159734D01*
X196041Y160676D01*
X196357Y161627D01*
X196643Y162588D01*
X196900Y163558D01*
X197127Y164534D01*
X197325Y165517D01*
X197492Y166506D01*
X197630Y167499D01*
X197736Y168496D01*
X197813Y169495D01*
X197859Y170497D01*
X197874Y171500D01*
X238500Y64626D02*
X239503Y64641D01*
X240504Y64687D01*
X241504Y64763D01*
X242501Y64870D01*
X243494Y65008D01*
X244482Y65175D01*
X245465Y65372D01*
X246442Y65600D01*
X247411Y65857D01*
X248372Y66143D01*
X249324Y66459D01*
X250265Y66803D01*
X251196Y67177D01*
X252115Y67578D01*
X253021Y68007D01*
X253914Y68463D01*
X254792Y68947D01*
X255655Y69457D01*
X256502Y69993D01*
X257333Y70555D01*
X258146Y71142D01*
X258940Y71753D01*
X259716Y72389D01*
X260472Y73047D01*
X261208Y73729D01*
X261922Y74432D01*
X262614Y75157D01*
X263285Y75903D01*
X263932Y76669D01*
X264555Y77454D01*
X265154Y78258D01*
X265729Y79080D01*
X266278Y79919D01*
X266801Y80774D01*
X267298Y81645D01*
X267768Y82531D01*
X268211Y83430D01*
X268626Y84343D01*
X269013Y85268D01*
X269372Y86204D01*
X269702Y87151D01*
X270004Y88107D01*
X270275Y89072D01*
X270517Y90045D01*
X270730Y91025D01*
X270913Y92011D01*
X271065Y93002D01*
X271187Y93997D01*
X271279Y94995D01*
X271340Y95996D01*
X271370Y96998D01*
X271370Y98001D01*
X271340Y99003D01*
X271279Y100004D01*
X271187Y101002D01*
X271065Y101997D01*
X270913Y102989D01*
X270730Y103974D01*
X270518Y104954D01*
X270275Y105927D01*
X270004Y106892D01*
X269703Y107849D01*
X269373Y108795D01*
X269014Y109732D01*
X268626Y110656D01*
X268211Y111569D01*
X267768Y112469D01*
X267298Y113354D01*
X266801Y114225D01*
X266278Y115080D01*
X265729Y115919D01*
X265155Y116741D01*
X264556Y117545D01*
X263932Y118330D01*
X263285Y119096D01*
X262615Y119842D01*
X261923Y120567D01*
X261208Y121271D01*
X260473Y121952D01*
X259717Y122611D01*
X258941Y123246D01*
X258146Y123857D01*
X257333Y124444D01*
X256503Y125006D01*
X255656Y125542D01*
X254793Y126053D01*
X253914Y126536D01*
X253022Y126993D01*
X252116Y127422D01*
X251197Y127823D01*
X250266Y128196D01*
X249324Y128541D01*
X248373Y128857D01*
X247412Y129143D01*
X246443Y129400D01*
X245466Y129627D01*
X244483Y129825D01*
X243495Y129992D01*
X242502Y130130D01*
X241505Y130236D01*
X240505Y130313D01*
X239503Y130359D01*
X238501Y130374D01*
X238500D01*
X237497Y130359D01*
X236496Y130313D01*
X235496Y130236D01*
X234499Y130130D01*
X233506Y129992D01*
X232517Y129825D01*
X231534Y129628D01*
X230558Y129400D01*
X229589Y129143D01*
X228628Y128857D01*
X227676Y128541D01*
X226735Y128197D01*
X225804Y127823D01*
X224885Y127422D01*
X223979Y126993D01*
X223086Y126537D01*
X222208Y126053D01*
X221345Y125543D01*
X220497Y125007D01*
X219667Y124445D01*
X218854Y123858D01*
X218059Y123247D01*
X217284Y122611D01*
X216528Y121952D01*
X215792Y121271D01*
X215078Y120568D01*
X214385Y119843D01*
X213715Y119097D01*
X213068Y118331D01*
X212445Y117546D01*
X211845Y116742D01*
X211271Y115920D01*
X210722Y115081D01*
X210199Y114226D01*
X209702Y113355D01*
X209232Y112469D01*
X208789Y111570D01*
X208374Y110657D01*
X207986Y109732D01*
X207628Y108796D01*
X207297Y107849D01*
X206996Y106893D01*
X206725Y105928D01*
X206482Y104955D01*
X206270Y103975D01*
X206087Y102989D01*
X205935Y101998D01*
X205813Y101003D01*
X205721Y100004D01*
X205660Y99003D01*
X205630Y98001D01*
Y96999D01*
X205660Y95996D01*
X205721Y94996D01*
X205813Y93997D01*
X205935Y93002D01*
X206087Y92011D01*
X206270Y91025D01*
X206482Y90045D01*
X206725Y89072D01*
X206996Y88107D01*
X207297Y87151D01*
X207628Y86204D01*
X207986Y85268D01*
X208374Y84343D01*
X208789Y83430D01*
X209232Y82531D01*
X209702Y81645D01*
X210199Y80774D01*
X210722Y79919D01*
X211271Y79080D01*
X211846Y78258D01*
X212445Y77454D01*
X213068Y76669D01*
X213715Y75903D01*
X214385Y75157D01*
X215078Y74432D01*
X215792Y73729D01*
X216528Y73048D01*
X217284Y72389D01*
X218059Y71753D01*
X218854Y71142D01*
X219667Y70555D01*
X220498Y69993D01*
X221345Y69457D01*
X222208Y68947D01*
X223086Y68463D01*
X223979Y68007D01*
X224885Y67578D01*
X225804Y67177D01*
X226735Y66803D01*
X227676Y66459D01*
X228628Y66143D01*
X229589Y65857D01*
X230558Y65600D01*
X231534Y65372D01*
X232517Y65175D01*
X233506Y65008D01*
X234499Y64870D01*
X235496Y64763D01*
X236496Y64687D01*
X237497Y64641D01*
X238500Y64626D01*
X43862Y42500D02*
X43878Y41497D01*
X43923Y40496D01*
X44000Y39496D01*
X44107Y38499D01*
X44244Y37506D01*
X44411Y36517D01*
X44609Y35534D01*
X44836Y34558D01*
X45093Y33589D01*
X45379Y32628D01*
X45695Y31676D01*
X46040Y30735D01*
X46413Y29804D01*
X46814Y28885D01*
X47243Y27979D01*
X47700Y27086D01*
X48183Y26208D01*
X48693Y25345D01*
X49230Y24498D01*
X49791Y23667D01*
X50378Y22854D01*
X50990Y22059D01*
X51625Y21284D01*
X52284Y20528D01*
X52965Y19792D01*
X53669Y19078D01*
X54394Y18385D01*
X55139Y17715D01*
X55905Y17068D01*
X56691Y16445D01*
X57495Y15845D01*
X58316Y15271D01*
X59155Y14722D01*
X60011Y14199D01*
X60882Y13702D01*
X61767Y13232D01*
X62667Y12789D01*
X63579Y12374D01*
X64504Y11987D01*
X65440Y11628D01*
X66387Y11298D01*
X67343Y10996D01*
X68309Y10725D01*
X69282Y10482D01*
X70261Y10270D01*
X71247Y10087D01*
X72238Y9935D01*
X73233Y9813D01*
X74232Y9721D01*
X75233Y9660D01*
X76235Y9630D01*
X77237D01*
X78240Y9660D01*
X79240Y9721D01*
X80239Y9813D01*
X81234Y9935D01*
X82225Y10087D01*
X83211Y10270D01*
X84191Y10482D01*
X85164Y10725D01*
X86129Y10996D01*
X87085Y11298D01*
X88032Y11628D01*
X88968Y11986D01*
X89893Y12374D01*
X90806Y12789D01*
X91705Y13232D01*
X92591Y13702D01*
X93462Y14199D01*
X94317Y14722D01*
X95156Y15271D01*
X95978Y15845D01*
X96782Y16445D01*
X97567Y17068D01*
X98333Y17715D01*
X99079Y18385D01*
X99804Y19078D01*
X100507Y19792D01*
X101189Y20528D01*
X101847Y21284D01*
X102483Y22059D01*
X103094Y22854D01*
X103681Y23667D01*
X104243Y24497D01*
X104779Y25344D01*
X105289Y26208D01*
X105773Y27086D01*
X106229Y27979D01*
X106658Y28885D01*
X107060Y29804D01*
X107433Y30734D01*
X107777Y31676D01*
X108093Y32627D01*
X108379Y33588D01*
X108636Y34558D01*
X108864Y35534D01*
X109061Y36517D01*
X109229Y37506D01*
X109366Y38499D01*
X109473Y39496D01*
X109549Y40495D01*
X109595Y41497D01*
X109610Y42500D01*
Y42500D02*
X109595Y43503D01*
X109549Y44504D01*
X109473Y45504D01*
X109366Y46501D01*
X109229Y47494D01*
X109061Y48483D01*
X108864Y49466D01*
X108636Y50442D01*
X108379Y51411D01*
X108093Y52372D01*
X107777Y53324D01*
X107433Y54265D01*
X107060Y55196D01*
X106658Y56115D01*
X106229Y57021D01*
X105773Y57914D01*
X105289Y58792D01*
X104779Y59655D01*
X104243Y60502D01*
X103681Y61333D01*
X103094Y62146D01*
X102483Y62941D01*
X101847Y63716D01*
X101189Y64472D01*
X100507Y65208D01*
X99804Y65922D01*
X99079Y66615D01*
X98333Y67285D01*
X97567Y67932D01*
X96782Y68555D01*
X95978Y69155D01*
X95156Y69729D01*
X94317Y70278D01*
X93462Y70801D01*
X92591Y71298D01*
X91705Y71768D01*
X90806Y72211D01*
X89893Y72626D01*
X88968Y73014D01*
X88032Y73372D01*
X87085Y73703D01*
X86129Y74004D01*
X85164Y74275D01*
X84191Y74518D01*
X83211Y74730D01*
X82225Y74913D01*
X81234Y75065D01*
X80239Y75187D01*
X79241Y75279D01*
X78240Y75340D01*
X77237Y75370D01*
X76235D01*
X75233Y75340D01*
X74232Y75279D01*
X73233Y75187D01*
X72238Y75065D01*
X71247Y74913D01*
X70261Y74730D01*
X69282Y74518D01*
X68309Y74275D01*
X67343Y74004D01*
X66387Y73703D01*
X65440Y73372D01*
X64504Y73014D01*
X63579Y72626D01*
X62667Y72211D01*
X61767Y71768D01*
X60881Y71298D01*
X60011Y70801D01*
X59155Y70278D01*
X58316Y69729D01*
X57494Y69154D01*
X56691Y68555D01*
X55905Y67932D01*
X55139Y67285D01*
X54394Y66615D01*
X53669Y65922D01*
X52965Y65208D01*
X52284Y64472D01*
X51625Y63716D01*
X50990Y62941D01*
X50378Y62146D01*
X49791Y61333D01*
X49230Y60502D01*
X48693Y59655D01*
X48183Y58792D01*
X47700Y57914D01*
X47243Y57021D01*
X46814Y56115D01*
X46413Y55196D01*
X46040Y54265D01*
X45695Y53324D01*
X45379Y52372D01*
X45093Y51411D01*
X44836Y50442D01*
X44609Y49466D01*
X44411Y48483D01*
X44244Y47494D01*
X44107Y46501D01*
X44000Y45504D01*
X43923Y44504D01*
X43878Y43503D01*
X43862Y42500D01*
X362374Y95000D02*
X362359Y96003D01*
X362313Y97004D01*
X362236Y98004D01*
X362130Y99001D01*
X361993Y99994D01*
X361825Y100983D01*
X361628Y101966D01*
X361400Y102942D01*
X361143Y103911D01*
X360857Y104872D01*
X360541Y105824D01*
X360196Y106765D01*
X359823Y107696D01*
X359422Y108615D01*
X358993Y109521D01*
X358537Y110414D01*
X358053Y111292D01*
X357543Y112155D01*
X357007Y113003D01*
X356445Y113833D01*
X355858Y114646D01*
X355246Y115441D01*
X354611Y116216D01*
X353953Y116972D01*
X353271Y117708D01*
X352568Y118422D01*
X351842Y119115D01*
X351097Y119785D01*
X350331Y120432D01*
X349546Y121055D01*
X348742Y121654D01*
X347920Y122229D01*
X347081Y122778D01*
X346226Y123301D01*
X345355Y123798D01*
X344469Y124268D01*
X343570Y124711D01*
X342657Y125126D01*
X341732Y125514D01*
X340796Y125872D01*
X339849Y126202D01*
X338893Y126504D01*
X337928Y126775D01*
X336955Y127018D01*
X335975Y127230D01*
X334989Y127412D01*
X333998Y127565D01*
X333003Y127687D01*
X332004Y127778D01*
X331003Y127840D01*
X330001Y127870D01*
X328999D01*
X327996Y127840D01*
X326996Y127778D01*
X325997Y127687D01*
X325002Y127565D01*
X324011Y127412D01*
X323025Y127230D01*
X322045Y127018D01*
X321072Y126775D01*
X320107Y126504D01*
X319151Y126202D01*
X318204Y125872D01*
X317268Y125514D01*
X316343Y125126D01*
X315430Y124711D01*
X314531Y124268D01*
X313645Y123798D01*
X312774Y123301D01*
X311919Y122778D01*
X311080Y122229D01*
X310258Y121654D01*
X309454Y121055D01*
X308669Y120432D01*
X307903Y119785D01*
X307157Y119115D01*
X306433Y118422D01*
X305729Y117708D01*
X305047Y116972D01*
X304389Y116216D01*
X303753Y115441D01*
X303142Y114646D01*
X302555Y113833D01*
X301993Y113002D01*
X301457Y112155D01*
X300947Y111292D01*
X300464Y110414D01*
X300007Y109521D01*
X299578Y108615D01*
X299177Y107696D01*
X298803Y106765D01*
X298459Y105824D01*
X298143Y104872D01*
X297857Y103911D01*
X297600Y102942D01*
X297372Y101966D01*
X297175Y100983D01*
X297007Y99994D01*
X296870Y99001D01*
X296763Y98004D01*
X296687Y97004D01*
X296641Y96003D01*
X296626Y95000D01*
X296641Y93998D01*
X296687Y92996D01*
X296763Y91996D01*
X296870Y90999D01*
X297007Y90006D01*
X297175Y89017D01*
X297372Y88034D01*
X297600Y87058D01*
X297857Y86089D01*
X298143Y85128D01*
X298459Y84176D01*
X298803Y83235D01*
X299177Y82304D01*
X299578Y81385D01*
X300007Y80479D01*
X300464Y79586D01*
X300947Y78708D01*
X301457Y77845D01*
X301993Y76998D01*
X302555Y76167D01*
X303142Y75354D01*
X303753Y74559D01*
X304389Y73784D01*
X305047Y73028D01*
X305729Y72292D01*
X306433Y71578D01*
X307157Y70885D01*
X307903Y70215D01*
X308669Y69568D01*
X309454Y68945D01*
X310258Y68345D01*
X311080Y67771D01*
X311919Y67222D01*
X312774Y66699D01*
X313645Y66202D01*
X314531Y65732D01*
X315430Y65289D01*
X316343Y64874D01*
X317268Y64486D01*
X318204Y64128D01*
X319151Y63797D01*
X320107Y63496D01*
X321072Y63225D01*
X322045Y62982D01*
X323025Y62770D01*
X324011Y62587D01*
X325002Y62435D01*
X325997Y62313D01*
X326996Y62221D01*
X327996Y62160D01*
X328999Y62130D01*
X330001D01*
X331003Y62160D01*
X332004Y62221D01*
X333003Y62313D01*
X333998Y62435D01*
X334989Y62587D01*
X335975Y62770D01*
X336955Y62982D01*
X337928Y63225D01*
X338893Y63496D01*
X339849Y63797D01*
X340796Y64128D01*
X341732Y64486D01*
X342657Y64874D01*
X343569Y65289D01*
X344469Y65732D01*
X345355Y66202D01*
X346226Y66699D01*
X347081Y67222D01*
X347920Y67771D01*
X348742Y68345D01*
X349545Y68945D01*
X350331Y69568D01*
X351097Y70215D01*
X351842Y70885D01*
X352567Y71578D01*
X353271Y72292D01*
X353952Y73028D01*
X354611Y73784D01*
X355246Y74559D01*
X355858Y75354D01*
X356445Y76167D01*
X357006Y76997D01*
X357543Y77845D01*
X358053Y78708D01*
X358536Y79586D01*
X358993Y80479D01*
X359422Y81385D01*
X359823Y82304D01*
X360196Y83234D01*
X360541Y84176D01*
X360857Y85128D01*
X361143Y86088D01*
X361400Y87058D01*
X361628Y88034D01*
X361825Y89017D01*
X361992Y90006D01*
X362130Y90999D01*
X362236Y91996D01*
X362313Y92995D01*
X362359Y93997D01*
X362374Y94999D01*
X21102Y161650D02*
X33898D01*
Y150350D02*
Y161650D01*
X21102Y150350D02*
X33898D01*
X21102D02*
Y161650D01*
Y183150D02*
X33898D01*
Y171850D02*
Y183150D01*
X21102Y171850D02*
X33898D01*
X21102D02*
Y183150D01*
X20602Y240650D02*
X33398D01*
Y229350D02*
Y240650D01*
X20602Y229350D02*
X33398D01*
X20602D02*
Y240650D01*
Y217150D02*
X33398D01*
Y205850D02*
Y217150D01*
X20602Y205850D02*
X33398D01*
X20602D02*
Y217150D01*
X21102Y266650D02*
X33898D01*
Y255350D02*
Y266650D01*
X21102Y255350D02*
X33898D01*
X21102D02*
Y266650D01*
X22102Y288150D02*
X34898D01*
Y276850D02*
Y288150D01*
X22102Y276850D02*
X34898D01*
X22102D02*
Y288150D01*
Y308150D02*
X34898D01*
Y296850D02*
Y308150D01*
X22102Y296850D02*
X34898D01*
X22102D02*
Y308150D01*
X22602Y329650D02*
X35398D01*
Y318350D02*
Y329650D01*
X22602Y318350D02*
X35398D01*
X22602D02*
Y329650D01*
X45768Y318004D02*
X99232D01*
X45768D02*
Y330996D01*
X99232D01*
Y318004D02*
Y330996D01*
X108244Y214004D02*
Y226996D01*
Y214004D02*
X161709D01*
Y226996D01*
X108244D02*
X161709D01*
X99732Y274004D02*
Y286996D01*
X46268D02*
X99732D01*
X46268Y274004D02*
Y286996D01*
Y274004D02*
X99732D01*
X98256Y223004D02*
Y235996D01*
X44791D02*
X98256D01*
X44791Y223004D02*
Y235996D01*
Y223004D02*
X98256D01*
X107768Y243504D02*
Y256496D01*
Y243504D02*
X161232D01*
Y256496D01*
X107768D02*
X161232D01*
X44768Y198004D02*
Y210996D01*
Y198004D02*
X98232D01*
Y210996D01*
X44768D02*
X98232D01*
X44768Y247504D02*
Y260496D01*
Y247504D02*
X98232D01*
Y260496D01*
X44768D02*
X98232D01*
X309268Y231004D02*
Y243996D01*
Y231004D02*
X362732D01*
Y243996D01*
X309268D02*
X362732D01*
X367244Y121504D02*
Y134496D01*
Y121504D02*
X420709D01*
Y134496D01*
X367244D02*
X420709D01*
X99732Y296004D02*
Y308996D01*
X46268D02*
X99732D01*
X46268Y296004D02*
Y308996D01*
Y296004D02*
X99732D01*
X531232Y145504D02*
Y158496D01*
X477768D02*
X531232D01*
X477768Y145504D02*
Y158496D01*
Y145504D02*
X531232D01*
X478268Y121004D02*
Y133996D01*
Y121004D02*
X531732D01*
Y133996D01*
X478268D02*
X531732D01*
D47*
X134032Y302000D02*
X137969D01*
X136000Y300032D02*
Y303969D01*
X395032Y303500D02*
X398969D01*
X397000Y301532D02*
Y305469D01*
X263532Y303000D02*
X267469D01*
X265500Y301032D02*
Y304969D01*
X395532Y246500D02*
X399469D01*
X397500Y244532D02*
Y248469D01*
X84000Y101031D02*
Y104968D01*
X82032Y103000D02*
X85969D01*
X82032Y162500D02*
X85969D01*
X84000Y160531D02*
Y164468D01*
X388532Y75000D02*
X392469D01*
X390500Y73032D02*
Y76969D01*
X167000Y101031D02*
Y104968D01*
X165032Y103000D02*
X168969D01*
X448032Y129500D02*
X451969D01*
X450000Y127532D02*
Y131469D01*
D48*
X116906Y280937D02*
Y323063D01*
X155094Y280937D02*
Y323063D01*
X116906D02*
X155094D01*
X116906Y280937D02*
X155094D01*
X492512Y283256D02*
Y322744D01*
X471528Y283256D02*
X492512D01*
X471528D02*
Y322744D01*
X492512D01*
X416094Y282437D02*
Y324563D01*
X377906Y282437D02*
Y324563D01*
Y282437D02*
X416094D01*
X377906Y324563D02*
X416094D01*
X207512Y212256D02*
Y251744D01*
X186528Y212256D02*
X207512D01*
X186528D02*
Y251744D01*
X207512D01*
X284594Y281937D02*
Y324063D01*
X246406Y281937D02*
Y324063D01*
Y281937D02*
X284594D01*
X246406Y324063D02*
X284594D01*
X457012Y284256D02*
Y323744D01*
X436028Y284256D02*
X457012D01*
X436028D02*
Y323744D01*
X457012D01*
X528512Y283256D02*
Y322744D01*
X507528Y283256D02*
X528512D01*
X507528D02*
Y322744D01*
X528512D01*
X470988Y230256D02*
Y269744D01*
X491972D01*
Y230256D02*
Y269744D01*
X470988Y230256D02*
X491972D01*
X529012Y229756D02*
Y269244D01*
X508028Y229756D02*
X529012D01*
X508028D02*
Y269244D01*
X529012D01*
X477988Y174256D02*
Y213744D01*
X498972D01*
Y174256D02*
Y213744D01*
X477988Y174256D02*
X498972D01*
X416594Y225437D02*
Y267563D01*
X378406Y225437D02*
Y267563D01*
Y225437D02*
X416594D01*
X378406Y267563D02*
X416594D01*
X444488Y174256D02*
Y213744D01*
X465472D01*
Y174256D02*
Y213744D01*
X444488Y174256D02*
X465472D01*
X509988Y174756D02*
Y214244D01*
X530972D01*
Y174756D02*
Y214244D01*
X509988Y174756D02*
X530972D01*
X259756Y34488D02*
X299244D01*
X259756D02*
Y55472D01*
X299244D01*
Y34488D02*
Y55472D01*
X507488Y67756D02*
Y107244D01*
X528472D01*
Y67756D02*
Y107244D01*
X507488Y67756D02*
X528472D01*
X198256Y32988D02*
X237744D01*
X198256D02*
Y53972D01*
X237744D01*
Y32988D02*
Y53972D01*
X45220Y83906D02*
X122780D01*
X45220Y122094D02*
X122780D01*
X45220Y83906D02*
Y122094D01*
X122780Y83906D02*
Y122094D01*
X43646Y143602D02*
Y181398D01*
X124354Y143602D02*
Y181398D01*
X43646Y143602D02*
X124354D01*
X43646Y181398D02*
X124354D01*
X371406Y53937D02*
Y96063D01*
X409594Y53937D02*
Y96063D01*
X371406D02*
X409594D01*
X371406Y53937D02*
X409594D01*
X145937Y122094D02*
X188063D01*
X145937Y83906D02*
X188063D01*
Y122094D01*
X145937Y83906D02*
Y122094D01*
X137256Y33488D02*
X176744D01*
X137256D02*
Y54472D01*
X176744D01*
Y33488D02*
Y54472D01*
X430906Y108437D02*
Y150563D01*
X469094Y108437D02*
Y150563D01*
X430906D02*
X469094D01*
X430906Y108437D02*
X469094D01*
M02*
