G04*
G04 #@! TF.GenerationSoftware,Altium Limited,Altium Designer,22.7.1 (60)*
G04*
G04 Layer_Color=16711935*
%FSLAX25Y25*%
%MOIN*%
G70*
G04*
G04 #@! TF.SameCoordinates,62B07443-8612-450D-B8CB-4F7C4A51FEE5*
G04*
G04*
G04 #@! TF.FilePolarity,Positive*
G04*
G01*
G75*
%ADD11C,0.00787*%
%ADD15C,0.01000*%
%ADD46C,0.00700*%
D11*
X81096Y91500D02*
X86016D01*
X87000Y92484D01*
Y94452D01*
X86016Y95436D01*
X81096D01*
X82080Y97404D02*
X81096Y98387D01*
Y100355D01*
X82080Y101339D01*
X83064D01*
X84048Y100355D01*
X85032Y101339D01*
X86016D01*
X87000Y100355D01*
Y98387D01*
X86016Y97404D01*
X85032D01*
X84048Y98387D01*
X83064Y97404D01*
X82080D01*
X84048Y98387D02*
Y100355D01*
D15*
X500Y500D02*
X551000D01*
X500Y352500D02*
X551000D01*
Y500D02*
Y352500D01*
X500Y500D02*
Y352500D01*
D46*
X130000Y303999D02*
Y300666D01*
X130666Y300000D01*
X131999D01*
X132666Y300666D01*
Y303999D01*
X133999Y300000D02*
X135332D01*
X134665D01*
Y303999D01*
X133999Y303332D01*
X403000Y301501D02*
Y304834D01*
X402334Y305500D01*
X401001D01*
X400334Y304834D01*
Y301501D01*
X399001Y302168D02*
X398335Y301501D01*
X397002D01*
X396336Y302168D01*
Y302834D01*
X397002Y303501D01*
X397668D01*
X397002D01*
X396336Y304167D01*
Y304834D01*
X397002Y305500D01*
X398335D01*
X399001Y304834D01*
X271500Y301001D02*
Y304334D01*
X270834Y305000D01*
X269501D01*
X268834Y304334D01*
Y301001D01*
X264836Y305000D02*
X267501D01*
X264836Y302334D01*
Y301668D01*
X265502Y301001D01*
X266835D01*
X267501Y301668D01*
X403500Y244501D02*
Y247834D01*
X402834Y248500D01*
X401501D01*
X400834Y247834D01*
Y244501D01*
X397502Y248500D02*
Y244501D01*
X399501Y246501D01*
X396835D01*
X384500Y76999D02*
Y73666D01*
X385166Y73000D01*
X386499D01*
X387166Y73666D01*
Y76999D01*
X391164D02*
X389832Y76332D01*
X388499Y74999D01*
Y73666D01*
X389165Y73000D01*
X390498D01*
X391164Y73666D01*
Y74333D01*
X390498Y74999D01*
X388499D01*
X168999Y109000D02*
X165666D01*
X165000Y108334D01*
Y107001D01*
X165666Y106334D01*
X168999D01*
Y105001D02*
Y102336D01*
X168332D01*
X165666Y105001D01*
X165000D01*
X444000Y131499D02*
Y128166D01*
X444666Y127500D01*
X445999D01*
X446666Y128166D01*
Y131499D01*
X450665D02*
X447999D01*
Y129499D01*
X449332Y130166D01*
X449998D01*
X450665Y129499D01*
Y128166D01*
X449998Y127500D01*
X448665D01*
X447999Y128166D01*
M02*
