G04*
G04 #@! TF.GenerationSoftware,Altium Limited,Altium Designer,22.7.1 (60)*
G04*
G04 Layer_Color=2752767*
%FSLAX25Y25*%
%MOIN*%
G70*
G04*
G04 #@! TF.SameCoordinates,62B07443-8612-450D-B8CB-4F7C4A51FEE5*
G04*
G04*
G04 #@! TF.FilePolarity,Positive*
G04*
G01*
G75*
%ADD49C,0.00200*%
%ADD50C,0.00267*%
D49*
X11200Y341700D02*
Y343300D01*
X12800D01*
Y341700D01*
X11200D01*
X11600Y342100D02*
Y342900D01*
X12400D01*
Y342100D01*
X11600D01*
X471264Y68200D02*
X470464Y69800D01*
X472064D01*
X471264Y68200D01*
X441736D02*
X440936Y69800D01*
X442536D01*
X441736Y68200D01*
X95676Y323700D02*
Y325300D01*
X97276D01*
Y323700D01*
X95676D01*
X47724D02*
Y325300D01*
X49324D01*
Y323700D01*
X47724D01*
X539200Y341700D02*
Y343300D01*
X540800D01*
Y341700D01*
X539200D01*
X539600Y342100D02*
Y342900D01*
X540400D01*
Y342100D01*
X539600D01*
X536700Y10700D02*
Y12300D01*
X538300D01*
Y10700D01*
X536700D01*
X537100Y11100D02*
Y11900D01*
X537900D01*
Y11100D01*
X537100D01*
X10700Y9200D02*
Y10800D01*
X12300D01*
Y9200D01*
X10700D01*
X11100Y9600D02*
Y10400D01*
X11900D01*
Y9600D01*
X11100D01*
X198500Y284436D02*
X197700Y286036D01*
X199300D01*
X198500Y284436D01*
Y313964D02*
X197700Y315564D01*
X199300D01*
X198500Y313964D01*
X281764Y239200D02*
X280964Y240800D01*
X282564D01*
X281764Y239200D01*
X252236D02*
X251436Y240800D01*
X253036D01*
X252236Y239200D01*
X121000Y316200D02*
X121400Y316600D01*
X121800D01*
X121400Y317000D01*
X121800Y317400D01*
X121400D01*
X121000Y317800D01*
X120600Y317400D01*
X120200D01*
X120600Y317000D01*
X120200Y316600D01*
X120600D01*
X121000Y316200D01*
Y306200D02*
X121400Y306600D01*
X121800D01*
X121400Y307000D01*
X121800Y307400D01*
X121400D01*
X121000Y307800D01*
X120600Y307400D01*
X120200D01*
X120600Y307000D01*
X120200Y306600D01*
X120600D01*
X121000Y306200D01*
Y296200D02*
X121400Y296600D01*
X121800D01*
X121400Y297000D01*
X121800Y297400D01*
X121400D01*
X121000Y297800D01*
X120600Y297400D01*
X120200D01*
X120600Y297000D01*
X120200Y296600D01*
X120600D01*
X121000Y296200D01*
Y286200D02*
X121400Y286600D01*
X121800D01*
X121400Y287000D01*
X121800Y287400D01*
X121400D01*
X121000Y287800D01*
X120600Y287400D01*
X120200D01*
X120600Y287000D01*
X120200Y286600D01*
X120600D01*
X121000Y286200D01*
X151000Y316200D02*
X151400Y316600D01*
X151800D01*
X151400Y317000D01*
X151800Y317400D01*
X151400D01*
X151000Y317800D01*
X150600Y317400D01*
X150200D01*
X150600Y317000D01*
X150200Y316600D01*
X150600D01*
X151000Y316200D01*
Y306200D02*
X151400Y306600D01*
X151800D01*
X151400Y307000D01*
X151800Y307400D01*
X151400D01*
X151000Y307800D01*
X150600Y307400D01*
X150200D01*
X150600Y307000D01*
X150200Y306600D01*
X150600D01*
X151000Y306200D01*
Y296200D02*
X151400Y296600D01*
X151800D01*
X151400Y297000D01*
X151800Y297400D01*
X151400D01*
X151000Y297800D01*
X150600Y297400D01*
X150200D01*
X150600Y297000D01*
X150200Y296600D01*
X150600D01*
X151000Y296200D01*
Y286200D02*
X151400Y286600D01*
X151800D01*
X151400Y287000D01*
X151800Y287400D01*
X151400D01*
X151000Y287800D01*
X150600Y287400D01*
X150200D01*
X150600Y287000D01*
X150200Y286600D01*
X150600D01*
X151000Y286200D01*
X481200Y312200D02*
X481600Y313000D01*
X481200Y313800D01*
X482000Y313400D01*
X482800Y313800D01*
X482400Y313000D01*
X482800Y312200D01*
X482000Y312600D01*
X481200Y312200D01*
Y302200D02*
X481600Y303000D01*
X481200Y303800D01*
X482000Y303400D01*
X482800Y303800D01*
X482400Y303000D01*
X482800Y302200D01*
X482000Y302600D01*
X481200Y302200D01*
Y292200D02*
X481600Y293000D01*
X481200Y293800D01*
X482000Y293400D01*
X482800Y293800D01*
X482400Y293000D01*
X482800Y292200D01*
X482000Y292600D01*
X481200Y292200D01*
X158153Y219700D02*
Y221300D01*
X159753D01*
Y219700D01*
X158153D01*
X110200D02*
Y221300D01*
X111800D01*
Y219700D01*
X110200D01*
X48224Y279700D02*
Y281300D01*
X49824D01*
Y279700D01*
X48224D01*
X96176D02*
Y281300D01*
X97776D01*
Y279700D01*
X96176D01*
X412000Y287700D02*
X412400Y288100D01*
X412800D01*
X412400Y288500D01*
X412800Y288900D01*
X412400D01*
X412000Y289300D01*
X411600Y288900D01*
X411200D01*
X411600Y288500D01*
X411200Y288100D01*
X411600D01*
X412000Y287700D01*
Y297700D02*
X412400Y298100D01*
X412800D01*
X412400Y298500D01*
X412800Y298900D01*
X412400D01*
X412000Y299300D01*
X411600Y298900D01*
X411200D01*
X411600Y298500D01*
X411200Y298100D01*
X411600D01*
X412000Y297700D01*
Y307700D02*
X412400Y308100D01*
X412800D01*
X412400Y308500D01*
X412800Y308900D01*
X412400D01*
X412000Y309300D01*
X411600Y308900D01*
X411200D01*
X411600Y308500D01*
X411200Y308100D01*
X411600D01*
X412000Y307700D01*
Y317700D02*
X412400Y318100D01*
X412800D01*
X412400Y318500D01*
X412800Y318900D01*
X412400D01*
X412000Y319300D01*
X411600Y318900D01*
X411200D01*
X411600Y318500D01*
X411200Y318100D01*
X411600D01*
X412000Y317700D01*
X382000Y287700D02*
X382400Y288100D01*
X382800D01*
X382400Y288500D01*
X382800Y288900D01*
X382400D01*
X382000Y289300D01*
X381600Y288900D01*
X381200D01*
X381600Y288500D01*
X381200Y288100D01*
X381600D01*
X382000Y287700D01*
Y297700D02*
X382400Y298100D01*
X382800D01*
X382400Y298500D01*
X382800Y298900D01*
X382400D01*
X382000Y299300D01*
X381600Y298900D01*
X381200D01*
X381600Y298500D01*
X381200Y298100D01*
X381600D01*
X382000Y297700D01*
Y307700D02*
X382400Y308100D01*
X382800D01*
X382400Y308500D01*
X382800Y308900D01*
X382400D01*
X382000Y309300D01*
X381600Y308900D01*
X381200D01*
X381600Y308500D01*
X381200Y308100D01*
X381600D01*
X382000Y307700D01*
Y317700D02*
X382400Y318100D01*
X382800D01*
X382400Y318500D01*
X382800Y318900D01*
X382400D01*
X382000Y319300D01*
X381600Y318900D01*
X381200D01*
X381600Y318500D01*
X381200Y318100D01*
X381600D01*
X382000Y317700D01*
X196200Y241200D02*
X196600Y242000D01*
X196200Y242800D01*
X197000Y242400D01*
X197800Y242800D01*
X197400Y242000D01*
X197800Y241200D01*
X197000Y241600D01*
X196200Y241200D01*
Y231200D02*
X196600Y232000D01*
X196200Y232800D01*
X197000Y232400D01*
X197800Y232800D01*
X197400Y232000D01*
X197800Y231200D01*
X197000Y231600D01*
X196200Y231200D01*
Y221200D02*
X196600Y222000D01*
X196200Y222800D01*
X197000Y222400D01*
X197800Y222800D01*
X197400Y222000D01*
X197800Y221200D01*
X197000Y221600D01*
X196200Y221200D01*
X280500Y287200D02*
X280900Y287600D01*
X281300D01*
X280900Y288000D01*
X281300Y288400D01*
X280900D01*
X280500Y288800D01*
X280100Y288400D01*
X279700D01*
X280100Y288000D01*
X279700Y287600D01*
X280100D01*
X280500Y287200D01*
Y297200D02*
X280900Y297600D01*
X281300D01*
X280900Y298000D01*
X281300Y298400D01*
X280900D01*
X280500Y298800D01*
X280100Y298400D01*
X279700D01*
X280100Y298000D01*
X279700Y297600D01*
X280100D01*
X280500Y297200D01*
Y307200D02*
X280900Y307600D01*
X281300D01*
X280900Y308000D01*
X281300Y308400D01*
X280900D01*
X280500Y308800D01*
X280100Y308400D01*
X279700D01*
X280100Y308000D01*
X279700Y307600D01*
X280100D01*
X280500Y307200D01*
Y317200D02*
X280900Y317600D01*
X281300D01*
X280900Y318000D01*
X281300Y318400D01*
X280900D01*
X280500Y318800D01*
X280100Y318400D01*
X279700D01*
X280100Y318000D01*
X279700Y317600D01*
X280100D01*
X280500Y317200D01*
X250500Y287200D02*
X250900Y287600D01*
X251300D01*
X250900Y288000D01*
X251300Y288400D01*
X250900D01*
X250500Y288800D01*
X250100Y288400D01*
X249700D01*
X250100Y288000D01*
X249700Y287600D01*
X250100D01*
X250500Y287200D01*
Y297200D02*
X250900Y297600D01*
X251300D01*
X250900Y298000D01*
X251300Y298400D01*
X250900D01*
X250500Y298800D01*
X250100Y298400D01*
X249700D01*
X250100Y298000D01*
X249700Y297600D01*
X250100D01*
X250500Y297200D01*
Y307200D02*
X250900Y307600D01*
X251300D01*
X250900Y308000D01*
X251300Y308400D01*
X250900D01*
X250500Y308800D01*
X250100Y308400D01*
X249700D01*
X250100Y308000D01*
X249700Y307600D01*
X250100D01*
X250500Y307200D01*
Y317200D02*
X250900Y317600D01*
X251300D01*
X250900Y318000D01*
X251300Y318400D01*
X250900D01*
X250500Y318800D01*
X250100Y318400D01*
X249700D01*
X250100Y318000D01*
X249700Y317600D01*
X250100D01*
X250500Y317200D01*
X445700Y313200D02*
X446100Y314000D01*
X445700Y314800D01*
X446500Y314400D01*
X447300Y314800D01*
X446900Y314000D01*
X447300Y313200D01*
X446500Y313600D01*
X445700Y313200D01*
Y303200D02*
X446100Y304000D01*
X445700Y304800D01*
X446500Y304400D01*
X447300Y304800D01*
X446900Y304000D01*
X447300Y303200D01*
X446500Y303600D01*
X445700Y303200D01*
Y293200D02*
X446100Y294000D01*
X445700Y294800D01*
X446500Y294400D01*
X447300Y294800D01*
X446900Y294000D01*
X447300Y293200D01*
X446500Y293600D01*
X445700Y293200D01*
X46747Y228700D02*
Y230300D01*
X48347D01*
Y228700D01*
X46747D01*
X94700D02*
Y230300D01*
X96300D01*
Y228700D01*
X94700D01*
X517200Y312200D02*
X517600Y313000D01*
X517200Y313800D01*
X518000Y313400D01*
X518800Y313800D01*
X518400Y313000D01*
X518800Y312200D01*
X518000Y312600D01*
X517200Y312200D01*
Y302200D02*
X517600Y303000D01*
X517200Y303800D01*
X518000Y303400D01*
X518800Y303800D01*
X518400Y303000D01*
X518800Y302200D01*
X518000Y302600D01*
X517200Y302200D01*
Y292200D02*
X517600Y293000D01*
X517200Y293800D01*
X518000Y293400D01*
X518800Y293800D01*
X518400Y293000D01*
X518800Y292200D01*
X518000Y292600D01*
X517200Y292200D01*
X349500Y295200D02*
X348700Y296800D01*
X350300D01*
X349500Y295200D01*
X319972D02*
X319172Y296800D01*
X320772D01*
X319972Y295200D01*
X157676Y249200D02*
Y250800D01*
X159276D01*
Y249200D01*
X157676D01*
X109724D02*
Y250800D01*
X111324D01*
Y249200D01*
X109724D01*
X94676Y203700D02*
Y205300D01*
X96276D01*
Y203700D01*
X94676D01*
X46724D02*
Y205300D01*
X48324D01*
Y203700D01*
X46724D01*
X94676Y253200D02*
Y254800D01*
X96276D01*
Y253200D01*
X94676D01*
X46724D02*
Y254800D01*
X48324D01*
Y253200D01*
X46724D01*
X359176Y236700D02*
Y238300D01*
X360776D01*
Y236700D01*
X359176D01*
X311224D02*
Y238300D01*
X312824D01*
Y236700D01*
X311224D01*
X317500Y155436D02*
X316700Y157036D01*
X318300D01*
X317500Y155436D01*
Y184964D02*
X316700Y186564D01*
X318300D01*
X317500Y184964D01*
X417153Y127200D02*
Y128800D01*
X418753D01*
Y127200D01*
X417153D01*
X369200D02*
Y128800D01*
X370800D01*
Y127200D01*
X369200D01*
X48224Y301700D02*
Y303300D01*
X49824D01*
Y301700D01*
X48224D01*
X96176D02*
Y303300D01*
X97776D01*
Y301700D01*
X96176D01*
X480700Y239200D02*
X481100Y240000D01*
X480700Y240800D01*
X481500Y240400D01*
X482300Y240800D01*
X481900Y240000D01*
X482300Y239200D01*
X481500Y239600D01*
X480700Y239200D01*
Y249200D02*
X481100Y250000D01*
X480700Y250800D01*
X481500Y250400D01*
X482300Y250800D01*
X481900Y250000D01*
X482300Y249200D01*
X481500Y249600D01*
X480700Y249200D01*
Y259200D02*
X481100Y260000D01*
X480700Y260800D01*
X481500Y260400D01*
X482300Y260800D01*
X481900Y260000D01*
X482300Y259200D01*
X481500Y259600D01*
X480700Y259200D01*
X517700Y258700D02*
X518100Y259500D01*
X517700Y260300D01*
X518500Y259900D01*
X519300Y260300D01*
X518900Y259500D01*
X519300Y258700D01*
X518500Y259100D01*
X517700Y258700D01*
Y248700D02*
X518100Y249500D01*
X517700Y250300D01*
X518500Y249900D01*
X519300Y250300D01*
X518900Y249500D01*
X519300Y248700D01*
X518500Y249100D01*
X517700Y248700D01*
Y238700D02*
X518100Y239500D01*
X517700Y240300D01*
X518500Y239900D01*
X519300Y240300D01*
X518900Y239500D01*
X519300Y238700D01*
X518500Y239100D01*
X517700Y238700D01*
X487700Y183200D02*
X488100Y184000D01*
X487700Y184800D01*
X488500Y184400D01*
X489300Y184800D01*
X488900Y184000D01*
X489300Y183200D01*
X488500Y183600D01*
X487700Y183200D01*
Y193200D02*
X488100Y194000D01*
X487700Y194800D01*
X488500Y194400D01*
X489300Y194800D01*
X488900Y194000D01*
X489300Y193200D01*
X488500Y193600D01*
X487700Y193200D01*
Y203200D02*
X488100Y204000D01*
X487700Y204800D01*
X488500Y204400D01*
X489300Y204800D01*
X488900Y204000D01*
X489300Y203200D01*
X488500Y203600D01*
X487700Y203200D01*
X412264Y179700D02*
X411464Y181300D01*
X413064D01*
X412264Y179700D01*
X382736D02*
X381936Y181300D01*
X383536D01*
X382736Y179700D01*
X412500Y230700D02*
X412900Y231100D01*
X413300D01*
X412900Y231500D01*
X413300Y231900D01*
X412900D01*
X412500Y232300D01*
X412100Y231900D01*
X411700D01*
X412100Y231500D01*
X411700Y231100D01*
X412100D01*
X412500Y230700D01*
Y240700D02*
X412900Y241100D01*
X413300D01*
X412900Y241500D01*
X413300Y241900D01*
X412900D01*
X412500Y242300D01*
X412100Y241900D01*
X411700D01*
X412100Y241500D01*
X411700Y241100D01*
X412100D01*
X412500Y240700D01*
Y250700D02*
X412900Y251100D01*
X413300D01*
X412900Y251500D01*
X413300Y251900D01*
X412900D01*
X412500Y252300D01*
X412100Y251900D01*
X411700D01*
X412100Y251500D01*
X411700Y251100D01*
X412100D01*
X412500Y250700D01*
Y260700D02*
X412900Y261100D01*
X413300D01*
X412900Y261500D01*
X413300Y261900D01*
X412900D01*
X412500Y262300D01*
X412100Y261900D01*
X411700D01*
X412100Y261500D01*
X411700Y261100D01*
X412100D01*
X412500Y260700D01*
X382500Y230700D02*
X382900Y231100D01*
X383300D01*
X382900Y231500D01*
X383300Y231900D01*
X382900D01*
X382500Y232300D01*
X382100Y231900D01*
X381700D01*
X382100Y231500D01*
X381700Y231100D01*
X382100D01*
X382500Y230700D01*
Y240700D02*
X382900Y241100D01*
X383300D01*
X382900Y241500D01*
X383300Y241900D01*
X382900D01*
X382500Y242300D01*
X382100Y241900D01*
X381700D01*
X382100Y241500D01*
X381700Y241100D01*
X382100D01*
X382500Y240700D01*
Y250700D02*
X382900Y251100D01*
X383300D01*
X382900Y251500D01*
X383300Y251900D01*
X382900D01*
X382500Y252300D01*
X382100Y251900D01*
X381700D01*
X382100Y251500D01*
X381700Y251100D01*
X382100D01*
X382500Y250700D01*
Y260700D02*
X382900Y261100D01*
X383300D01*
X382900Y261500D01*
X383300Y261900D01*
X382900D01*
X382500Y262300D01*
X382100Y261900D01*
X381700D01*
X382100Y261500D01*
X381700Y261100D01*
X382100D01*
X382500Y260700D01*
X239000Y184964D02*
X238200Y186564D01*
X239800D01*
X239000Y184964D01*
Y155436D02*
X238200Y157036D01*
X239800D01*
X239000Y155436D01*
X454200Y183200D02*
X454600Y184000D01*
X454200Y184800D01*
X455000Y184400D01*
X455800Y184800D01*
X455400Y184000D01*
X455800Y183200D01*
X455000Y183600D01*
X454200Y183200D01*
Y193200D02*
X454600Y194000D01*
X454200Y194800D01*
X455000Y194400D01*
X455800Y194800D01*
X455400Y194000D01*
X455800Y193200D01*
X455000Y193600D01*
X454200Y193200D01*
Y203200D02*
X454600Y204000D01*
X454200Y204800D01*
X455000Y204400D01*
X455800Y204800D01*
X455400Y204000D01*
X455800Y203200D01*
X455000Y203600D01*
X454200Y203200D01*
X519700Y183700D02*
X520100Y184500D01*
X519700Y185300D01*
X520500Y184900D01*
X521300Y185300D01*
X520900Y184500D01*
X521300Y183700D01*
X520500Y184100D01*
X519700Y183700D01*
Y193700D02*
X520100Y194500D01*
X519700Y195300D01*
X520500Y194900D01*
X521300Y195300D01*
X520900Y194500D01*
X521300Y193700D01*
X520500Y194100D01*
X519700Y193700D01*
Y203700D02*
X520100Y204500D01*
X519700Y205300D01*
X520500Y204900D01*
X521300Y205300D01*
X520900Y204500D01*
X521300Y203700D01*
X520500Y204100D01*
X519700Y203700D01*
X479724Y151200D02*
Y152800D01*
X481324D01*
Y151200D01*
X479724D01*
X527676D02*
Y152800D01*
X529276D01*
Y151200D01*
X527676D01*
X288700Y44200D02*
X289100Y45000D01*
X288700Y45800D01*
X289500Y45400D01*
X290300Y45800D01*
X289900Y45000D01*
X290300Y44200D01*
X289500Y44600D01*
X288700Y44200D01*
X278700D02*
X279100Y45000D01*
X278700Y45800D01*
X279500Y45400D01*
X280300Y45800D01*
X279900Y45000D01*
X280300Y44200D01*
X279500Y44600D01*
X278700Y44200D01*
X268700D02*
X269100Y45000D01*
X268700Y45800D01*
X269500Y45400D01*
X270300Y45800D01*
X269900Y45000D01*
X270300Y44200D01*
X269500Y44600D01*
X268700Y44200D01*
X517200Y76700D02*
X517600Y77500D01*
X517200Y78300D01*
X518000Y77900D01*
X518800Y78300D01*
X518400Y77500D01*
X518800Y76700D01*
X518000Y77100D01*
X517200Y76700D01*
Y86700D02*
X517600Y87500D01*
X517200Y88300D01*
X518000Y87900D01*
X518800Y88300D01*
X518400Y87500D01*
X518800Y86700D01*
X518000Y87100D01*
X517200Y86700D01*
Y96700D02*
X517600Y97500D01*
X517200Y98300D01*
X518000Y97900D01*
X518800Y98300D01*
X518400Y97500D01*
X518800Y96700D01*
X518000Y97100D01*
X517200Y96700D01*
X150236Y170700D02*
X149436Y172300D01*
X151036D01*
X150236Y170700D01*
X179764D02*
X178964Y172300D01*
X180564D01*
X179764Y170700D01*
X227200Y42700D02*
X227600Y43500D01*
X227200Y44300D01*
X228000Y43900D01*
X228800Y44300D01*
X228400Y43500D01*
X228800Y42700D01*
X228000Y43100D01*
X227200Y42700D01*
X217200D02*
X217600Y43500D01*
X217200Y44300D01*
X218000Y43900D01*
X218800Y44300D01*
X218400Y43500D01*
X218800Y42700D01*
X218000Y43100D01*
X217200Y42700D01*
X207200D02*
X207600Y43500D01*
X207200Y44300D01*
X208000Y43900D01*
X208800Y44300D01*
X208400Y43500D01*
X208800Y42700D01*
X208000Y43100D01*
X207200Y42700D01*
X54000Y87200D02*
X54400Y87600D01*
X54800D01*
X54400Y88000D01*
X54800Y88400D01*
X54400D01*
X54000Y88800D01*
X53600Y88400D01*
X53200D01*
X53600Y88000D01*
X53200Y87600D01*
X53600D01*
X54000Y87200D01*
X64000D02*
X64400Y87600D01*
X64800D01*
X64400Y88000D01*
X64800Y88400D01*
X64400D01*
X64000Y88800D01*
X63600Y88400D01*
X63200D01*
X63600Y88000D01*
X63200Y87600D01*
X63600D01*
X64000Y87200D01*
X74000D02*
X74400Y87600D01*
X74800D01*
X74400Y88000D01*
X74800Y88400D01*
X74400D01*
X74000Y88800D01*
X73600Y88400D01*
X73200D01*
X73600Y88000D01*
X73200Y87600D01*
X73600D01*
X74000Y87200D01*
X84000D02*
X84400Y87600D01*
X84800D01*
X84400Y88000D01*
X84800Y88400D01*
X84400D01*
X84000Y88800D01*
X83600Y88400D01*
X83200D01*
X83600Y88000D01*
X83200Y87600D01*
X83600D01*
X84000Y87200D01*
X94000D02*
X94400Y87600D01*
X94800D01*
X94400Y88000D01*
X94800Y88400D01*
X94400D01*
X94000Y88800D01*
X93600Y88400D01*
X93200D01*
X93600Y88000D01*
X93200Y87600D01*
X93600D01*
X94000Y87200D01*
X104000D02*
X104400Y87600D01*
X104800D01*
X104400Y88000D01*
X104800Y88400D01*
X104400D01*
X104000Y88800D01*
X103600Y88400D01*
X103200D01*
X103600Y88000D01*
X103200Y87600D01*
X103600D01*
X104000Y87200D01*
X114000D02*
X114400Y87600D01*
X114800D01*
X114400Y88000D01*
X114800Y88400D01*
X114400D01*
X114000Y88800D01*
X113600Y88400D01*
X113200D01*
X113600Y88000D01*
X113200Y87600D01*
X113600D01*
X114000Y87200D01*
X54000Y117200D02*
X54400Y117600D01*
X54800D01*
X54400Y118000D01*
X54800Y118400D01*
X54400D01*
X54000Y118800D01*
X53600Y118400D01*
X53200D01*
X53600Y118000D01*
X53200Y117600D01*
X53600D01*
X54000Y117200D01*
X64000D02*
X64400Y117600D01*
X64800D01*
X64400Y118000D01*
X64800Y118400D01*
X64400D01*
X64000Y118800D01*
X63600Y118400D01*
X63200D01*
X63600Y118000D01*
X63200Y117600D01*
X63600D01*
X64000Y117200D01*
X74000D02*
X74400Y117600D01*
X74800D01*
X74400Y118000D01*
X74800Y118400D01*
X74400D01*
X74000Y118800D01*
X73600Y118400D01*
X73200D01*
X73600Y118000D01*
X73200Y117600D01*
X73600D01*
X74000Y117200D01*
X84000D02*
X84400Y117600D01*
X84800D01*
X84400Y118000D01*
X84800Y118400D01*
X84400D01*
X84000Y118800D01*
X83600Y118400D01*
X83200D01*
X83600Y118000D01*
X83200Y117600D01*
X83600D01*
X84000Y117200D01*
X94000D02*
X94400Y117600D01*
X94800D01*
X94400Y118000D01*
X94800Y118400D01*
X94400D01*
X94000Y118800D01*
X93600Y118400D01*
X93200D01*
X93600Y118000D01*
X93200Y117600D01*
X93600D01*
X94000Y117200D01*
X104000D02*
X104400Y117600D01*
X104800D01*
X104400Y118000D01*
X104800Y118400D01*
X104400D01*
X104000Y118800D01*
X103600Y118400D01*
X103200D01*
X103600Y118000D01*
X103200Y117600D01*
X103600D01*
X104000Y117200D01*
X114000D02*
X114400Y117600D01*
X114800D01*
X114400Y118000D01*
X114800Y118400D01*
X114400D01*
X114000Y118800D01*
X113600Y118400D01*
X113200D01*
X113600Y118000D01*
X113200Y117600D01*
X113600D01*
X114000Y117200D01*
X48600Y147100D02*
Y146700D01*
X49400D01*
Y147100D01*
X49800D01*
Y147900D01*
X49400D01*
Y148300D01*
X48600D01*
Y147900D01*
X48200D01*
Y147100D01*
X48600D01*
X58600D02*
Y146700D01*
X59400D01*
Y147100D01*
X59800D01*
Y147900D01*
X59400D01*
Y148300D01*
X58600D01*
Y147900D01*
X58200D01*
Y147100D01*
X58600D01*
X68600D02*
Y146700D01*
X69400D01*
Y147100D01*
X69800D01*
Y147900D01*
X69400D01*
Y148300D01*
X68600D01*
Y147900D01*
X68200D01*
Y147100D01*
X68600D01*
X78600D02*
Y146700D01*
X79400D01*
Y147100D01*
X79800D01*
Y147900D01*
X79400D01*
Y148300D01*
X78600D01*
Y147900D01*
X78200D01*
Y147100D01*
X78600D01*
X88600D02*
Y146700D01*
X89400D01*
Y147100D01*
X89800D01*
Y147900D01*
X89400D01*
Y148300D01*
X88600D01*
Y147900D01*
X88200D01*
Y147100D01*
X88600D01*
X98600D02*
Y146700D01*
X99400D01*
Y147100D01*
X99800D01*
Y147900D01*
X99400D01*
Y148300D01*
X98600D01*
Y147900D01*
X98200D01*
Y147100D01*
X98600D01*
X108600D02*
Y146700D01*
X109400D01*
Y147100D01*
X109800D01*
Y147900D01*
X109400D01*
Y148300D01*
X108600D01*
Y147900D01*
X108200D01*
Y147100D01*
X108600D01*
X118600D02*
Y146700D01*
X119400D01*
Y147100D01*
X119800D01*
Y147900D01*
X119400D01*
Y148300D01*
X118600D01*
Y147900D01*
X118200D01*
Y147100D01*
X118600D01*
X48600Y177100D02*
Y176700D01*
X49400D01*
Y177100D01*
X49800D01*
Y177900D01*
X49400D01*
Y178300D01*
X48600D01*
Y177900D01*
X48200D01*
Y177100D01*
X48600D01*
X58600D02*
Y176700D01*
X59400D01*
Y177100D01*
X59800D01*
Y177900D01*
X59400D01*
Y178300D01*
X58600D01*
Y177900D01*
X58200D01*
Y177100D01*
X58600D01*
X68600D02*
Y176700D01*
X69400D01*
Y177100D01*
X69800D01*
Y177900D01*
X69400D01*
Y178300D01*
X68600D01*
Y177900D01*
X68200D01*
Y177100D01*
X68600D01*
X78600D02*
Y176700D01*
X79400D01*
Y177100D01*
X79800D01*
Y177900D01*
X79400D01*
Y178300D01*
X78600D01*
Y177900D01*
X78200D01*
Y177100D01*
X78600D01*
X88600D02*
Y176700D01*
X89400D01*
Y177100D01*
X89800D01*
Y177900D01*
X89400D01*
Y178300D01*
X88600D01*
Y177900D01*
X88200D01*
Y177100D01*
X88600D01*
X98600D02*
Y176700D01*
X99400D01*
Y177100D01*
X99800D01*
Y177900D01*
X99400D01*
Y178300D01*
X98600D01*
Y177900D01*
X98200D01*
Y177100D01*
X98600D01*
X108600D02*
Y176700D01*
X109400D01*
Y177100D01*
X109800D01*
Y177900D01*
X109400D01*
Y178300D01*
X108600D01*
Y177900D01*
X108200D01*
Y177100D01*
X108600D01*
X118600D02*
Y176700D01*
X119400D01*
Y177100D01*
X119800D01*
Y177900D01*
X119400D01*
Y178300D01*
X118600D01*
Y177900D01*
X118200D01*
Y177100D01*
X118600D01*
X375500Y89200D02*
X375900Y89600D01*
X376300D01*
X375900Y90000D01*
X376300Y90400D01*
X375900D01*
X375500Y90800D01*
X375100Y90400D01*
X374700D01*
X375100Y90000D01*
X374700Y89600D01*
X375100D01*
X375500Y89200D01*
Y79200D02*
X375900Y79600D01*
X376300D01*
X375900Y80000D01*
X376300Y80400D01*
X375900D01*
X375500Y80800D01*
X375100Y80400D01*
X374700D01*
X375100Y80000D01*
X374700Y79600D01*
X375100D01*
X375500Y79200D01*
Y69200D02*
X375900Y69600D01*
X376300D01*
X375900Y70000D01*
X376300Y70400D01*
X375900D01*
X375500Y70800D01*
X375100Y70400D01*
X374700D01*
X375100Y70000D01*
X374700Y69600D01*
X375100D01*
X375500Y69200D01*
Y59200D02*
X375900Y59600D01*
X376300D01*
X375900Y60000D01*
X376300Y60400D01*
X375900D01*
X375500Y60800D01*
X375100Y60400D01*
X374700D01*
X375100Y60000D01*
X374700Y59600D01*
X375100D01*
X375500Y59200D01*
X405500Y89200D02*
X405900Y89600D01*
X406300D01*
X405900Y90000D01*
X406300Y90400D01*
X405900D01*
X405500Y90800D01*
X405100Y90400D01*
X404700D01*
X405100Y90000D01*
X404700Y89600D01*
X405100D01*
X405500Y89200D01*
Y79200D02*
X405900Y79600D01*
X406300D01*
X405900Y80000D01*
X406300Y80400D01*
X405900D01*
X405500Y80800D01*
X405100Y80400D01*
X404700D01*
X405100Y80000D01*
X404700Y79600D01*
X405100D01*
X405500Y79200D01*
Y69200D02*
X405900Y69600D01*
X406300D01*
X405900Y70000D01*
X406300Y70400D01*
X405900D01*
X405500Y70800D01*
X405100Y70400D01*
X404700D01*
X405100Y70000D01*
X404700Y69600D01*
X405100D01*
X405500Y69200D01*
Y59200D02*
X405900Y59600D01*
X406300D01*
X405900Y60000D01*
X406300Y60400D01*
X405900D01*
X405500Y60800D01*
X405100Y60400D01*
X404700D01*
X405100Y60000D01*
X404700Y59600D01*
X405100D01*
X405500Y59200D01*
X182000Y117200D02*
X182400Y117600D01*
X182800D01*
X182400Y118000D01*
X182800Y118400D01*
X182400D01*
X182000Y118800D01*
X181600Y118400D01*
X181200D01*
X181600Y118000D01*
X181200Y117600D01*
X181600D01*
X182000Y117200D01*
X172000D02*
X172400Y117600D01*
X172800D01*
X172400Y118000D01*
X172800Y118400D01*
X172400D01*
X172000Y118800D01*
X171600Y118400D01*
X171200D01*
X171600Y118000D01*
X171200Y117600D01*
X171600D01*
X172000Y117200D01*
X162000D02*
X162400Y117600D01*
X162800D01*
X162400Y118000D01*
X162800Y118400D01*
X162400D01*
X162000Y118800D01*
X161600Y118400D01*
X161200D01*
X161600Y118000D01*
X161200Y117600D01*
X161600D01*
X162000Y117200D01*
X152000D02*
X152400Y117600D01*
X152800D01*
X152400Y118000D01*
X152800Y118400D01*
X152400D01*
X152000Y118800D01*
X151600Y118400D01*
X151200D01*
X151600Y118000D01*
X151200Y117600D01*
X151600D01*
X152000Y117200D01*
X182000Y87200D02*
X182400Y87600D01*
X182800D01*
X182400Y88000D01*
X182800Y88400D01*
X182400D01*
X182000Y88800D01*
X181600Y88400D01*
X181200D01*
X181600Y88000D01*
X181200Y87600D01*
X181600D01*
X182000Y87200D01*
X172000D02*
X172400Y87600D01*
X172800D01*
X172400Y88000D01*
X172800Y88400D01*
X172400D01*
X172000Y88800D01*
X171600Y88400D01*
X171200D01*
X171600Y88000D01*
X171200Y87600D01*
X171600D01*
X172000Y87200D01*
X162000D02*
X162400Y87600D01*
X162800D01*
X162400Y88000D01*
X162800Y88400D01*
X162400D01*
X162000Y88800D01*
X161600Y88400D01*
X161200D01*
X161600Y88000D01*
X161200Y87600D01*
X161600D01*
X162000Y87200D01*
X152000D02*
X152400Y87600D01*
X152800D01*
X152400Y88000D01*
X152800Y88400D01*
X152400D01*
X152000Y88800D01*
X151600Y88400D01*
X151200D01*
X151600Y88000D01*
X151200Y87600D01*
X151600D01*
X152000Y87200D01*
X238500Y111464D02*
X237700Y113064D01*
X239300D01*
X238500Y111464D01*
Y81936D02*
X237700Y83536D01*
X239300D01*
X238500Y81936D01*
X91500Y41700D02*
X90700Y43300D01*
X92300D01*
X91500Y41700D01*
X61972D02*
X61172Y43300D01*
X62772D01*
X61972Y41700D01*
X166200Y43200D02*
X166600Y44000D01*
X166200Y44800D01*
X167000Y44400D01*
X167800Y44800D01*
X167400Y44000D01*
X167800Y43200D01*
X167000Y43600D01*
X166200Y43200D01*
X156200D02*
X156600Y44000D01*
X156200Y44800D01*
X157000Y44400D01*
X157800Y44800D01*
X157400Y44000D01*
X157800Y43200D01*
X157000Y43600D01*
X156200Y43200D01*
X146200D02*
X146600Y44000D01*
X146200Y44800D01*
X147000Y44400D01*
X147800Y44800D01*
X147400Y44000D01*
X147800Y43200D01*
X147000Y43600D01*
X146200Y43200D01*
X314736Y94200D02*
X313936Y95800D01*
X315536D01*
X314736Y94200D01*
X344264D02*
X343464Y95800D01*
X345064D01*
X344264Y94200D01*
X528176Y126700D02*
Y128300D01*
X529776D01*
Y126700D01*
X528176D01*
X480224D02*
Y128300D01*
X481824D01*
Y126700D01*
X480224D01*
X435000Y143700D02*
X435400Y144100D01*
X435800D01*
X435400Y144500D01*
X435800Y144900D01*
X435400D01*
X435000Y145300D01*
X434600Y144900D01*
X434200D01*
X434600Y144500D01*
X434200Y144100D01*
X434600D01*
X435000Y143700D01*
Y133700D02*
X435400Y134100D01*
X435800D01*
X435400Y134500D01*
X435800Y134900D01*
X435400D01*
X435000Y135300D01*
X434600Y134900D01*
X434200D01*
X434600Y134500D01*
X434200Y134100D01*
X434600D01*
X435000Y133700D01*
Y123700D02*
X435400Y124100D01*
X435800D01*
X435400Y124500D01*
X435800Y124900D01*
X435400D01*
X435000Y125300D01*
X434600Y124900D01*
X434200D01*
X434600Y124500D01*
X434200Y124100D01*
X434600D01*
X435000Y123700D01*
Y113700D02*
X435400Y114100D01*
X435800D01*
X435400Y114500D01*
X435800Y114900D01*
X435400D01*
X435000Y115300D01*
X434600Y114900D01*
X434200D01*
X434600Y114500D01*
X434200Y114100D01*
X434600D01*
X435000Y113700D01*
X465000Y143700D02*
X465400Y144100D01*
X465800D01*
X465400Y144500D01*
X465800Y144900D01*
X465400D01*
X465000Y145300D01*
X464600Y144900D01*
X464200D01*
X464600Y144500D01*
X464200Y144100D01*
X464600D01*
X465000Y143700D01*
Y133700D02*
X465400Y134100D01*
X465800D01*
X465400Y134500D01*
X465800Y134900D01*
X465400D01*
X465000Y135300D01*
X464600Y134900D01*
X464200D01*
X464600Y134500D01*
X464200Y134100D01*
X464600D01*
X465000Y133700D01*
Y123700D02*
X465400Y124100D01*
X465800D01*
X465400Y124500D01*
X465800Y124900D01*
X465400D01*
X465000Y125300D01*
X464600Y124900D01*
X464200D01*
X464600Y124500D01*
X464200Y124100D01*
X464600D01*
X465000Y123700D01*
Y113700D02*
X465400Y114100D01*
X465800D01*
X465400Y114500D01*
X465800Y114900D01*
X465400D01*
X465000Y115300D01*
X464600Y114900D01*
X464200D01*
X464600Y114500D01*
X464200Y114100D01*
X464600D01*
X465000Y113700D01*
X522121Y326941D02*
X522921Y327741D01*
X523721Y326941D01*
X522921Y326141D01*
X522121Y326941D01*
Y232453D02*
X522921Y233253D01*
X523721Y232453D01*
X522921Y231653D01*
X522121Y232453D01*
Y169461D02*
X522921Y170261D01*
X523721Y169461D01*
X522921Y168661D01*
X522121Y169461D01*
Y106468D02*
X522921Y107269D01*
X523721Y106468D01*
X522921Y105668D01*
X522121Y106468D01*
Y43476D02*
X522921Y44276D01*
X523721Y43476D01*
X522921Y42676D01*
X522121Y43476D01*
Y11980D02*
X522921Y12780D01*
X523721Y11980D01*
X522921Y11180D01*
X522121Y11980D01*
X490625Y326941D02*
X491425Y327741D01*
X492225Y326941D01*
X491425Y326141D01*
X490625Y326941D01*
Y295445D02*
X491425Y296245D01*
X492225Y295445D01*
X491425Y294645D01*
X490625Y295445D01*
Y263949D02*
X491425Y264749D01*
X492225Y263949D01*
X491425Y263149D01*
X490625Y263949D01*
Y232453D02*
X491425Y233253D01*
X492225Y232453D01*
X491425Y231653D01*
X490625Y232453D01*
Y137964D02*
X491425Y138765D01*
X492225Y137964D01*
X491425Y137164D01*
X490625Y137964D01*
Y106468D02*
X491425Y107269D01*
X492225Y106468D01*
X491425Y105668D01*
X490625Y106468D01*
Y74972D02*
X491425Y75772D01*
X492225Y74972D01*
X491425Y74172D01*
X490625Y74972D01*
Y43476D02*
X491425Y44276D01*
X492225Y43476D01*
X491425Y42676D01*
X490625Y43476D01*
Y11980D02*
X491425Y12780D01*
X492225Y11980D01*
X491425Y11180D01*
X490625Y11980D01*
X459129Y326941D02*
X459929Y327741D01*
X460729Y326941D01*
X459929Y326141D01*
X459129Y326941D01*
Y200957D02*
X459929Y201757D01*
X460729Y200957D01*
X459929Y200157D01*
X459129Y200957D01*
Y74972D02*
X459929Y75772D01*
X460729Y74972D01*
X459929Y74172D01*
X459129Y74972D01*
Y43476D02*
X459929Y44276D01*
X460729Y43476D01*
X459929Y42676D01*
X459129Y43476D01*
Y11980D02*
X459929Y12780D01*
X460729Y11980D01*
X459929Y11180D01*
X459129Y11980D01*
X427633Y326941D02*
X428433Y327741D01*
X429233Y326941D01*
X428433Y326141D01*
X427633Y326941D01*
Y106468D02*
X428433Y107269D01*
X429233Y106468D01*
X428433Y105668D01*
X427633Y106468D01*
Y43476D02*
X428433Y44276D01*
X429233Y43476D01*
X428433Y42676D01*
X427633Y43476D01*
Y11980D02*
X428433Y12780D01*
X429233Y11980D01*
X428433Y11180D01*
X427633Y11980D01*
X396137Y295445D02*
X396937Y296245D01*
X397737Y295445D01*
X396937Y294645D01*
X396137Y295445D01*
Y232453D02*
X396937Y233253D01*
X397737Y232453D01*
X396937Y231653D01*
X396137Y232453D01*
Y137964D02*
X396937Y138765D01*
X397737Y137964D01*
X396937Y137164D01*
X396137Y137964D01*
Y43476D02*
X396937Y44276D01*
X397737Y43476D01*
X396937Y42676D01*
X396137Y43476D01*
Y11980D02*
X396937Y12780D01*
X397737Y11980D01*
X396937Y11180D01*
X396137Y11980D01*
X364641Y326941D02*
X365441Y327741D01*
X366241Y326941D01*
X365441Y326141D01*
X364641Y326941D01*
Y295445D02*
X365441Y296245D01*
X366241Y295445D01*
X365441Y294645D01*
X364641Y295445D01*
Y232453D02*
X365441Y233253D01*
X366241Y232453D01*
X365441Y231653D01*
X364641Y232453D01*
Y169461D02*
X365441Y170261D01*
X366241Y169461D01*
X365441Y168661D01*
X364641Y169461D01*
Y137964D02*
X365441Y138765D01*
X366241Y137964D01*
X365441Y137164D01*
X364641Y137964D01*
Y106468D02*
X365441Y107269D01*
X366241Y106468D01*
X365441Y105668D01*
X364641Y106468D01*
Y11980D02*
X365441Y12780D01*
X366241Y11980D01*
X365441Y11180D01*
X364641Y11980D01*
X333145Y326941D02*
X333945Y327741D01*
X334745Y326941D01*
X333945Y326141D01*
X333145Y326941D01*
Y263949D02*
X333945Y264749D01*
X334745Y263949D01*
X333945Y263149D01*
X333145Y263949D01*
Y232453D02*
X333945Y233253D01*
X334745Y232453D01*
X333945Y231653D01*
X333145Y232453D01*
Y137964D02*
X333945Y138765D01*
X334745Y137964D01*
X333945Y137164D01*
X333145Y137964D01*
Y106468D02*
X333945Y107269D01*
X334745Y106468D01*
X333945Y105668D01*
X333145Y106468D01*
Y11980D02*
X333945Y12780D01*
X334745Y11980D01*
X333945Y11180D01*
X333145Y11980D01*
X301649Y326941D02*
X302449Y327741D01*
X303249Y326941D01*
X302449Y326141D01*
X301649Y326941D01*
Y232453D02*
X302449Y233253D01*
X303249Y232453D01*
X302449Y231653D01*
X301649Y232453D01*
Y169461D02*
X302449Y170261D01*
X303249Y169461D01*
X302449Y168661D01*
X301649Y169461D01*
Y137964D02*
X302449Y138765D01*
X303249Y137964D01*
X302449Y137164D01*
X301649Y137964D01*
Y11980D02*
X302449Y12780D01*
X303249Y11980D01*
X302449Y11180D01*
X301649Y11980D01*
X270153Y326941D02*
X270953Y327741D01*
X271753Y326941D01*
X270953Y326141D01*
X270153Y326941D01*
Y295445D02*
X270953Y296245D01*
X271753Y295445D01*
X270953Y294645D01*
X270153Y295445D01*
Y263949D02*
X270953Y264749D01*
X271753Y263949D01*
X270953Y263149D01*
X270153Y263949D01*
Y200957D02*
X270953Y201757D01*
X271753Y200957D01*
X270953Y200157D01*
X270153Y200957D01*
Y169461D02*
X270953Y170261D01*
X271753Y169461D01*
X270953Y168661D01*
X270153Y169461D01*
Y137964D02*
X270953Y138765D01*
X271753Y137964D01*
X270953Y137164D01*
X270153Y137964D01*
Y106468D02*
X270953Y107269D01*
X271753Y106468D01*
X270953Y105668D01*
X270153Y106468D01*
Y11980D02*
X270953Y12780D01*
X271753Y11980D01*
X270953Y11180D01*
X270153Y11980D01*
X238657Y295445D02*
X239457Y296245D01*
X240257Y295445D01*
X239457Y294645D01*
X238657Y295445D01*
Y263949D02*
X239457Y264749D01*
X240257Y263949D01*
X239457Y263149D01*
X238657Y263949D01*
Y232453D02*
X239457Y233253D01*
X240257Y232453D01*
X239457Y231653D01*
X238657Y232453D01*
Y200957D02*
X239457Y201757D01*
X240257Y200957D01*
X239457Y200157D01*
X238657Y200957D01*
Y169461D02*
X239457Y170261D01*
X240257Y169461D01*
X239457Y168661D01*
X238657Y169461D01*
Y137964D02*
X239457Y138765D01*
X240257Y137964D01*
X239457Y137164D01*
X238657Y137964D01*
Y11980D02*
X239457Y12780D01*
X240257Y11980D01*
X239457Y11180D01*
X238657Y11980D01*
X207161Y263949D02*
X207961Y264749D01*
X208761Y263949D01*
X207961Y263149D01*
X207161Y263949D01*
Y232453D02*
X207961Y233253D01*
X208761Y232453D01*
X207961Y231653D01*
X207161Y232453D01*
Y200957D02*
X207961Y201757D01*
X208761Y200957D01*
X207961Y200157D01*
X207161Y200957D01*
Y169461D02*
X207961Y170261D01*
X208761Y169461D01*
X207961Y168661D01*
X207161Y169461D01*
Y137964D02*
X207961Y138765D01*
X208761Y137964D01*
X207961Y137164D01*
X207161Y137964D01*
Y11980D02*
X207961Y12780D01*
X208761Y11980D01*
X207961Y11180D01*
X207161Y11980D01*
X175664Y263949D02*
X176464Y264749D01*
X177264Y263949D01*
X176464Y263149D01*
X175664Y263949D01*
Y137964D02*
X176464Y138765D01*
X177264Y137964D01*
X176464Y137164D01*
X175664Y137964D01*
Y11980D02*
X176464Y12780D01*
X177264Y11980D01*
X176464Y11180D01*
X175664Y11980D01*
X144168Y263949D02*
X144968Y264749D01*
X145768Y263949D01*
X144968Y263149D01*
X144168Y263949D01*
Y137964D02*
X144968Y138765D01*
X145768Y137964D01*
X144968Y137164D01*
X144168Y137964D01*
Y11980D02*
X144968Y12780D01*
X145768Y11980D01*
X144968Y11180D01*
X144168Y11980D01*
X112672Y169461D02*
X113472Y170261D01*
X114272Y169461D01*
X113472Y168661D01*
X112672Y169461D01*
Y74972D02*
X113472Y75772D01*
X114272Y74972D01*
X113472Y74172D01*
X112672Y74972D01*
Y11980D02*
X113472Y12780D01*
X114272Y11980D01*
X113472Y11180D01*
X112672Y11980D01*
X81176Y295445D02*
X81976Y296245D01*
X82776Y295445D01*
X81976Y294645D01*
X81176Y295445D01*
Y263949D02*
X81976Y264749D01*
X82776Y263949D01*
X81976Y263149D01*
X81176Y263949D01*
Y232453D02*
X81976Y233253D01*
X82776Y232453D01*
X81976Y231653D01*
X81176Y232453D01*
Y11980D02*
X81976Y12780D01*
X82776Y11980D01*
X81976Y11180D01*
X81176Y11980D01*
X49680D02*
X50480Y12780D01*
X51280Y11980D01*
X50480Y11180D01*
X49680Y11980D01*
X18184Y326941D02*
X18984Y327741D01*
X19784Y326941D01*
X18984Y326141D01*
X18184Y326941D01*
Y232453D02*
X18984Y233253D01*
X19784Y232453D01*
X18984Y231653D01*
X18184Y232453D01*
Y137964D02*
X18984Y138765D01*
X19784Y137964D01*
X18984Y137164D01*
X18184Y137964D01*
Y106468D02*
X18984Y107269D01*
X19784Y106468D01*
X18984Y105668D01*
X18184Y106468D01*
Y74972D02*
X18984Y75772D01*
X19784Y74972D01*
X18984Y74172D01*
X18184Y74972D01*
Y43476D02*
X18984Y44276D01*
X19784Y43476D01*
X18984Y42676D01*
X18184Y43476D01*
Y11980D02*
X18984Y12780D01*
X19784Y11980D01*
X18984Y11180D01*
X18184Y11980D01*
X385800Y275200D02*
X386200D01*
X386600Y275600D01*
X387000Y275200D01*
X387400D01*
Y275600D01*
X387000Y276000D01*
X387400Y276400D01*
Y276800D01*
X387000D01*
X386600Y276400D01*
X386200Y276800D01*
X385800D01*
Y276400D01*
X386200Y276000D01*
X385800Y275600D01*
Y275200D01*
X187000Y257200D02*
X187400D01*
X187800Y257600D01*
X188200Y257200D01*
X188600D01*
Y257600D01*
X188200Y258000D01*
X188600Y258400D01*
Y258800D01*
X188200D01*
X187800Y258400D01*
X187400Y258800D01*
X187000D01*
Y258400D01*
X187400Y258000D01*
X187000Y257600D01*
Y257200D01*
D50*
X28300Y156000D02*
X27747Y156761D01*
X26853Y156470D01*
Y155530D01*
X27747Y155239D01*
X28300Y156000D01*
Y177500D02*
X27747Y178261D01*
X26853Y177970D01*
Y177030D01*
X27747Y176739D01*
X28300Y177500D01*
X27800Y235000D02*
X27247Y235761D01*
X26353Y235470D01*
Y234530D01*
X27247Y234239D01*
X27800Y235000D01*
Y211500D02*
X27247Y212261D01*
X26353Y211970D01*
Y211030D01*
X27247Y210739D01*
X27800Y211500D01*
X28300Y261000D02*
X27747Y261761D01*
X26853Y261470D01*
Y260530D01*
X27747Y260239D01*
X28300Y261000D01*
X29300Y282500D02*
X28747Y283261D01*
X27853Y282970D01*
Y282030D01*
X28747Y281739D01*
X29300Y282500D01*
Y302500D02*
X28747Y303261D01*
X27853Y302970D01*
Y302030D01*
X28747Y301739D01*
X29300Y302500D01*
X29800Y324000D02*
X29247Y324761D01*
X28353Y324470D01*
Y323530D01*
X29247Y323239D01*
X29800Y324000D01*
M02*
