G04*
G04 #@! TF.GenerationSoftware,Altium Limited,Altium Designer,22.7.1 (60)*
G04*
G04 Layer_Physical_Order=2*
G04 Layer_Color=16711680*
%FSLAX25Y25*%
%MOIN*%
G70*
G04*
G04 #@! TF.SameCoordinates,62B07443-8612-450D-B8CB-4F7C4A51FEE5*
G04*
G04*
G04 #@! TF.FilePolarity,Positive*
G04*
G01*
G75*
%ADD17R,0.06102X0.06102*%
%ADD18C,0.06102*%
%ADD19C,0.06181*%
%ADD20R,0.04724X0.04724*%
%ADD21C,0.04724*%
%ADD22R,0.06102X0.06102*%
%ADD33C,0.05906*%
%ADD34C,0.01500*%
%ADD35C,0.06000*%
%ADD36R,0.05906X0.05906*%
%ADD37C,0.05906*%
%ADD38R,0.04795X0.04795*%
%ADD39C,0.04795*%
%ADD40R,0.04795X0.04795*%
%ADD41R,0.05906X0.05906*%
%ADD42C,0.05512*%
%ADD43R,0.05512X0.05512*%
%ADD44C,0.05000*%
%ADD45C,0.03937*%
G36*
X550197Y1303D02*
X1303D01*
Y351697D01*
X550197D01*
Y1303D01*
D02*
G37*
%LPC*%
G36*
X540500Y346300D02*
X539500D01*
X538533Y346041D01*
X537667Y345541D01*
X536959Y344833D01*
X536459Y343967D01*
X536200Y343000D01*
Y342000D01*
X536459Y341033D01*
X536959Y340167D01*
X537667Y339459D01*
X538533Y338959D01*
X539500Y338700D01*
X540500D01*
X541467Y338959D01*
X542333Y339459D01*
X543041Y340167D01*
X543541Y341033D01*
X543800Y342000D01*
Y343000D01*
X543541Y343967D01*
X543041Y344833D01*
X542333Y345541D01*
X541467Y346041D01*
X540500Y346300D01*
D02*
G37*
G36*
X12500D02*
X11500D01*
X10533Y346041D01*
X9667Y345541D01*
X8959Y344833D01*
X8459Y343967D01*
X8200Y343000D01*
Y342000D01*
X8459Y341033D01*
X8959Y340167D01*
X9667Y339459D01*
X10533Y338959D01*
X11500Y338700D01*
X12500D01*
X13467Y338959D01*
X14333Y339459D01*
X15041Y340167D01*
X15541Y341033D01*
X15800Y342000D01*
Y343000D01*
X15541Y343967D01*
X15041Y344833D01*
X14333Y345541D01*
X13467Y346041D01*
X12500Y346300D01*
D02*
G37*
G36*
X29512Y327890D02*
X28488D01*
X27498Y327625D01*
X26611Y327113D01*
X25887Y326389D01*
X25375Y325502D01*
X25109Y324512D01*
Y323488D01*
X25375Y322498D01*
X25887Y321611D01*
X26611Y320887D01*
X27498Y320375D01*
X28488Y320110D01*
X29512D01*
X30502Y320375D01*
X31389Y320887D01*
X31651Y321149D01*
X34029Y322420D01*
X38500D01*
X39105Y322540D01*
X39617Y322883D01*
X39655Y322920D01*
X44720D01*
X46404Y322147D01*
X46582Y321970D01*
X47303Y321553D01*
X48107Y321338D01*
X48940D01*
X49744Y321553D01*
X50465Y321970D01*
X51054Y322558D01*
X51470Y323279D01*
X51686Y324084D01*
Y324916D01*
X51470Y325721D01*
X51054Y326442D01*
X50465Y327030D01*
X49744Y327447D01*
X48940Y327662D01*
X48107D01*
X47303Y327447D01*
X46582Y327030D01*
X46404Y326852D01*
X44720Y326080D01*
X39000D01*
X38395Y325960D01*
X37883Y325618D01*
X37845Y325580D01*
X34029D01*
X31651Y326851D01*
X31389Y327113D01*
X30502Y327625D01*
X29512Y327890D01*
D02*
G37*
G36*
X413000Y322324D02*
Y319500D01*
X415824D01*
X415683Y320026D01*
X415163Y320927D01*
X414427Y321663D01*
X413526Y322183D01*
X413000Y322324D01*
D02*
G37*
G36*
X411000D02*
X410474Y322183D01*
X409573Y321663D01*
X408837Y320927D01*
X408317Y320026D01*
X408176Y319500D01*
X411000D01*
Y322324D01*
D02*
G37*
G36*
X281500Y321824D02*
Y319000D01*
X284324D01*
X284183Y319526D01*
X283663Y320427D01*
X282927Y321163D01*
X282026Y321683D01*
X281500Y321824D01*
D02*
G37*
G36*
X279500D02*
X278974Y321683D01*
X278073Y321163D01*
X277337Y320427D01*
X276817Y319526D01*
X276676Y319000D01*
X279500D01*
Y321824D01*
D02*
G37*
G36*
X415824Y317500D02*
X413000D01*
Y314676D01*
X413526Y314817D01*
X414427Y315337D01*
X415163Y316073D01*
X415683Y316974D01*
X415824Y317500D01*
D02*
G37*
G36*
X411000D02*
X408176D01*
X408317Y316974D01*
X408837Y316073D01*
X409573Y315337D01*
X410474Y314817D01*
X411000Y314676D01*
Y317500D01*
D02*
G37*
G36*
X250994Y321753D02*
X250006D01*
X249051Y321497D01*
X248196Y321003D01*
X247497Y320304D01*
X247003Y319448D01*
X246747Y318494D01*
Y317506D01*
X247003Y316551D01*
X247497Y315696D01*
X248196Y314997D01*
X249051Y314503D01*
X250006Y314247D01*
X250994D01*
X251948Y314503D01*
X252804Y314997D01*
X253503Y315696D01*
X253997Y316551D01*
X254253Y317506D01*
Y318494D01*
X253997Y319448D01*
X253503Y320304D01*
X252804Y321003D01*
X251948Y321497D01*
X250994Y321753D01*
D02*
G37*
G36*
X211097Y330583D02*
X65762D01*
X65157Y330463D01*
X64645Y330120D01*
X23602Y289077D01*
X23140Y289269D01*
Y294905D01*
X26061Y297826D01*
X28641Y298609D01*
X29012D01*
X30002Y298875D01*
X30889Y299387D01*
X31613Y300111D01*
X32125Y300998D01*
X32391Y301988D01*
Y303012D01*
X32125Y304002D01*
X31613Y304889D01*
X30889Y305613D01*
X30002Y306125D01*
X29012Y306391D01*
X27988D01*
X26998Y306125D01*
X26111Y305613D01*
X25387Y304889D01*
X24875Y304002D01*
X24610Y303012D01*
Y302641D01*
X23826Y300061D01*
X20442Y296677D01*
X20099Y296164D01*
X19979Y295559D01*
Y240519D01*
X20099Y239914D01*
X20442Y239402D01*
X21321Y238523D01*
X21833Y238180D01*
X22438Y238060D01*
X23622D01*
X23813Y237598D01*
X23727Y237512D01*
X23188Y236579D01*
X23033Y236000D01*
X27000D01*
Y234000D01*
X23033D01*
X23188Y233421D01*
X23727Y232488D01*
X24488Y231727D01*
X25421Y231188D01*
X25548Y231154D01*
X48578Y208124D01*
X48387Y207662D01*
X44361D01*
Y201338D01*
X50686D01*
Y205363D01*
X51148Y205555D01*
X75215Y181487D01*
Y177500D01*
X75244Y177278D01*
Y177006D01*
X75315Y176742D01*
X75344Y176520D01*
X75429Y176313D01*
X75500Y176050D01*
X75636Y175814D01*
X75722Y175607D01*
X75858Y175430D01*
X75994Y175194D01*
X76111Y175078D01*
X76054Y174817D01*
X75882Y174578D01*
X71813D01*
X71606Y175078D01*
X71845Y175317D01*
X72314Y176128D01*
X72556Y177032D01*
Y177968D01*
X72314Y178873D01*
X71845Y179683D01*
X71183Y180345D01*
X70372Y180814D01*
X69468Y181056D01*
X68532D01*
X67628Y180814D01*
X66817Y180345D01*
X66155Y179683D01*
X65686Y178873D01*
X65444Y177968D01*
Y177032D01*
X65686Y176128D01*
X66155Y175317D01*
X66394Y175078D01*
X66186Y174578D01*
X61813D01*
X61606Y175078D01*
X61845Y175317D01*
X62314Y176128D01*
X62556Y177032D01*
Y177968D01*
X62314Y178873D01*
X61845Y179683D01*
X61183Y180345D01*
X60373Y180814D01*
X59468Y181056D01*
X58532D01*
X57627Y180814D01*
X56817Y180345D01*
X56155Y179683D01*
X55686Y178873D01*
X55444Y177968D01*
Y177032D01*
X55686Y176128D01*
X56155Y175317D01*
X56394Y175078D01*
X56186Y174578D01*
X51814D01*
X51606Y175078D01*
X51845Y175317D01*
X52314Y176128D01*
X52556Y177032D01*
Y177968D01*
X52314Y178873D01*
X51845Y179683D01*
X51183Y180345D01*
X50372Y180814D01*
X49468Y181056D01*
X48532D01*
X47627Y180814D01*
X46817Y180345D01*
X46155Y179683D01*
X45686Y178873D01*
X45444Y177968D01*
Y177032D01*
X45686Y176128D01*
X46155Y175317D01*
X46394Y175078D01*
X46187Y174578D01*
X32657D01*
X32174Y175061D01*
X31391Y177641D01*
Y178012D01*
X31125Y179002D01*
X30613Y179889D01*
X29889Y180613D01*
X29002Y181125D01*
X28012Y181391D01*
X26988D01*
X25998Y181125D01*
X25111Y180613D01*
X24387Y179889D01*
X23875Y179002D01*
X23609Y178012D01*
Y176988D01*
X23875Y175998D01*
X24387Y175111D01*
X25111Y174387D01*
X25998Y173875D01*
X26988Y173609D01*
X27359D01*
X29939Y172826D01*
X30885Y171880D01*
X31398Y171537D01*
X32003Y171417D01*
X94497D01*
X95102Y171537D01*
X95615Y171880D01*
X96956Y173222D01*
X99151Y173944D01*
X99468D01*
X100373Y174186D01*
X101183Y174655D01*
X101845Y175317D01*
X102314Y176128D01*
X102556Y177032D01*
Y177968D01*
X102314Y178873D01*
X101845Y179683D01*
X101183Y180345D01*
X100373Y180814D01*
X99468Y181056D01*
X98532D01*
X97628Y180814D01*
X96817Y180345D01*
X96155Y179683D01*
X95686Y178873D01*
X95444Y177968D01*
Y177650D01*
X94722Y175456D01*
X93843Y174578D01*
X92043D01*
X91851Y175040D01*
X92005Y175194D01*
X92500Y176050D01*
X92620Y176500D01*
X89000D01*
X85380D01*
X85500Y176050D01*
X85994Y175194D01*
X86149Y175040D01*
X85957Y174578D01*
X82118D01*
X81946Y174817D01*
X81889Y175078D01*
X82006Y175194D01*
X82142Y175430D01*
X82278Y175607D01*
X82364Y175814D01*
X82500Y176050D01*
X82570Y176313D01*
X82656Y176520D01*
X82685Y176742D01*
X82756Y177006D01*
Y177278D01*
X82785Y177500D01*
Y183055D01*
X82656Y184035D01*
X82278Y184948D01*
X81677Y185732D01*
X68863Y198546D01*
X69054Y199007D01*
X175588D01*
X176193Y199128D01*
X176705Y199470D01*
X195385Y218150D01*
X197163Y218802D01*
X197421D01*
X198234Y219020D01*
X198963Y219441D01*
X199559Y220037D01*
X199980Y220766D01*
X200198Y221579D01*
Y222421D01*
X199980Y223234D01*
X199559Y223963D01*
X198963Y224559D01*
X198234Y224980D01*
X197421Y225198D01*
X196579D01*
X195766Y224980D01*
X195037Y224559D01*
X194441Y223963D01*
X194020Y223234D01*
X193802Y222421D01*
Y222163D01*
X193150Y220385D01*
X174933Y202168D01*
X98813D01*
X98706Y202657D01*
X99280Y202920D01*
X112976D01*
X113581Y203040D01*
X114094Y203382D01*
X156904Y246193D01*
X158641Y246838D01*
X158893D01*
X159697Y247053D01*
X160418Y247470D01*
X160596Y247648D01*
X162280Y248420D01*
X179800D01*
X180405Y248540D01*
X180918Y248883D01*
X186712Y254677D01*
X187986Y255231D01*
X188164D01*
X188869Y255420D01*
X189500Y255785D01*
X190015Y256300D01*
X190380Y256931D01*
X190568Y257635D01*
Y258365D01*
X190380Y259069D01*
X190015Y259700D01*
X189500Y260215D01*
X188869Y260580D01*
X188164Y260769D01*
X187435D01*
X186731Y260580D01*
X186100Y260215D01*
X185585Y259700D01*
X185220Y259069D01*
X185031Y258365D01*
Y258186D01*
X184477Y256912D01*
X179145Y251580D01*
X162280D01*
X160596Y252352D01*
X160418Y252530D01*
X159697Y252947D01*
X158893Y253162D01*
X158060D01*
X157256Y252947D01*
X156535Y252530D01*
X155946Y251942D01*
X155530Y251221D01*
X155314Y250416D01*
Y250165D01*
X154669Y248428D01*
X112322Y206080D01*
X99280D01*
X97596Y206853D01*
X97418Y207030D01*
X96697Y207447D01*
X95893Y207662D01*
X95060D01*
X94256Y207447D01*
X93535Y207030D01*
X92946Y206442D01*
X92530Y205721D01*
X92314Y204916D01*
Y204084D01*
X92530Y203279D01*
X92883Y202668D01*
X92696Y202168D01*
X68629D01*
X30040Y240758D01*
X29527Y241101D01*
X28922Y241221D01*
X23140D01*
Y260309D01*
X23640Y260375D01*
X23875Y259498D01*
X24387Y258611D01*
X25111Y257887D01*
X25998Y257375D01*
X26988Y257109D01*
X27359D01*
X29939Y256326D01*
X33382Y252883D01*
X33895Y252540D01*
X34500Y252420D01*
X43512D01*
X44361Y251998D01*
Y250838D01*
X49920D01*
Y234107D01*
X49119Y233307D01*
X47382Y232662D01*
X47131D01*
X46327Y232447D01*
X45606Y232030D01*
X45017Y231442D01*
X44600Y230721D01*
X44385Y229916D01*
Y229084D01*
X44600Y228279D01*
X45017Y227558D01*
X45606Y226970D01*
X46327Y226553D01*
X47131Y226338D01*
X47382D01*
X49119Y225693D01*
X55430Y219383D01*
X55942Y219040D01*
X56547Y218920D01*
X106988D01*
X107838Y218498D01*
Y217338D01*
X114162D01*
Y223662D01*
X107838D01*
Y222502D01*
X106988Y222080D01*
X57202D01*
X51354Y227928D01*
X50771Y229500D01*
X51354Y231072D01*
X52618Y232335D01*
X52960Y232848D01*
X53080Y233453D01*
Y271200D01*
X52960Y271805D01*
X52618Y272318D01*
X47935Y277000D01*
X48193Y277449D01*
X48607Y277338D01*
X49440D01*
X50244Y277553D01*
X50965Y277970D01*
X51554Y278558D01*
X51970Y279279D01*
X52186Y280084D01*
Y280916D01*
X51970Y281721D01*
X51617Y282332D01*
X51804Y282832D01*
X93814D01*
Y277338D01*
X100139D01*
Y281366D01*
X100601Y281557D01*
X100778Y281380D01*
X101291Y281037D01*
X101896Y280917D01*
X121649D01*
X121841Y280455D01*
X109406Y268021D01*
X109063Y267508D01*
X108943Y266903D01*
Y254012D01*
X108522Y253162D01*
X107361D01*
Y246838D01*
X113686D01*
Y253162D01*
X112525D01*
X112104Y254012D01*
Y266248D01*
X135778Y289922D01*
X139243D01*
X147785Y281380D01*
X148298Y281037D01*
X148903Y280917D01*
X153497D01*
X154102Y281037D01*
X154615Y281380D01*
X156718Y283483D01*
X157060Y283995D01*
X157180Y284600D01*
Y292400D01*
X157060Y293005D01*
X156718Y293517D01*
X155511Y294724D01*
X154753Y297145D01*
Y297494D01*
X154497Y298448D01*
X154003Y299304D01*
X153304Y300003D01*
X152448Y300497D01*
X151494Y300753D01*
X150506D01*
X149551Y300497D01*
X148696Y300003D01*
X147997Y299304D01*
X147503Y298448D01*
X147247Y297494D01*
Y296506D01*
X147503Y295551D01*
X147997Y294696D01*
X148696Y293997D01*
X149551Y293503D01*
X150506Y293247D01*
X150855D01*
X153277Y292489D01*
X154020Y291745D01*
Y289995D01*
X153520Y289788D01*
X153304Y290003D01*
X152448Y290497D01*
X151494Y290753D01*
X151145D01*
X148723Y291512D01*
X137615Y302620D01*
X137102Y302963D01*
X136497Y303083D01*
X122721D01*
X122587Y303583D01*
X123304Y303997D01*
X124003Y304696D01*
X124497Y305552D01*
X124753Y306506D01*
Y307494D01*
X124497Y308449D01*
X124003Y309304D01*
X123304Y310003D01*
X122449Y310497D01*
X121494Y310753D01*
X120506D01*
X119552Y310497D01*
X118696Y310003D01*
X117997Y309304D01*
X117503Y308449D01*
X117247Y307494D01*
Y306506D01*
X117503Y305552D01*
X117997Y304696D01*
X118696Y303997D01*
X119413Y303583D01*
X119279Y303083D01*
X119135D01*
X118530Y302963D01*
X118017Y302620D01*
X115380Y299983D01*
X115037Y299470D01*
X114917Y298865D01*
Y295135D01*
X115037Y294530D01*
X115380Y294017D01*
X118112Y291285D01*
X117905Y290785D01*
X114044D01*
X103908Y300921D01*
X100339Y304939D01*
Y305862D01*
X98666D01*
X97956Y306156D01*
X96976Y306285D01*
X95997Y306156D01*
X95287Y305862D01*
X93614D01*
Y304189D01*
X93320Y303480D01*
X93191Y302500D01*
X93320Y301520D01*
X93614Y300811D01*
Y299138D01*
X94537D01*
X98555Y295568D01*
X109546Y284578D01*
X109339Y284078D01*
X102550D01*
X101098Y285530D01*
X100585Y285872D01*
X99981Y285993D01*
X47403D01*
X46798Y285872D01*
X46286Y285530D01*
X44836Y284080D01*
X33529D01*
X31151Y285351D01*
X30889Y285613D01*
X30002Y286125D01*
X29012Y286390D01*
X27988D01*
X26998Y286125D01*
X26111Y285613D01*
X25902Y285404D01*
X25440Y285595D01*
Y286445D01*
X66417Y327422D01*
X93314D01*
Y326543D01*
X93198Y326393D01*
X92820Y325480D01*
X92691Y324500D01*
X92820Y323520D01*
X93198Y322607D01*
X93314Y322457D01*
Y321338D01*
X94309D01*
X94618Y321029D01*
X95402Y320427D01*
X96315Y320049D01*
X97294Y319920D01*
X117247D01*
Y313247D01*
X124753D01*
Y318454D01*
X125215Y318645D01*
X129536Y314323D01*
X130320Y313722D01*
X131233Y313344D01*
X132213Y313215D01*
X172064D01*
X173192Y312087D01*
X173976Y311486D01*
X174888Y311108D01*
X175868Y310979D01*
X190691D01*
X194649Y310921D01*
Y310913D01*
X195204D01*
X195449Y310909D01*
X195455Y310910D01*
X195461Y310909D01*
X195479Y310913D01*
X202351D01*
Y318615D01*
X195479D01*
X195461Y318619D01*
X195455Y318618D01*
X195449Y318619D01*
X195204Y318615D01*
X194649D01*
Y318607D01*
X190691Y318549D01*
X177436D01*
X176308Y319676D01*
X175524Y320278D01*
X174612Y320656D01*
X173632Y320785D01*
X133781D01*
X128184Y326382D01*
X127480Y326922D01*
X127521Y327232D01*
X127614Y327422D01*
X210443D01*
X235485Y302380D01*
X235998Y302037D01*
X236603Y301917D01*
X247862D01*
X248069Y301417D01*
X247824Y301171D01*
X247222Y300387D01*
X246844Y299474D01*
X246715Y298495D01*
Y298000D01*
X246747Y297754D01*
Y297506D01*
X246812Y297266D01*
X246844Y297020D01*
X246939Y296791D01*
X247003Y296551D01*
X247127Y296337D01*
X247222Y296107D01*
X247373Y295911D01*
X247497Y295696D01*
X247673Y295520D01*
X247824Y295323D01*
X248020Y295173D01*
X248196Y294997D01*
X248411Y294873D01*
X248607Y294722D01*
X248837Y294627D01*
X249051Y294503D01*
X249291Y294439D01*
X249520Y294344D01*
X249766Y294311D01*
X250006Y294247D01*
X250254D01*
X250500Y294215D01*
X250746Y294247D01*
X250994D01*
X251234Y294311D01*
X251480Y294344D01*
X251709Y294439D01*
X251948Y294503D01*
X252163Y294627D01*
X252393Y294722D01*
X252589Y294873D01*
X252804Y294997D01*
X252980Y295173D01*
X253028Y295209D01*
X256725D01*
X273316Y278618D01*
X274100Y278016D01*
X275013Y277638D01*
X275993Y277509D01*
X290581D01*
X291560Y277638D01*
X292473Y278016D01*
X293257Y278618D01*
X306854Y292215D01*
X312163D01*
X316121Y292157D01*
Y292149D01*
X316129D01*
X316187Y288191D01*
Y270154D01*
X286277Y240244D01*
X285815Y240435D01*
Y240533D01*
X285539Y241564D01*
X285005Y242488D01*
X284251Y243242D01*
X283328Y243775D01*
X282764Y243926D01*
Y240000D01*
X281764D01*
Y239000D01*
X277838D01*
X277989Y238436D01*
X278522Y237512D01*
X278591Y237443D01*
X278400Y236981D01*
X260608D01*
X260029Y237560D01*
X256087Y243298D01*
Y243851D01*
X255294D01*
X255275Y243855D01*
X255257Y243851D01*
X248385D01*
Y236979D01*
X248381Y236961D01*
X248385Y236942D01*
Y236149D01*
X248938D01*
X254676Y232207D01*
X256364Y230520D01*
X257148Y229918D01*
X258061Y229540D01*
X259040Y229411D01*
X284582D01*
X285562Y229540D01*
X286475Y229918D01*
X287259Y230520D01*
X322649Y265910D01*
X323250Y266694D01*
X323629Y267607D01*
X323758Y268586D01*
Y288191D01*
X323815Y292149D01*
X323824D01*
Y292222D01*
X328789Y292715D01*
X337810D01*
X344701Y285823D01*
X345485Y285222D01*
X346398Y284844D01*
X347378Y284715D01*
X382000D01*
X382246Y284747D01*
X382494D01*
X382734Y284811D01*
X382980Y284844D01*
X383209Y284939D01*
X383449Y285003D01*
X383663Y285127D01*
X383893Y285222D01*
X384089Y285373D01*
X384304Y285497D01*
X384480Y285672D01*
X384677Y285823D01*
X384827Y286020D01*
X385003Y286196D01*
X385127Y286411D01*
X385278Y286607D01*
X385373Y286837D01*
X385497Y287052D01*
X385561Y287291D01*
X385656Y287520D01*
X385688Y287766D01*
X385753Y288006D01*
Y288254D01*
X385785Y288500D01*
X385753Y288746D01*
Y288994D01*
X385688Y289234D01*
X385656Y289480D01*
X385561Y289709D01*
X385497Y289949D01*
X385373Y290163D01*
X385278Y290393D01*
X385127Y290589D01*
X385003Y290804D01*
X384827Y290980D01*
X384677Y291177D01*
X384480Y291328D01*
X384304Y291503D01*
X384089Y291627D01*
X383893Y291778D01*
X383663Y291873D01*
X383449Y291997D01*
X383209Y292061D01*
X382980Y292156D01*
X382734Y292189D01*
X382494Y292253D01*
X382246D01*
X382000Y292285D01*
X352114D01*
X352028Y292607D01*
X352014Y292785D01*
X352742Y293513D01*
X353275Y294436D01*
X353426Y295000D01*
X349500D01*
Y296000D01*
X348500D01*
Y299926D01*
X347936Y299775D01*
X347012Y299242D01*
X346258Y298487D01*
X345725Y297564D01*
X345449Y296533D01*
Y296435D01*
X344987Y296244D01*
X342054Y299177D01*
X341270Y299778D01*
X340357Y300156D01*
X339378Y300285D01*
X321500D01*
X320520Y300156D01*
X319784Y299851D01*
X316952D01*
X316933Y299855D01*
X316927Y299854D01*
X316921Y299855D01*
X316677Y299851D01*
X316121D01*
Y299843D01*
X312163Y299785D01*
X305286D01*
X304307Y299656D01*
X303394Y299278D01*
X302610Y298676D01*
X289013Y285080D01*
X284253D01*
Y291753D01*
X276747D01*
Y286546D01*
X276285Y286355D01*
X261223Y301417D01*
X261431Y301917D01*
X274348D01*
X275989Y300276D01*
X276747Y297855D01*
Y297506D01*
X277003Y296551D01*
X277497Y295696D01*
X278196Y294997D01*
X279051Y294503D01*
X280006Y294247D01*
X280994D01*
X281948Y294503D01*
X282804Y294997D01*
X283503Y295696D01*
X283997Y296551D01*
X284253Y297506D01*
Y298494D01*
X283997Y299448D01*
X283503Y300304D01*
X282804Y301003D01*
X281948Y301497D01*
X280994Y301753D01*
X280645D01*
X278223Y302512D01*
X276120Y304615D01*
X275607Y304957D01*
X275003Y305078D01*
X253538D01*
X253347Y305540D01*
X253503Y305696D01*
X253997Y306552D01*
X254253Y307506D01*
Y307855D01*
X255012Y310277D01*
X256155Y311420D01*
X277995D01*
X278112Y310920D01*
X277497Y310304D01*
X277003Y309449D01*
X276747Y308494D01*
Y307506D01*
X277003Y306552D01*
X277497Y305696D01*
X278196Y304997D01*
X279051Y304503D01*
X280006Y304247D01*
X280994D01*
X281948Y304503D01*
X282804Y304997D01*
X283503Y305696D01*
X283997Y306552D01*
X284253Y307506D01*
Y308494D01*
X283997Y309449D01*
X283503Y310304D01*
X282888Y310920D01*
X283005Y311420D01*
X320745D01*
X329382Y302783D01*
X329895Y302440D01*
X330500Y302320D01*
X380110D01*
X380244Y301820D01*
X379696Y301503D01*
X378997Y300804D01*
X378503Y299949D01*
X378247Y298994D01*
Y298006D01*
X378503Y297052D01*
X378997Y296196D01*
X379696Y295497D01*
X380552Y295003D01*
X381506Y294747D01*
X381855D01*
X384277Y293988D01*
X402882Y275382D01*
X403395Y275040D01*
X404000Y274920D01*
X500845D01*
X514406Y261359D01*
X515302Y259586D01*
Y256302D01*
X521698D01*
Y262698D01*
X518414D01*
X516641Y263594D01*
X502618Y277618D01*
X502105Y277960D01*
X501500Y278080D01*
X404655D01*
X386511Y296223D01*
X385753Y298645D01*
Y298994D01*
X385497Y299949D01*
X385003Y300804D01*
X384304Y301503D01*
X383756Y301820D01*
X383890Y302320D01*
X410110D01*
X410244Y301820D01*
X409696Y301503D01*
X408997Y300804D01*
X408503Y299949D01*
X408247Y298994D01*
Y298006D01*
X408503Y297052D01*
X408997Y296196D01*
X409696Y295497D01*
X410552Y295003D01*
X411506Y294747D01*
X411855D01*
X414277Y293988D01*
X415299Y292966D01*
X415516Y292551D01*
Y292551D01*
X415516D01*
X415425Y292253D01*
X415324Y292253D01*
X415324Y292253D01*
X415324Y292253D01*
X408247D01*
Y284747D01*
X415753D01*
Y286498D01*
X416602Y286920D01*
X477500D01*
X478105Y287040D01*
X478617Y287383D01*
X480385Y289150D01*
X482163Y289802D01*
X482421D01*
X483234Y290020D01*
X483963Y290441D01*
X484559Y291037D01*
X484980Y291766D01*
X485198Y292579D01*
Y292837D01*
X485850Y294615D01*
X502655Y311420D01*
X513953D01*
X514802Y310998D01*
Y309802D01*
X521198D01*
Y316198D01*
X514802D01*
Y315002D01*
X513953Y314580D01*
X502000D01*
X501395Y314460D01*
X500882Y314118D01*
X483615Y296850D01*
X481837Y296198D01*
X481579D01*
X480766Y295980D01*
X480037Y295559D01*
X479441Y294963D01*
X479020Y294234D01*
X478802Y293421D01*
Y293163D01*
X478150Y291385D01*
X476845Y290080D01*
X416602D01*
X415753Y290502D01*
X415753Y292080D01*
X415958Y292288D01*
X415958D01*
X416426Y292434D01*
X416500Y292420D01*
X442636D01*
X444354Y291623D01*
X444537Y291441D01*
X445266Y291020D01*
X446079Y290802D01*
X446921D01*
X447734Y291020D01*
X448463Y291441D01*
X449059Y292037D01*
X449480Y292766D01*
X449698Y293579D01*
Y293837D01*
X450350Y295615D01*
X454155Y299420D01*
X470000D01*
X470605Y299540D01*
X471117Y299883D01*
X480139Y308904D01*
X481936Y309802D01*
X485198D01*
Y316198D01*
X478802D01*
Y312936D01*
X477904Y311139D01*
X469345Y302580D01*
X453500D01*
X452895Y302460D01*
X452383Y302117D01*
X448115Y297850D01*
X446337Y297198D01*
X446079D01*
X445266Y296980D01*
X444537Y296559D01*
X444354Y296376D01*
X442636Y295580D01*
X417155D01*
X416511Y296223D01*
X415753Y298645D01*
Y298994D01*
X415497Y299949D01*
X415003Y300804D01*
X414304Y301503D01*
X413756Y301820D01*
X413890Y302320D01*
X436400D01*
X437005Y302440D01*
X437517Y302783D01*
X444639Y309904D01*
X446436Y310802D01*
X449698D01*
Y317198D01*
X443302D01*
Y313936D01*
X442404Y312139D01*
X435745Y305480D01*
X414995D01*
X414788Y305980D01*
X415003Y306196D01*
X415497Y307051D01*
X415753Y308006D01*
Y308994D01*
X415497Y309948D01*
X415003Y310804D01*
X414304Y311503D01*
X413448Y311997D01*
X412494Y312253D01*
X411506D01*
X410552Y311997D01*
X409696Y311503D01*
X409449Y311256D01*
X407200Y310080D01*
X392655D01*
X386511Y316224D01*
X385753Y318645D01*
Y318994D01*
X385497Y319949D01*
X385003Y320804D01*
X384304Y321503D01*
X383449Y321997D01*
X382494Y322253D01*
X381506D01*
X380552Y321997D01*
X379696Y321503D01*
X378997Y320804D01*
X378503Y319949D01*
X378247Y318994D01*
Y318006D01*
X378503Y317052D01*
X378997Y316196D01*
X379696Y315497D01*
X380552Y315003D01*
X381506Y314747D01*
X381855D01*
X384277Y313988D01*
X390882Y307382D01*
X391395Y307040D01*
X392000Y306920D01*
X407200D01*
X408997Y305980D01*
X408874Y305480D01*
X384995D01*
X384788Y305980D01*
X385003Y306196D01*
X385497Y307051D01*
X385753Y308006D01*
Y308994D01*
X385497Y309948D01*
X385003Y310804D01*
X384304Y311503D01*
X383449Y311997D01*
X382494Y312253D01*
X381506D01*
X380552Y311997D01*
X379696Y311503D01*
X378997Y310804D01*
X378503Y309948D01*
X378247Y308994D01*
Y308006D01*
X378503Y307051D01*
X378997Y306196D01*
X379212Y305980D01*
X379005Y305480D01*
X331155D01*
X322517Y314118D01*
X322005Y314460D01*
X321400Y314580D01*
X283378D01*
X283170Y315080D01*
X283663Y315573D01*
X284183Y316474D01*
X284324Y317000D01*
X280500D01*
X276676D01*
X276817Y316474D01*
X277337Y315573D01*
X277830Y315080D01*
X277623Y314580D01*
X255500D01*
X254895Y314460D01*
X254382Y314118D01*
X252777Y312511D01*
X250355Y311753D01*
X250006D01*
X249051Y311497D01*
X248196Y311003D01*
X247497Y310304D01*
X247003Y309449D01*
X246747Y308494D01*
Y307506D01*
X247003Y306552D01*
X247497Y305696D01*
X247653Y305540D01*
X247462Y305078D01*
X237257D01*
X212215Y330120D01*
X211702Y330463D01*
X211097Y330583D01*
D02*
G37*
G36*
X151494Y310753D02*
X150506D01*
X149551Y310497D01*
X148696Y310003D01*
X147997Y309304D01*
X147503Y308449D01*
X147247Y307494D01*
Y306506D01*
X147503Y305552D01*
X147997Y304696D01*
X148696Y303997D01*
X149551Y303503D01*
X150506Y303247D01*
X151494D01*
X152448Y303503D01*
X153304Y303997D01*
X154003Y304696D01*
X154497Y305552D01*
X154753Y306506D01*
Y307494D01*
X154497Y308449D01*
X154003Y309304D01*
X153304Y310003D01*
X152448Y310497D01*
X151494Y310753D01*
D02*
G37*
G36*
X446921Y307198D02*
X446079D01*
X445266Y306980D01*
X444537Y306559D01*
X443941Y305963D01*
X443520Y305234D01*
X443302Y304421D01*
Y303579D01*
X443520Y302766D01*
X443941Y302037D01*
X444537Y301441D01*
X445266Y301020D01*
X446079Y300802D01*
X446921D01*
X447734Y301020D01*
X448463Y301441D01*
X449059Y302037D01*
X449480Y302766D01*
X449698Y303579D01*
Y304421D01*
X449480Y305234D01*
X449059Y305963D01*
X448463Y306559D01*
X447734Y306980D01*
X446921Y307198D01*
D02*
G37*
G36*
X518421Y306198D02*
X517579D01*
X516766Y305980D01*
X516037Y305559D01*
X515441Y304963D01*
X515020Y304234D01*
X514802Y303421D01*
Y302579D01*
X515020Y301766D01*
X515441Y301037D01*
X516037Y300441D01*
X516766Y300020D01*
X517579Y299802D01*
X518421D01*
X519234Y300020D01*
X519963Y300441D01*
X520559Y301037D01*
X520980Y301766D01*
X521198Y302579D01*
Y303421D01*
X520980Y304234D01*
X520559Y304963D01*
X519963Y305559D01*
X519234Y305980D01*
X518421Y306198D01*
D02*
G37*
G36*
X482421D02*
X481579D01*
X480766Y305980D01*
X480037Y305559D01*
X479441Y304963D01*
X479020Y304234D01*
X478802Y303421D01*
Y302579D01*
X479020Y301766D01*
X479441Y301037D01*
X480037Y300441D01*
X480766Y300020D01*
X481579Y299802D01*
X482421D01*
X483234Y300020D01*
X483963Y300441D01*
X484559Y301037D01*
X484980Y301766D01*
X485198Y302579D01*
Y303421D01*
X484980Y304234D01*
X484559Y304963D01*
X483963Y305559D01*
X483234Y305980D01*
X482421Y306198D01*
D02*
G37*
G36*
X49440Y305662D02*
X48607D01*
X47803Y305447D01*
X47082Y305030D01*
X46493Y304442D01*
X46077Y303721D01*
X45861Y302916D01*
Y302084D01*
X46077Y301279D01*
X46493Y300558D01*
X47082Y299970D01*
X47803Y299553D01*
X48607Y299338D01*
X49440D01*
X50244Y299553D01*
X50965Y299970D01*
X51554Y300558D01*
X51970Y301279D01*
X52186Y302084D01*
Y302916D01*
X51970Y303721D01*
X51554Y304442D01*
X50965Y305030D01*
X50244Y305447D01*
X49440Y305662D01*
D02*
G37*
G36*
X350500Y299926D02*
Y297000D01*
X353426D01*
X353275Y297564D01*
X352742Y298487D01*
X351988Y299242D01*
X351064Y299775D01*
X350500Y299926D01*
D02*
G37*
G36*
X518421Y296198D02*
X517579D01*
X516766Y295980D01*
X516037Y295559D01*
X515441Y294963D01*
X515020Y294234D01*
X514802Y293421D01*
Y292579D01*
X515020Y291766D01*
X515441Y291037D01*
X516037Y290441D01*
X516766Y290020D01*
X517579Y289802D01*
X518421D01*
X519234Y290020D01*
X519963Y290441D01*
X520559Y291037D01*
X520980Y291766D01*
X521198Y292579D01*
Y293421D01*
X520980Y294234D01*
X520559Y294963D01*
X519963Y295559D01*
X519234Y295980D01*
X518421Y296198D01*
D02*
G37*
G36*
X199500Y289162D02*
Y286236D01*
X202426D01*
X202275Y286800D01*
X201742Y287724D01*
X200988Y288478D01*
X200064Y289011D01*
X199500Y289162D01*
D02*
G37*
G36*
X197500D02*
X196936Y289011D01*
X196012Y288478D01*
X195258Y287724D01*
X194725Y286800D01*
X194574Y286236D01*
X197500D01*
Y289162D01*
D02*
G37*
G36*
X250994Y291753D02*
X250006D01*
X249051Y291497D01*
X248196Y291003D01*
X247497Y290304D01*
X247003Y289448D01*
X246747Y288494D01*
Y287506D01*
X247003Y286551D01*
X247497Y285696D01*
X248196Y284997D01*
X249051Y284503D01*
X250006Y284247D01*
X250994D01*
X251948Y284503D01*
X252804Y284997D01*
X253503Y285696D01*
X253997Y286551D01*
X254253Y287506D01*
Y288494D01*
X253997Y289448D01*
X253503Y290304D01*
X252804Y291003D01*
X251948Y291497D01*
X250994Y291753D01*
D02*
G37*
G36*
X202426Y284236D02*
X199500D01*
Y281310D01*
X200064Y281461D01*
X200988Y281995D01*
X201742Y282749D01*
X202275Y283672D01*
X202426Y284236D01*
D02*
G37*
G36*
X197500D02*
X194574D01*
X194725Y283672D01*
X195258Y282749D01*
X196012Y281995D01*
X196936Y281461D01*
X197500Y281310D01*
Y284236D01*
D02*
G37*
G36*
X416324Y260500D02*
X413500D01*
Y257676D01*
X414026Y257817D01*
X414927Y258337D01*
X415663Y259073D01*
X416183Y259974D01*
X416324Y260500D01*
D02*
G37*
G36*
X411500D02*
X408676D01*
X408817Y259974D01*
X409337Y259073D01*
X410073Y258337D01*
X410974Y257817D01*
X411500Y257676D01*
Y260500D01*
D02*
G37*
G36*
X386965Y278768D02*
X386235D01*
X385531Y278580D01*
X384900Y278215D01*
X384385Y277700D01*
X384020Y277069D01*
X383832Y276364D01*
Y276186D01*
X383277Y274912D01*
X377253Y268887D01*
X375063Y267980D01*
X362300D01*
X361695Y267860D01*
X361182Y267517D01*
X332745Y239080D01*
X316035D01*
X315186Y239502D01*
Y240662D01*
X308861D01*
Y234338D01*
X315186D01*
Y235498D01*
X316035Y235920D01*
X333400D01*
X334005Y236040D01*
X334518Y236383D01*
X362955Y264820D01*
X379805D01*
X380012Y264320D01*
X379497Y263804D01*
X379003Y262948D01*
X378747Y261994D01*
Y261006D01*
X379003Y260051D01*
X379497Y259196D01*
X380196Y258497D01*
X381051Y258003D01*
X382006Y257747D01*
X382355D01*
X384776Y256989D01*
X391383Y250382D01*
X391895Y250040D01*
X392500Y249920D01*
X407700D01*
X409497Y248980D01*
X409374Y248480D01*
X387755D01*
X387012Y249223D01*
X386253Y251645D01*
Y251994D01*
X385997Y252948D01*
X385503Y253804D01*
X384804Y254503D01*
X383948Y254997D01*
X382994Y255253D01*
X382006D01*
X381051Y254997D01*
X380196Y254503D01*
X379497Y253804D01*
X379003Y252948D01*
X378747Y251994D01*
Y251006D01*
X379003Y250051D01*
X379497Y249196D01*
X380196Y248497D01*
X381051Y248003D01*
X382006Y247747D01*
X382355D01*
X384776Y246989D01*
X385982Y245782D01*
X386495Y245440D01*
X387100Y245320D01*
X410610D01*
X410744Y244820D01*
X410196Y244503D01*
X409497Y243804D01*
X409003Y242949D01*
X408747Y241994D01*
Y241645D01*
X407989Y239224D01*
X406782Y238018D01*
X391345Y222580D01*
X274236D01*
X273631Y222460D01*
X273119Y222117D01*
X241392Y190391D01*
X238858Y189615D01*
X238493D01*
X237513Y189353D01*
X236635Y188846D01*
X235918Y188128D01*
X235411Y187250D01*
X235149Y186271D01*
Y185257D01*
X235411Y184277D01*
X235918Y183399D01*
X236635Y182682D01*
X237513Y182175D01*
X238493Y181913D01*
X239507D01*
X240487Y182175D01*
X241365Y182682D01*
X242082Y183399D01*
X242589Y184277D01*
X242851Y185257D01*
Y185622D01*
X243627Y188156D01*
X274891Y219420D01*
X392000D01*
X392605Y219540D01*
X393117Y219882D01*
X405820Y232585D01*
X406320Y232378D01*
Y226900D01*
X406440Y226295D01*
X406782Y225782D01*
X409282Y223283D01*
X409795Y222940D01*
X410400Y222820D01*
X447445D01*
X484406Y185859D01*
X485302Y184086D01*
Y180802D01*
X491698D01*
Y187198D01*
X488414D01*
X486641Y188094D01*
X449218Y225518D01*
X448705Y225860D01*
X448100Y225980D01*
X411055D01*
X409788Y227247D01*
X409995Y227747D01*
X416253D01*
Y229498D01*
X417102Y229920D01*
X460345D01*
X484650Y205615D01*
X485302Y203837D01*
Y203579D01*
X485520Y202766D01*
X485941Y202037D01*
X486537Y201441D01*
X487266Y201020D01*
X488079Y200802D01*
X488921D01*
X489734Y201020D01*
X490463Y201441D01*
X490646Y201624D01*
X492364Y202420D01*
X500345D01*
X516406Y186359D01*
X517302Y184586D01*
Y181302D01*
X523698D01*
Y187698D01*
X520414D01*
X518641Y188594D01*
X502117Y205118D01*
X501605Y205460D01*
X501000Y205580D01*
X492364D01*
X490646Y206377D01*
X490463Y206559D01*
X489734Y206980D01*
X488921Y207198D01*
X488663D01*
X486885Y207850D01*
X462117Y232617D01*
X461605Y232960D01*
X461000Y233080D01*
X417102D01*
X416253Y233502D01*
Y235253D01*
X410051D01*
X409773Y235668D01*
X410334Y237023D01*
X412645Y237747D01*
X412994D01*
X413948Y238003D01*
X414804Y238497D01*
X415503Y239196D01*
X415997Y240052D01*
X416253Y241006D01*
Y241994D01*
X415997Y242949D01*
X415503Y243804D01*
X414804Y244503D01*
X414256Y244820D01*
X414390Y245320D01*
X446745D01*
X447683Y244383D01*
X448195Y244040D01*
X448800Y243920D01*
X511845D01*
X514650Y241115D01*
X515302Y239337D01*
Y239079D01*
X515520Y238266D01*
X515941Y237537D01*
X516537Y236941D01*
X517266Y236520D01*
X518079Y236302D01*
X518921D01*
X519734Y236520D01*
X520463Y236941D01*
X521059Y237537D01*
X521480Y238266D01*
X521698Y239079D01*
Y239921D01*
X521480Y240734D01*
X521059Y241463D01*
X520463Y242059D01*
X519734Y242480D01*
X518921Y242698D01*
X518663D01*
X516885Y243350D01*
X513618Y246618D01*
X513105Y246960D01*
X512500Y247080D01*
X483799D01*
X483603Y247580D01*
X484059Y248037D01*
X484480Y248766D01*
X484698Y249579D01*
Y250421D01*
X484480Y251234D01*
X484059Y251963D01*
X483463Y252559D01*
X482734Y252980D01*
X481921Y253198D01*
X481079D01*
X480266Y252980D01*
X479537Y252559D01*
X478941Y251963D01*
X478520Y251234D01*
X478302Y250421D01*
Y249579D01*
X478520Y248766D01*
X478941Y248037D01*
X479397Y247580D01*
X479201Y247080D01*
X449455D01*
X448518Y248018D01*
X448005Y248360D01*
X447400Y248480D01*
X415495D01*
X415288Y248980D01*
X415503Y249196D01*
X415997Y250051D01*
X416253Y251006D01*
Y251994D01*
X415997Y252948D01*
X415503Y253804D01*
X414804Y254503D01*
X413948Y254997D01*
X412994Y255253D01*
X412006D01*
X411052Y254997D01*
X410196Y254503D01*
X409949Y254256D01*
X407700Y253080D01*
X393155D01*
X387012Y259224D01*
X386253Y261645D01*
Y261994D01*
X385997Y262948D01*
X385503Y263804D01*
X384988Y264320D01*
X385195Y264820D01*
X409522D01*
X409730Y264320D01*
X409337Y263927D01*
X408817Y263026D01*
X408676Y262500D01*
X412500D01*
X416324D01*
X416183Y263026D01*
X415663Y263927D01*
X415270Y264320D01*
X415478Y264820D01*
X474445D01*
X477650Y261615D01*
X478302Y259837D01*
Y259579D01*
X478520Y258766D01*
X478941Y258037D01*
X479537Y257441D01*
X480266Y257020D01*
X481079Y256802D01*
X481921D01*
X482734Y257020D01*
X483463Y257441D01*
X484059Y258037D01*
X484480Y258766D01*
X484698Y259579D01*
Y260421D01*
X484480Y261234D01*
X484059Y261963D01*
X483463Y262559D01*
X482734Y262980D01*
X481921Y263198D01*
X481663D01*
X479885Y263850D01*
X476218Y267517D01*
X475705Y267860D01*
X475100Y267980D01*
X381522D01*
X381315Y268480D01*
X385512Y272677D01*
X386786Y273232D01*
X386965D01*
X387669Y273420D01*
X388300Y273785D01*
X388815Y274300D01*
X389180Y274931D01*
X389369Y275636D01*
Y276364D01*
X389180Y277069D01*
X388815Y277700D01*
X388300Y278215D01*
X387669Y278580D01*
X386965Y278768D01*
D02*
G37*
G36*
X95893Y257162D02*
X95060D01*
X94256Y256947D01*
X93535Y256530D01*
X92946Y255942D01*
X92530Y255221D01*
X92314Y254416D01*
Y253584D01*
X92530Y252779D01*
X92946Y252058D01*
X93535Y251470D01*
X94256Y251053D01*
X95060Y250838D01*
X95893D01*
X96697Y251053D01*
X97418Y251470D01*
X98007Y252058D01*
X98423Y252779D01*
X98639Y253584D01*
Y254416D01*
X98423Y255221D01*
X98007Y255942D01*
X97418Y256530D01*
X96697Y256947D01*
X95893Y257162D01*
D02*
G37*
G36*
X518921Y252698D02*
X518079D01*
X517266Y252480D01*
X516537Y252059D01*
X515941Y251463D01*
X515520Y250734D01*
X515302Y249921D01*
Y249079D01*
X515520Y248266D01*
X515941Y247537D01*
X516537Y246941D01*
X517266Y246520D01*
X518079Y246302D01*
X518921D01*
X519734Y246520D01*
X520463Y246941D01*
X521059Y247537D01*
X521480Y248266D01*
X521698Y249079D01*
Y249921D01*
X521480Y250734D01*
X521059Y251463D01*
X520463Y252059D01*
X519734Y252480D01*
X518921Y252698D01*
D02*
G37*
G36*
X280764Y243926D02*
X280200Y243775D01*
X279276Y243242D01*
X278522Y242488D01*
X277989Y241564D01*
X277838Y241000D01*
X280764D01*
Y243926D01*
D02*
G37*
G36*
X200198Y245198D02*
X193802D01*
Y238802D01*
X200198D01*
Y245198D01*
D02*
G37*
G36*
X382994Y245253D02*
X382006D01*
X381051Y244997D01*
X380196Y244503D01*
X379497Y243804D01*
X379003Y242949D01*
X378747Y241994D01*
Y241006D01*
X379003Y240052D01*
X379497Y239196D01*
X380196Y238497D01*
X381051Y238003D01*
X382006Y237747D01*
X382994D01*
X383948Y238003D01*
X384804Y238497D01*
X385503Y239196D01*
X385997Y240052D01*
X386253Y241006D01*
Y241994D01*
X385997Y242949D01*
X385503Y243804D01*
X384804Y244503D01*
X383948Y244997D01*
X382994Y245253D01*
D02*
G37*
G36*
X484698Y243198D02*
X478302D01*
Y236802D01*
X484698D01*
Y243198D01*
D02*
G37*
G36*
X360393Y240662D02*
X359560D01*
X358756Y240447D01*
X358035Y240030D01*
X357446Y239442D01*
X357030Y238721D01*
X356814Y237916D01*
Y237084D01*
X357030Y236279D01*
X357446Y235558D01*
X358035Y234970D01*
X358756Y234553D01*
X359560Y234338D01*
X360393D01*
X361197Y234553D01*
X361918Y234970D01*
X362507Y235558D01*
X362923Y236279D01*
X363139Y237084D01*
Y237916D01*
X362923Y238721D01*
X362507Y239442D01*
X361918Y240030D01*
X361197Y240447D01*
X360393Y240662D01*
D02*
G37*
G36*
X197421Y235198D02*
X196579D01*
X195766Y234980D01*
X195037Y234559D01*
X194441Y233963D01*
X194020Y233234D01*
X193802Y232421D01*
Y231579D01*
X194020Y230766D01*
X194441Y230037D01*
X195037Y229441D01*
X195766Y229020D01*
X196579Y228802D01*
X197421D01*
X198234Y229020D01*
X198963Y229441D01*
X199559Y230037D01*
X199980Y230766D01*
X200198Y231579D01*
Y232421D01*
X199980Y233234D01*
X199559Y233963D01*
X198963Y234559D01*
X198234Y234980D01*
X197421Y235198D01*
D02*
G37*
G36*
X382994Y235253D02*
X382006D01*
X381051Y234997D01*
X380196Y234503D01*
X379497Y233804D01*
X379003Y232948D01*
X378747Y231994D01*
Y231006D01*
X379003Y230051D01*
X379497Y229196D01*
X380196Y228497D01*
X381051Y228003D01*
X382006Y227747D01*
X382994D01*
X383948Y228003D01*
X384804Y228497D01*
X385503Y229196D01*
X385997Y230051D01*
X386253Y231006D01*
Y231994D01*
X385997Y232948D01*
X385503Y233804D01*
X384804Y234503D01*
X383948Y234997D01*
X382994Y235253D01*
D02*
G37*
G36*
X98662Y232662D02*
X92338D01*
Y226338D01*
X98662D01*
Y232662D01*
D02*
G37*
G36*
X159369Y223662D02*
X158537D01*
X157732Y223447D01*
X157011Y223030D01*
X156422Y222442D01*
X156006Y221721D01*
X155791Y220916D01*
Y220084D01*
X156006Y219279D01*
X156422Y218558D01*
X157011Y217970D01*
X157732Y217553D01*
X158537Y217338D01*
X159369D01*
X160173Y217553D01*
X160894Y217970D01*
X161483Y218558D01*
X161899Y219279D01*
X162115Y220084D01*
Y220916D01*
X161899Y221721D01*
X161483Y222442D01*
X160894Y223030D01*
X160173Y223447D01*
X159369Y223662D01*
D02*
G37*
G36*
X27512Y215390D02*
X26488D01*
X25498Y215125D01*
X24611Y214613D01*
X23887Y213889D01*
X23375Y213002D01*
X23110Y212012D01*
Y210988D01*
X23375Y209998D01*
X23887Y209111D01*
X24611Y208387D01*
X25498Y207875D01*
X26488Y207610D01*
X27512D01*
X28502Y207875D01*
X29389Y208387D01*
X30113Y209111D01*
X30625Y209998D01*
X30891Y210988D01*
Y212012D01*
X30625Y213002D01*
X30113Y213889D01*
X29389Y214613D01*
X28502Y215125D01*
X27512Y215390D01*
D02*
G37*
G36*
X520921Y207698D02*
X520079D01*
X519266Y207480D01*
X518537Y207059D01*
X517941Y206463D01*
X517520Y205734D01*
X517302Y204921D01*
Y204079D01*
X517520Y203266D01*
X517941Y202537D01*
X518537Y201941D01*
X519266Y201520D01*
X520079Y201302D01*
X520921D01*
X521734Y201520D01*
X522463Y201941D01*
X523059Y202537D01*
X523480Y203266D01*
X523698Y204079D01*
Y204921D01*
X523480Y205734D01*
X523059Y206463D01*
X522463Y207059D01*
X521734Y207480D01*
X520921Y207698D01*
D02*
G37*
G36*
X455421Y207198D02*
X454579D01*
X453766Y206980D01*
X453037Y206559D01*
X452854Y206377D01*
X451136Y205580D01*
X286764D01*
X286159Y205460D01*
X285646Y205118D01*
X241513Y160984D01*
X239740Y160087D01*
X235149D01*
Y152385D01*
X242851D01*
Y156976D01*
X243748Y158749D01*
X287418Y202420D01*
X451136D01*
X452854Y201624D01*
X453037Y201441D01*
X453766Y201020D01*
X454579Y200802D01*
X455421D01*
X456234Y201020D01*
X456963Y201441D01*
X457559Y202037D01*
X457980Y202766D01*
X458198Y203579D01*
Y204421D01*
X457980Y205234D01*
X457559Y205963D01*
X456963Y206559D01*
X456234Y206980D01*
X455421Y207198D01*
D02*
G37*
G36*
X520921Y197698D02*
X520079D01*
X519266Y197480D01*
X518537Y197059D01*
X517941Y196463D01*
X517520Y195734D01*
X517302Y194921D01*
Y194079D01*
X517520Y193266D01*
X517941Y192537D01*
X518537Y191941D01*
X519266Y191520D01*
X520079Y191302D01*
X520921D01*
X521734Y191520D01*
X522463Y191941D01*
X523059Y192537D01*
X523480Y193266D01*
X523698Y194079D01*
Y194921D01*
X523480Y195734D01*
X523059Y196463D01*
X522463Y197059D01*
X521734Y197480D01*
X520921Y197698D01*
D02*
G37*
G36*
X488921Y197198D02*
X488079D01*
X487266Y196980D01*
X486537Y196559D01*
X485941Y195963D01*
X485520Y195234D01*
X485302Y194421D01*
Y193579D01*
X485520Y192766D01*
X485941Y192037D01*
X486537Y191441D01*
X487266Y191020D01*
X488079Y190802D01*
X488921D01*
X489734Y191020D01*
X490463Y191441D01*
X491059Y192037D01*
X491480Y192766D01*
X491698Y193579D01*
Y194421D01*
X491480Y195234D01*
X491059Y195963D01*
X490463Y196559D01*
X489734Y196980D01*
X488921Y197198D01*
D02*
G37*
G36*
X455421D02*
X454579D01*
X453766Y196980D01*
X453037Y196559D01*
X452441Y195963D01*
X452020Y195234D01*
X451802Y194421D01*
Y193579D01*
X452020Y192766D01*
X452441Y192037D01*
X453037Y191441D01*
X453766Y191020D01*
X454579Y190802D01*
X455421D01*
X456234Y191020D01*
X456963Y191441D01*
X457559Y192037D01*
X457980Y192766D01*
X458198Y193579D01*
Y194421D01*
X457980Y195234D01*
X457559Y195963D01*
X456963Y196559D01*
X456234Y196980D01*
X455421Y197198D01*
D02*
G37*
G36*
X321351Y189615D02*
X313649D01*
Y181913D01*
X321351D01*
Y189615D01*
D02*
G37*
G36*
X413264Y184426D02*
Y181500D01*
X416190D01*
X416039Y182064D01*
X415506Y182987D01*
X414751Y183742D01*
X413828Y184275D01*
X413264Y184426D01*
D02*
G37*
G36*
X458198Y187198D02*
X451802D01*
Y180802D01*
X458198D01*
Y187198D01*
D02*
G37*
G36*
X90000Y181120D02*
Y178500D01*
X92620D01*
X92500Y178950D01*
X92005Y179806D01*
X91306Y180506D01*
X90450Y181000D01*
X90000Y181120D01*
D02*
G37*
G36*
X88000D02*
X87550Y181000D01*
X86694Y180506D01*
X85994Y179806D01*
X85500Y178950D01*
X85380Y178500D01*
X88000D01*
Y181120D01*
D02*
G37*
G36*
X183615Y175351D02*
X175913D01*
Y167649D01*
X183615D01*
Y175351D01*
D02*
G37*
G36*
X150743D02*
X149729D01*
X148750Y175089D01*
X147871Y174582D01*
X147154Y173865D01*
X146648Y172986D01*
X146385Y172007D01*
Y170993D01*
X146648Y170013D01*
X147154Y169135D01*
X147871Y168418D01*
X148750Y167911D01*
X149729Y167649D01*
X150743D01*
X151723Y167911D01*
X152601Y168418D01*
X153318Y169135D01*
X153825Y170013D01*
X154087Y170993D01*
Y172007D01*
X153825Y172986D01*
X153318Y173865D01*
X152601Y174582D01*
X151723Y175089D01*
X150743Y175351D01*
D02*
G37*
G36*
X318007Y160087D02*
X316993D01*
X316014Y159825D01*
X315135Y159318D01*
X314418Y158601D01*
X313911Y157723D01*
X313649Y156743D01*
Y155729D01*
X313911Y154750D01*
X314418Y153872D01*
X315135Y153155D01*
X316014Y152647D01*
X316993Y152385D01*
X318007D01*
X318987Y152647D01*
X319865Y153155D01*
X320582Y153872D01*
X321089Y154750D01*
X321351Y155729D01*
Y156743D01*
X321089Y157723D01*
X320582Y158601D01*
X319865Y159318D01*
X318987Y159825D01*
X318007Y160087D01*
D02*
G37*
G36*
X28012Y159891D02*
X26988D01*
X25998Y159625D01*
X25111Y159113D01*
X24387Y158389D01*
X23875Y157502D01*
X23609Y156512D01*
Y155488D01*
X23875Y154498D01*
X24387Y153611D01*
X25111Y152887D01*
X25998Y152375D01*
X26988Y152109D01*
X28012D01*
X29002Y152375D01*
X29889Y152887D01*
X30613Y153611D01*
X31125Y154498D01*
X31391Y155488D01*
Y156512D01*
X31125Y157502D01*
X30613Y158389D01*
X29889Y159113D01*
X29002Y159625D01*
X28012Y159891D01*
D02*
G37*
G36*
X531639Y155162D02*
X525314D01*
Y148838D01*
X531639D01*
Y155162D01*
D02*
G37*
G36*
X109468Y151056D02*
X108532D01*
X107627Y150814D01*
X106817Y150345D01*
X106155Y149683D01*
X105686Y148872D01*
X105444Y147968D01*
Y147032D01*
X105686Y146127D01*
X106155Y145317D01*
X106817Y144655D01*
X107627Y144186D01*
X108532Y143944D01*
X109468D01*
X110372Y144186D01*
X111183Y144655D01*
X111845Y145317D01*
X112314Y146127D01*
X112556Y147032D01*
Y147968D01*
X112314Y148872D01*
X111845Y149683D01*
X111183Y150345D01*
X110372Y150814D01*
X109468Y151056D01*
D02*
G37*
G36*
X99468D02*
X98532D01*
X97628Y150814D01*
X96817Y150345D01*
X96155Y149683D01*
X95686Y148872D01*
X95444Y147968D01*
Y147032D01*
X95686Y146127D01*
X96155Y145317D01*
X96817Y144655D01*
X97628Y144186D01*
X98532Y143944D01*
X99468D01*
X100373Y144186D01*
X101183Y144655D01*
X101845Y145317D01*
X102314Y146127D01*
X102556Y147032D01*
Y147968D01*
X102314Y148872D01*
X101845Y149683D01*
X101183Y150345D01*
X100373Y150814D01*
X99468Y151056D01*
D02*
G37*
G36*
X89468D02*
X88532D01*
X87628Y150814D01*
X86817Y150345D01*
X86155Y149683D01*
X85686Y148872D01*
X85444Y147968D01*
Y147032D01*
X85686Y146127D01*
X86155Y145317D01*
X86817Y144655D01*
X87628Y144186D01*
X88532Y143944D01*
X89468D01*
X90373Y144186D01*
X91183Y144655D01*
X91845Y145317D01*
X92314Y146127D01*
X92556Y147032D01*
Y147968D01*
X92314Y148872D01*
X91845Y149683D01*
X91183Y150345D01*
X90373Y150814D01*
X89468Y151056D01*
D02*
G37*
G36*
X484386Y130862D02*
X482024D01*
Y128500D01*
X484386D01*
Y130862D01*
D02*
G37*
G36*
X401156Y186681D02*
X379043D01*
X378438Y186561D01*
X377925Y186219D01*
X377017Y185311D01*
X376675Y184798D01*
X376555Y184193D01*
Y176807D01*
X376675Y176202D01*
X377017Y175689D01*
X404822Y147885D01*
X405334Y147543D01*
X405939Y147422D01*
X431247D01*
Y140747D01*
X432994D01*
X433333Y140068D01*
X421566Y128301D01*
X421085Y128527D01*
X420899Y129221D01*
X420483Y129942D01*
X419894Y130530D01*
X419173Y130947D01*
X418369Y131162D01*
X417536D01*
X416732Y130947D01*
X416011Y130530D01*
X415833Y130352D01*
X414149Y129580D01*
X403200D01*
X402595Y129460D01*
X402082Y129118D01*
X348245Y75280D01*
X128955D01*
X118511Y85724D01*
X117753Y88145D01*
Y88494D01*
X117497Y89448D01*
X117003Y90304D01*
X116304Y91003D01*
X115448Y91497D01*
X114494Y91753D01*
X113506D01*
X112551Y91497D01*
X111696Y91003D01*
X110997Y90304D01*
X110503Y89448D01*
X110247Y88494D01*
Y88145D01*
X109488Y85724D01*
X103845Y80080D01*
X94155D01*
X88512Y85724D01*
X87753Y88145D01*
Y88494D01*
X87497Y89448D01*
X87003Y90304D01*
X86788Y90520D01*
X86995Y91020D01*
X88745D01*
X89489Y90276D01*
X90247Y87855D01*
Y87506D01*
X90503Y86551D01*
X90997Y85696D01*
X91696Y84997D01*
X92551Y84503D01*
X93506Y84247D01*
X94494D01*
X95448Y84503D01*
X96304Y84997D01*
X96551Y85244D01*
X98800Y86420D01*
X99200D01*
X101449Y85244D01*
X101696Y84997D01*
X102551Y84503D01*
X103506Y84247D01*
X104494D01*
X105448Y84503D01*
X106304Y84997D01*
X107003Y85696D01*
X107497Y86551D01*
X107753Y87506D01*
Y87855D01*
X108511Y90276D01*
X115155Y96920D01*
X150845D01*
X157489Y90276D01*
X158247Y87855D01*
Y87506D01*
X158503Y86551D01*
X158997Y85696D01*
X159696Y84997D01*
X160552Y84503D01*
X161506Y84247D01*
X162494D01*
X163449Y84503D01*
X164304Y84997D01*
X165003Y85696D01*
X165497Y86551D01*
X165753Y87506D01*
Y88187D01*
X166253Y88394D01*
X169324Y85324D01*
X169520Y85172D01*
X169696Y84997D01*
X169911Y84873D01*
X170107Y84722D01*
X170337Y84627D01*
X170552Y84503D01*
X170791Y84439D01*
X171020Y84344D01*
X171266Y84311D01*
X171506Y84247D01*
X171754D01*
X172000Y84215D01*
X172246Y84247D01*
X172494D01*
X172734Y84311D01*
X172980Y84344D01*
X173209Y84439D01*
X173449Y84503D01*
X173663Y84627D01*
X173893Y84722D01*
X174089Y84873D01*
X174304Y84997D01*
X174480Y85172D01*
X174677Y85324D01*
X174828Y85520D01*
X175003Y85696D01*
X175127Y85911D01*
X175278Y86107D01*
X175373Y86337D01*
X175497Y86551D01*
X175561Y86791D01*
X175656Y87020D01*
X175689Y87266D01*
X175753Y87506D01*
Y87754D01*
X175785Y88000D01*
X175753Y88246D01*
Y88494D01*
X175689Y88734D01*
X175656Y88980D01*
X175561Y89209D01*
X175497Y89448D01*
X175373Y89663D01*
X175278Y89893D01*
X175127Y90089D01*
X175003Y90304D01*
X174828Y90480D01*
X174677Y90676D01*
X159674Y105679D01*
X158890Y106281D01*
X157977Y106659D01*
X156997Y106788D01*
X66765D01*
X57064Y110806D01*
X54085Y113785D01*
X54276Y114247D01*
X54494D01*
X55449Y114503D01*
X56304Y114997D01*
X57003Y115696D01*
X57497Y116551D01*
X57753Y117506D01*
Y118494D01*
X57497Y119448D01*
X57003Y120304D01*
X56304Y121003D01*
X55449Y121497D01*
X54494Y121753D01*
X54276D01*
X54085Y122215D01*
X60876Y129006D01*
X113495D01*
X114475Y129135D01*
X115388Y129513D01*
X116172Y130114D01*
X128185Y142128D01*
X128787Y142912D01*
X129165Y143824D01*
X129294Y144804D01*
Y170991D01*
X129165Y171971D01*
X128787Y172884D01*
X128185Y173668D01*
X126460Y175393D01*
X122556Y180524D01*
Y181056D01*
X121762D01*
X121744Y181060D01*
X121725Y181056D01*
X120222D01*
X119980Y181156D01*
X119000Y181285D01*
X118020Y181156D01*
X117778Y181056D01*
X115444D01*
Y178722D01*
X115344Y178480D01*
X115215Y177500D01*
X115344Y176520D01*
X115444Y176278D01*
Y174775D01*
X115440Y174756D01*
X115444Y174738D01*
Y173944D01*
X115976D01*
X121107Y170040D01*
X121723Y169423D01*
Y150459D01*
X121262Y150267D01*
X121183Y150345D01*
X120372Y150814D01*
X119468Y151056D01*
X118532D01*
X117628Y150814D01*
X116817Y150345D01*
X116155Y149683D01*
X115686Y148872D01*
X115444Y147968D01*
Y147032D01*
X115686Y146127D01*
X116155Y145317D01*
X116817Y144655D01*
X117628Y144186D01*
X118532Y143944D01*
X118642D01*
X118834Y143482D01*
X111927Y136576D01*
X59308D01*
X58328Y136447D01*
X57415Y136069D01*
X56631Y135467D01*
X55920Y134757D01*
X52785Y136055D01*
Y147500D01*
X52656Y148480D01*
X52278Y149393D01*
X51872Y149922D01*
X52118Y150422D01*
X56186D01*
X56394Y149922D01*
X56155Y149683D01*
X55686Y148872D01*
X55444Y147968D01*
Y147032D01*
X55686Y146127D01*
X56155Y145317D01*
X56817Y144655D01*
X57627Y144186D01*
X58532Y143944D01*
X59468D01*
X60373Y144186D01*
X61183Y144655D01*
X61845Y145317D01*
X62314Y146127D01*
X62556Y147032D01*
Y147968D01*
X62314Y148872D01*
X61845Y149683D01*
X61606Y149922D01*
X61813Y150422D01*
X66186D01*
X66394Y149922D01*
X66155Y149683D01*
X65686Y148872D01*
X65444Y147968D01*
Y147032D01*
X65686Y146127D01*
X66155Y145317D01*
X66817Y144655D01*
X67628Y144186D01*
X68532Y143944D01*
X69468D01*
X70372Y144186D01*
X71183Y144655D01*
X71845Y145317D01*
X72314Y146127D01*
X72556Y147032D01*
Y147968D01*
X72314Y148872D01*
X71845Y149683D01*
X71606Y149922D01*
X71813Y150422D01*
X76187D01*
X76394Y149922D01*
X76155Y149683D01*
X75686Y148872D01*
X75444Y147968D01*
Y147032D01*
X75686Y146127D01*
X76155Y145317D01*
X76817Y144655D01*
X77627Y144186D01*
X78532Y143944D01*
X79468D01*
X80373Y144186D01*
X81183Y144655D01*
X81845Y145317D01*
X82314Y146127D01*
X82556Y147032D01*
Y147968D01*
X82314Y148872D01*
X81845Y149683D01*
X81606Y149922D01*
X81814Y150422D01*
X83503D01*
X84108Y150543D01*
X84620Y150885D01*
X106956Y173222D01*
X109151Y173944D01*
X109468D01*
X110372Y174186D01*
X111183Y174655D01*
X111845Y175317D01*
X112314Y176128D01*
X112556Y177032D01*
Y177968D01*
X112314Y178873D01*
X111845Y179683D01*
X111183Y180345D01*
X110372Y180814D01*
X109468Y181056D01*
X108532D01*
X107627Y180814D01*
X106817Y180345D01*
X106155Y179683D01*
X105686Y178873D01*
X105444Y177968D01*
Y177650D01*
X104721Y175456D01*
X82848Y153583D01*
X46703D01*
X46098Y153463D01*
X45585Y153120D01*
X41674Y149209D01*
X41332Y148696D01*
X41211Y148092D01*
Y109208D01*
X41332Y108604D01*
X41674Y108091D01*
X57512Y92253D01*
X57305Y91753D01*
X50247D01*
Y84247D01*
X57753D01*
Y91305D01*
X58253Y91512D01*
X59488Y90276D01*
X60247Y87855D01*
Y87506D01*
X60503Y86551D01*
X60997Y85696D01*
X61696Y84997D01*
X62551Y84503D01*
X63506Y84247D01*
X64494D01*
X65448Y84503D01*
X66304Y84997D01*
X67003Y85696D01*
X67497Y86551D01*
X67753Y87506D01*
Y88494D01*
X67676Y88781D01*
X68124Y89040D01*
X70463Y86701D01*
X70503Y86551D01*
X70627Y86337D01*
X70722Y86107D01*
X70873Y85911D01*
X70997Y85696D01*
X71172Y85520D01*
X71324Y85324D01*
X71520Y85172D01*
X71696Y84997D01*
X71911Y84873D01*
X72107Y84722D01*
X72337Y84627D01*
X72552Y84503D01*
X72791Y84439D01*
X73020Y84344D01*
X73266Y84311D01*
X73506Y84247D01*
X73754D01*
X74000Y84215D01*
X74246Y84247D01*
X74494D01*
X74734Y84311D01*
X74980Y84344D01*
X75209Y84439D01*
X75449Y84503D01*
X75663Y84627D01*
X75893Y84722D01*
X76089Y84873D01*
X76304Y84997D01*
X76480Y85172D01*
X76676Y85324D01*
X76828Y85520D01*
X77003Y85696D01*
X77127Y85911D01*
X77278Y86107D01*
X77320Y86208D01*
X77820Y86108D01*
Y78800D01*
X77940Y78195D01*
X78282Y77683D01*
X117582Y38383D01*
X118095Y38040D01*
X118700Y37920D01*
X219800D01*
X220405Y38040D01*
X220918Y38383D01*
X223117Y40582D01*
X223460Y41095D01*
X223580Y41700D01*
Y44693D01*
X224302Y45415D01*
X224802Y45208D01*
Y40302D01*
X228064D01*
X229861Y39404D01*
X239882Y29383D01*
X240395Y29040D01*
X241000Y28920D01*
X275000D01*
X275605Y29040D01*
X276117Y29383D01*
X287639Y40904D01*
X289436Y41802D01*
X292698D01*
Y48167D01*
X385248D01*
X385853Y48288D01*
X386365Y48630D01*
X394558Y56823D01*
X395086Y56643D01*
X395138Y56243D01*
X395295Y55865D01*
X395516Y55330D01*
X396118Y54546D01*
X400046Y50618D01*
X400830Y50016D01*
X401743Y49638D01*
X402723Y49509D01*
X455558D01*
X456538Y49638D01*
X456916Y49795D01*
X457451Y50016D01*
X458235Y50618D01*
X468824Y61207D01*
X474562Y65149D01*
X475115D01*
Y65942D01*
X475119Y65961D01*
X475115Y65979D01*
Y72021D01*
X475119Y72039D01*
X475117Y72045D01*
X475119Y72051D01*
X475115Y72296D01*
Y72851D01*
X475107D01*
X475049Y76809D01*
Y109713D01*
X477585Y112249D01*
X478187Y113033D01*
X478408Y113568D01*
X478565Y113946D01*
X478694Y114926D01*
Y124138D01*
X480024D01*
Y127500D01*
Y130862D01*
X478694D01*
Y144817D01*
X483200Y149323D01*
X483802Y150107D01*
X484180Y151020D01*
X484309Y152000D01*
X484180Y152980D01*
X483802Y153893D01*
X483200Y154676D01*
X482416Y155278D01*
X481503Y155656D01*
X480524Y155785D01*
X472500D01*
X471520Y155656D01*
X470607Y155278D01*
X469824Y154676D01*
X463432Y148285D01*
X451033D01*
X434445Y164873D01*
X434652Y165373D01*
X488868D01*
X525170Y129072D01*
X525814Y127335D01*
Y127084D01*
X526030Y126279D01*
X526446Y125558D01*
X527035Y124970D01*
X527756Y124553D01*
X528560Y124338D01*
X529393D01*
X530197Y124553D01*
X530918Y124970D01*
X531507Y125558D01*
X531923Y126279D01*
X532139Y127084D01*
Y127916D01*
X531923Y128721D01*
X531507Y129442D01*
X530918Y130030D01*
X530197Y130447D01*
X529393Y130662D01*
X529141D01*
X527404Y131307D01*
X490640Y168071D01*
X490128Y168414D01*
X489523Y168534D01*
X419958D01*
X412505Y175987D01*
X412696Y176449D01*
X412797D01*
X413828Y176725D01*
X414751Y177258D01*
X415506Y178013D01*
X416039Y178936D01*
X416190Y179500D01*
X412264D01*
Y180500D01*
X411264D01*
Y184426D01*
X410700Y184275D01*
X409776Y183742D01*
X409022Y182987D01*
X408489Y182064D01*
X408213Y181033D01*
Y180932D01*
X407751Y180741D01*
X402273Y186219D01*
X401760Y186561D01*
X401156Y186681D01*
D02*
G37*
G36*
X373162Y131162D02*
X366838D01*
Y124838D01*
X373162D01*
Y131162D01*
D02*
G37*
G36*
X484386Y126500D02*
X482024D01*
Y124138D01*
X484386D01*
Y126500D01*
D02*
G37*
G36*
X73000Y121824D02*
X72474Y121683D01*
X71573Y121163D01*
X70837Y120427D01*
X70317Y119526D01*
X70176Y119000D01*
X73000D01*
Y121824D01*
D02*
G37*
G36*
X64494Y121753D02*
X63506D01*
X62551Y121497D01*
X61696Y121003D01*
X60997Y120304D01*
X60503Y119448D01*
X60247Y118494D01*
Y117506D01*
X60503Y116551D01*
X60997Y115696D01*
X61696Y114997D01*
X62551Y114503D01*
X63506Y114247D01*
X64494D01*
X65448Y114503D01*
X66304Y114997D01*
X67003Y115696D01*
X67497Y116551D01*
X67753Y117506D01*
Y118494D01*
X67497Y119448D01*
X67003Y120304D01*
X66304Y121003D01*
X65448Y121497D01*
X64494Y121753D01*
D02*
G37*
G36*
X315736Y98926D02*
Y96000D01*
X318662D01*
X318511Y96564D01*
X317978Y97487D01*
X317224Y98242D01*
X316300Y98775D01*
X315736Y98926D01*
D02*
G37*
G36*
X518421Y100698D02*
X517579D01*
X516766Y100480D01*
X516037Y100059D01*
X515441Y99463D01*
X515020Y98734D01*
X514802Y97921D01*
Y97079D01*
X515020Y96266D01*
X515441Y95537D01*
X516037Y94941D01*
X516766Y94520D01*
X517579Y94302D01*
X518421D01*
X519234Y94520D01*
X519963Y94941D01*
X520559Y95537D01*
X520980Y96266D01*
X521198Y97079D01*
Y97921D01*
X520980Y98734D01*
X520559Y99463D01*
X519963Y100059D01*
X519234Y100480D01*
X518421Y100698D01*
D02*
G37*
G36*
X348115Y98851D02*
X340413D01*
Y91149D01*
X348115D01*
Y98851D01*
D02*
G37*
G36*
X318662Y94000D02*
X315736D01*
Y91074D01*
X316300Y91225D01*
X317224Y91758D01*
X317978Y92513D01*
X318511Y93436D01*
X318662Y94000D01*
D02*
G37*
G36*
X75000Y121824D02*
Y118000D01*
X74000D01*
Y117000D01*
X70176D01*
X70317Y116474D01*
X70837Y115573D01*
X71573Y114837D01*
X72134Y114513D01*
X78029Y108618D01*
X78813Y108017D01*
X79726Y107638D01*
X80705Y107509D01*
X116778D01*
X117757Y107638D01*
X118135Y107795D01*
X118670Y108017D01*
X119454Y108618D01*
X125051Y114215D01*
X150432D01*
X156029Y108618D01*
X156813Y108017D01*
X157726Y107638D01*
X158705Y107509D01*
X204342D01*
X205321Y107638D01*
X205699Y107795D01*
X206234Y108017D01*
X206836Y108479D01*
X236932D01*
X253087Y92323D01*
X253871Y91722D01*
X254784Y91344D01*
X255764Y91215D01*
X313210D01*
X313736Y91074D01*
Y95000D01*
Y98926D01*
X313210Y98785D01*
X257332D01*
X242256Y113861D01*
X241742Y114751D01*
X240987Y115506D01*
X240064Y116039D01*
X239500Y116190D01*
Y112264D01*
X237500D01*
Y116190D01*
X236974Y116049D01*
X205311D01*
X204331Y115920D01*
X203418Y115542D01*
X202816Y115080D01*
X185753D01*
Y121753D01*
X178247D01*
Y115080D01*
X175040D01*
X174849Y115542D01*
X175003Y115696D01*
X175497Y116551D01*
X175753Y117506D01*
Y118494D01*
X175497Y119448D01*
X175003Y120304D01*
X174304Y121003D01*
X173449Y121497D01*
X172494Y121753D01*
X171506D01*
X170552Y121497D01*
X169696Y121003D01*
X168997Y120304D01*
X168503Y119448D01*
X168247Y118494D01*
Y117506D01*
X168503Y116551D01*
X168997Y115696D01*
X169151Y115542D01*
X168960Y115080D01*
X165040D01*
X164849Y115542D01*
X165003Y115696D01*
X165497Y116551D01*
X165753Y117506D01*
Y118494D01*
X165497Y119448D01*
X165003Y120304D01*
X164304Y121003D01*
X163449Y121497D01*
X162494Y121753D01*
X161506D01*
X160552Y121497D01*
X159696Y121003D01*
X158997Y120304D01*
X158503Y119448D01*
X158247Y118494D01*
Y117813D01*
X157747Y117606D01*
X155487Y119866D01*
X155163Y120427D01*
X154427Y121163D01*
X153526Y121683D01*
X153000Y121824D01*
Y118000D01*
X151000D01*
Y121824D01*
X150854Y121785D01*
X123483D01*
X122503Y121656D01*
X121590Y121278D01*
X120807Y120677D01*
X118215Y118085D01*
X117753Y118276D01*
Y118494D01*
X117497Y119448D01*
X117003Y120304D01*
X116304Y121003D01*
X115448Y121497D01*
X114494Y121753D01*
X113506D01*
X112551Y121497D01*
X111696Y121003D01*
X110997Y120304D01*
X110503Y119448D01*
X110247Y118494D01*
Y117506D01*
X110503Y116551D01*
X110997Y115696D01*
X111151Y115542D01*
X110960Y115080D01*
X107040D01*
X106849Y115542D01*
X107003Y115696D01*
X107497Y116551D01*
X107753Y117506D01*
Y118494D01*
X107497Y119448D01*
X107003Y120304D01*
X106304Y121003D01*
X105448Y121497D01*
X104494Y121753D01*
X103506D01*
X102551Y121497D01*
X101696Y121003D01*
X100997Y120304D01*
X100503Y119448D01*
X100247Y118494D01*
Y117506D01*
X100503Y116551D01*
X100997Y115696D01*
X101151Y115542D01*
X100960Y115080D01*
X97040D01*
X96849Y115542D01*
X97003Y115696D01*
X97497Y116551D01*
X97753Y117506D01*
Y118494D01*
X97497Y119448D01*
X97003Y120304D01*
X96304Y121003D01*
X95448Y121497D01*
X94494Y121753D01*
X93506D01*
X92551Y121497D01*
X91696Y121003D01*
X90997Y120304D01*
X90503Y119448D01*
X90247Y118494D01*
Y117506D01*
X90503Y116551D01*
X90997Y115696D01*
X91151Y115542D01*
X90960Y115080D01*
X87040D01*
X86849Y115542D01*
X87003Y115696D01*
X87497Y116551D01*
X87753Y117506D01*
Y118494D01*
X87497Y119448D01*
X87003Y120304D01*
X86304Y121003D01*
X85448Y121497D01*
X84494Y121753D01*
X83506D01*
X82551Y121497D01*
X81696Y121003D01*
X80997Y120304D01*
X80503Y119448D01*
X80247Y118494D01*
Y117813D01*
X79747Y117606D01*
X77487Y119866D01*
X77163Y120427D01*
X76427Y121163D01*
X75526Y121683D01*
X75000Y121824D01*
D02*
G37*
G36*
X518421Y90698D02*
X517579D01*
X516766Y90480D01*
X516037Y90059D01*
X515441Y89463D01*
X515020Y88734D01*
X514802Y87921D01*
Y87079D01*
X515020Y86266D01*
X515441Y85537D01*
X516037Y84941D01*
X516766Y84520D01*
X517579Y84302D01*
X518421D01*
X519234Y84520D01*
X519963Y84941D01*
X520559Y85537D01*
X520980Y86266D01*
X521198Y87079D01*
Y87921D01*
X520980Y88734D01*
X520559Y89463D01*
X519963Y90059D01*
X519234Y90480D01*
X518421Y90698D01*
D02*
G37*
G36*
X182494Y91753D02*
X181506D01*
X180552Y91497D01*
X179696Y91003D01*
X178997Y90304D01*
X178503Y89448D01*
X178247Y88494D01*
Y87506D01*
X178503Y86551D01*
X178997Y85696D01*
X179696Y84997D01*
X180552Y84503D01*
X181506Y84247D01*
X182494D01*
X183449Y84503D01*
X184304Y84997D01*
X185003Y85696D01*
X185497Y86551D01*
X185753Y87506D01*
Y88494D01*
X185497Y89448D01*
X185003Y90304D01*
X184304Y91003D01*
X183449Y91497D01*
X182494Y91753D01*
D02*
G37*
G36*
X152494D02*
X151506D01*
X150551Y91497D01*
X149696Y91003D01*
X148997Y90304D01*
X148503Y89448D01*
X148247Y88494D01*
Y87506D01*
X148503Y86551D01*
X148997Y85696D01*
X149696Y84997D01*
X150551Y84503D01*
X151506Y84247D01*
X152494D01*
X153448Y84503D01*
X154304Y84997D01*
X155003Y85696D01*
X155497Y86551D01*
X155753Y87506D01*
Y88494D01*
X155497Y89448D01*
X155003Y90304D01*
X154304Y91003D01*
X153448Y91497D01*
X152494Y91753D01*
D02*
G37*
G36*
X242351Y86587D02*
X234649D01*
Y78885D01*
X242351D01*
Y86587D01*
D02*
G37*
G36*
X521198Y80698D02*
X514802D01*
Y74302D01*
X521198D01*
Y80698D01*
D02*
G37*
G36*
X66024Y46551D02*
X62972D01*
Y43500D01*
X66024D01*
Y46551D01*
D02*
G37*
G36*
X60972D02*
X57921D01*
Y43500D01*
X60972D01*
Y46551D01*
D02*
G37*
G36*
X92007Y46351D02*
X90993D01*
X90013Y46089D01*
X89135Y45582D01*
X88418Y44865D01*
X87911Y43986D01*
X87649Y43007D01*
Y41993D01*
X87911Y41014D01*
X88418Y40135D01*
X89135Y39418D01*
X90013Y38911D01*
X90993Y38649D01*
X92007D01*
X92987Y38911D01*
X93865Y39418D01*
X94582Y40135D01*
X95089Y41014D01*
X95351Y41993D01*
Y43007D01*
X95089Y43986D01*
X94582Y44865D01*
X93865Y45582D01*
X92987Y46089D01*
X92007Y46351D01*
D02*
G37*
G36*
X66024Y41500D02*
X62972D01*
Y38449D01*
X66024D01*
Y41500D01*
D02*
G37*
G36*
X60972D02*
X57921D01*
Y38449D01*
X60972D01*
Y41500D01*
D02*
G37*
G36*
X538000Y15300D02*
X537000D01*
X536033Y15041D01*
X535167Y14541D01*
X534459Y13833D01*
X533959Y12967D01*
X533700Y12000D01*
Y11000D01*
X533959Y10033D01*
X534459Y9167D01*
X535167Y8459D01*
X536033Y7959D01*
X537000Y7700D01*
X538000D01*
X538967Y7959D01*
X539833Y8459D01*
X540541Y9167D01*
X541041Y10033D01*
X541300Y11000D01*
Y12000D01*
X541041Y12967D01*
X540541Y13833D01*
X539833Y14541D01*
X538967Y15041D01*
X538000Y15300D01*
D02*
G37*
G36*
X12000Y13800D02*
X11000D01*
X10033Y13541D01*
X9167Y13041D01*
X8459Y12333D01*
X7959Y11467D01*
X7700Y10500D01*
Y9500D01*
X7959Y8533D01*
X8459Y7667D01*
X9167Y6959D01*
X10033Y6459D01*
X11000Y6200D01*
X12000D01*
X12967Y6459D01*
X13833Y6959D01*
X14541Y7667D01*
X15041Y8533D01*
X15300Y9500D01*
Y10500D01*
X15041Y11467D01*
X14541Y12333D01*
X13833Y13041D01*
X12967Y13541D01*
X12000Y13800D01*
D02*
G37*
%LPD*%
G36*
X46837Y322847D02*
X44866Y323750D01*
Y325250D01*
X46837Y326153D01*
Y322847D01*
D02*
G37*
G36*
X33852Y324750D02*
Y323250D01*
X31207Y321837D01*
Y326163D01*
X33852Y324750D01*
D02*
G37*
G36*
X385803Y315758D02*
X384742Y314698D01*
X382030Y315547D01*
X384953Y318471D01*
X385803Y315758D01*
D02*
G37*
G36*
X195461Y311725D02*
X189555Y311811D01*
Y317717D01*
X195461Y317803D01*
Y311725D01*
D02*
G37*
G36*
X515626Y311500D02*
X514114Y312250D01*
Y313750D01*
X515626Y314500D01*
Y311500D01*
D02*
G37*
G36*
X446236Y311614D02*
X444114Y310554D01*
X443054Y311614D01*
X444114Y313736D01*
X446236Y311614D01*
D02*
G37*
G36*
X481736Y310614D02*
X479614Y309554D01*
X478554Y310614D01*
X479614Y312736D01*
X481736Y310614D01*
D02*
G37*
G36*
X254303Y310742D02*
X253453Y308030D01*
X250530Y310953D01*
X253242Y311803D01*
X254303Y310742D01*
D02*
G37*
G36*
X409891Y306433D02*
X407372Y307750D01*
Y309250D01*
X409891Y310567D01*
Y306433D01*
D02*
G37*
G36*
X28469Y299410D02*
X25599Y298538D01*
X24538Y299599D01*
X25410Y302469D01*
X28469Y299410D01*
D02*
G37*
G36*
X280470Y300953D02*
X277547Y298029D01*
X276697Y300742D01*
X277758Y301802D01*
X280470Y300953D01*
D02*
G37*
G36*
X103502Y300150D02*
X99327Y295974D01*
X94626Y300150D01*
X99327Y304850D01*
X103502Y300150D01*
D02*
G37*
G36*
X415802Y295758D02*
X414742Y294697D01*
X412030Y295547D01*
X414953Y298470D01*
X415802Y295758D01*
D02*
G37*
G36*
X385803D02*
X384742Y294697D01*
X382030Y295547D01*
X384953Y298470D01*
X385803Y295758D01*
D02*
G37*
G36*
X449658Y296097D02*
X448898Y294024D01*
X446524Y296397D01*
X448597Y297158D01*
X449658Y296097D01*
D02*
G37*
G36*
X154803Y294258D02*
X153742Y293197D01*
X151030Y294047D01*
X153953Y296971D01*
X154803Y294258D01*
D02*
G37*
G36*
X485158Y295097D02*
X484398Y293024D01*
X482024Y295397D01*
X484097Y296158D01*
X485158Y295097D01*
D02*
G37*
G36*
X328917Y293547D02*
X323012Y292961D01*
X322925Y287055D01*
X317020D01*
X316933Y292961D01*
X311028Y293047D01*
Y298953D01*
X316933Y299039D01*
Y292961D01*
X323012D01*
Y299039D01*
X328917Y299453D01*
Y293547D01*
D02*
G37*
G36*
X444788Y292322D02*
X442784Y293250D01*
Y294750D01*
X444788Y295678D01*
Y292322D01*
D02*
G37*
G36*
X481976Y290602D02*
X479903Y289842D01*
X478842Y290903D01*
X479602Y292976D01*
X481976Y290602D01*
D02*
G37*
G36*
X150970Y289953D02*
X148047Y287030D01*
X147197Y289742D01*
X148258Y290803D01*
X150970Y289953D01*
D02*
G37*
G36*
X416441Y289250D02*
Y287750D01*
X414929Y287000D01*
Y290000D01*
X416441Y289250D01*
D02*
G37*
G36*
X146488Y289277D02*
X147138Y287204D01*
X146697Y286937D01*
X141015Y292620D01*
X140502Y292963D01*
X139897Y293083D01*
X135123D01*
X134519Y292963D01*
X134006Y292620D01*
X127545Y286159D01*
X127083Y286351D01*
Y288865D01*
X126963Y289470D01*
X126620Y289983D01*
X123485Y293117D01*
X123159Y293336D01*
X123134Y293899D01*
X123304Y293997D01*
X124003Y294696D01*
X124497Y295551D01*
X124753Y296506D01*
Y297494D01*
X124497Y298448D01*
X124003Y299304D01*
X123847Y299460D01*
X124038Y299922D01*
X135843D01*
X146488Y289277D01*
D02*
G37*
G36*
X33353Y283250D02*
Y281750D01*
X30707Y280337D01*
Y284663D01*
X33353Y283250D01*
D02*
G37*
G36*
X45491Y280919D02*
X45861Y280484D01*
Y280084D01*
X46077Y279279D01*
X46493Y278558D01*
X46926Y278125D01*
X46680Y277664D01*
X46600Y277680D01*
X28755D01*
X28326Y278110D01*
X28533Y278609D01*
X29012D01*
X30002Y278875D01*
X30889Y279387D01*
X31151Y279649D01*
X33529Y280920D01*
X45395D01*
X45491Y280919D01*
D02*
G37*
G36*
X518236Y261874D02*
X516126Y259764D01*
X515054Y261886D01*
X516114Y262946D01*
X518236Y261874D01*
D02*
G37*
G36*
X31462Y258099D02*
X30401Y257038D01*
X27531Y257910D01*
X30590Y260969D01*
X31462Y258099D01*
D02*
G37*
G36*
X26983Y274983D02*
X27495Y274640D01*
X28100Y274520D01*
X45945D01*
X49920Y270545D01*
Y257162D01*
X44361D01*
Y256002D01*
X43512Y255580D01*
X35155D01*
X32174Y258561D01*
X31391Y261141D01*
Y261512D01*
X31125Y262502D01*
X30613Y263389D01*
X29889Y264113D01*
X29002Y264625D01*
X28012Y264891D01*
X26988D01*
X25998Y264625D01*
X25111Y264113D01*
X24387Y263389D01*
X23875Y262502D01*
X23640Y261625D01*
X23140Y261691D01*
Y278172D01*
X23602Y278363D01*
X26983Y274983D01*
D02*
G37*
G36*
X187780Y256032D02*
X186208Y255348D01*
X185148Y256408D01*
X185832Y257980D01*
X187780Y256032D01*
D02*
G37*
G36*
X45185Y252500D02*
X43673Y253250D01*
Y254750D01*
X45185Y255500D01*
Y252500D01*
D02*
G37*
G36*
X112024Y252338D02*
X109024D01*
X109774Y253850D01*
X111274D01*
X112024Y252338D01*
D02*
G37*
G36*
X162134Y250750D02*
Y249250D01*
X160163Y248346D01*
Y251654D01*
X162134Y250750D01*
D02*
G37*
G36*
X158453Y247638D02*
X156421Y246884D01*
X155360Y247944D01*
X156114Y249976D01*
X158453Y247638D01*
D02*
G37*
G36*
X259451Y236961D02*
X255275Y232785D01*
X249197Y236961D01*
X255275Y243039D01*
X259451Y236961D01*
D02*
G37*
G36*
X50664Y231556D02*
X49909Y229524D01*
X47571Y231862D01*
X49603Y232616D01*
X50664Y231556D01*
D02*
G37*
G36*
Y227444D02*
X49603Y226384D01*
X47571Y227138D01*
X49909Y229476D01*
X50664Y227444D01*
D02*
G37*
G36*
X108662Y219000D02*
X107150Y219750D01*
Y221250D01*
X108662Y222000D01*
Y219000D01*
D02*
G37*
G36*
X196976Y219602D02*
X194903Y218842D01*
X193842Y219903D01*
X194603Y221976D01*
X196976Y219602D01*
D02*
G37*
G36*
X99134Y205250D02*
Y203750D01*
X97163Y202847D01*
Y206153D01*
X99134Y205250D01*
D02*
G37*
G36*
X98972Y174744D02*
X96486Y173925D01*
X95425Y174986D01*
X96244Y177472D01*
X98972Y174744D01*
D02*
G37*
G36*
X31462Y174599D02*
X30401Y173538D01*
X27531Y174410D01*
X30590Y177469D01*
X31462Y174599D01*
D02*
G37*
G36*
X386580Y274032D02*
X385008Y273348D01*
X383948Y274408D01*
X384632Y275980D01*
X386580Y274032D01*
D02*
G37*
G36*
X380311Y267150D02*
X377000Y265650D01*
X375189Y267150D01*
X377750Y268211D01*
X379871D01*
X380311Y267150D01*
D02*
G37*
G36*
X481476Y262398D02*
X479103Y260024D01*
X478342Y262097D01*
X479403Y263158D01*
X481476Y262398D01*
D02*
G37*
G36*
X386302Y258758D02*
X385242Y257698D01*
X382529Y258547D01*
X385453Y261471D01*
X386302Y258758D01*
D02*
G37*
G36*
X410391Y249433D02*
X407872Y250750D01*
Y252250D01*
X410391Y253567D01*
Y249433D01*
D02*
G37*
G36*
X386302Y248758D02*
X385242Y247697D01*
X382529Y248547D01*
X385453Y251470D01*
X386302Y248758D01*
D02*
G37*
G36*
X518476Y241898D02*
X516103Y239524D01*
X515342Y241597D01*
X516403Y242658D01*
X518476Y241898D01*
D02*
G37*
G36*
X412470Y238547D02*
X409758Y237698D01*
X408698Y238758D01*
X409547Y241471D01*
X412470Y238547D01*
D02*
G37*
G36*
X315874Y238250D02*
Y236750D01*
X314362Y236000D01*
Y239000D01*
X315874Y238250D01*
D02*
G37*
G36*
X408650Y235089D02*
X407150Y233589D01*
X406089Y234029D01*
X407370Y237430D01*
X409711Y237650D01*
X408650Y235089D01*
D02*
G37*
G36*
X416941Y232250D02*
Y230750D01*
X415429Y230000D01*
Y233000D01*
X416941Y232250D01*
D02*
G37*
G36*
X488476Y206398D02*
X486102Y204024D01*
X485342Y206097D01*
X486403Y207158D01*
X488476Y206398D01*
D02*
G37*
G36*
X492216Y204750D02*
Y203250D01*
X490212Y202322D01*
Y205678D01*
X492216Y204750D01*
D02*
G37*
G36*
X242916Y188619D02*
X242051Y185794D01*
X239031Y188815D01*
X241856Y189680D01*
X242916Y188619D01*
D02*
G37*
G36*
X520236Y186874D02*
X518126Y184764D01*
X517054Y186886D01*
X518114Y187946D01*
X520236Y186874D01*
D02*
G37*
G36*
X488236Y186374D02*
X486126Y184264D01*
X485054Y186386D01*
X486114Y187446D01*
X488236Y186374D01*
D02*
G37*
G36*
X453288Y202322D02*
X451284Y203250D01*
Y204750D01*
X453288Y205678D01*
Y202322D01*
D02*
G37*
G36*
X243100Y159275D02*
X242027Y157154D01*
X239918Y159263D01*
X242039Y160336D01*
X243100Y159275D01*
D02*
G37*
G36*
X108972Y174744D02*
X106486Y173925D01*
X105425Y174986D01*
X106244Y177472D01*
X108972Y174744D01*
D02*
G37*
G36*
X389951Y177461D02*
X385775Y173285D01*
X379697Y177461D01*
X385775Y183539D01*
X389951Y177461D01*
D02*
G37*
G36*
X125920Y174756D02*
X121744Y170580D01*
X116256Y174756D01*
X121744Y180244D01*
X125920Y174756D01*
D02*
G37*
G36*
X417324Y166698D02*
X417133Y166236D01*
X402353D01*
X390529Y178060D01*
X387082Y183078D01*
X387314Y183521D01*
X400501D01*
X417324Y166698D01*
D02*
G37*
G36*
X398893Y159173D02*
X399806Y158795D01*
X400785Y158666D01*
X429947D01*
X437567Y151045D01*
X437376Y150583D01*
X406594D01*
X397757Y159420D01*
X398109Y159774D01*
X398893Y159173D01*
D02*
G37*
G36*
X435750Y140059D02*
X434250D01*
X433500Y141559D01*
X436500D01*
X435750Y140059D01*
D02*
G37*
G36*
X528953Y129862D02*
X526614Y127524D01*
X525860Y129556D01*
X526921Y130616D01*
X528953Y129862D01*
D02*
G37*
G36*
X416266Y126347D02*
X414295Y127250D01*
Y128750D01*
X416266Y129654D01*
Y126347D01*
D02*
G37*
G36*
X438802Y127242D02*
X437953Y124530D01*
X435030Y127453D01*
X437742Y128303D01*
X438802Y127242D01*
D02*
G37*
G36*
X446789Y141823D02*
X447573Y141222D01*
X448486Y140844D01*
X449465Y140715D01*
X465000D01*
X465246Y140747D01*
X465494D01*
X465734Y140812D01*
X465980Y140844D01*
X466209Y140939D01*
X466448Y141003D01*
X466663Y141127D01*
X466893Y141222D01*
X467089Y141373D01*
X467304Y141497D01*
X467480Y141673D01*
X467676Y141823D01*
X470662Y144809D01*
X471124Y144617D01*
Y116493D01*
X469215Y114585D01*
X468753Y114776D01*
Y114994D01*
X468497Y115948D01*
X468003Y116804D01*
X467304Y117503D01*
X466448Y117997D01*
X465494Y118253D01*
X464506D01*
X463552Y117997D01*
X462696Y117503D01*
X461997Y116804D01*
X461503Y115948D01*
X461247Y114994D01*
Y114006D01*
X461503Y113051D01*
X461997Y112196D01*
X462696Y111497D01*
X463552Y111003D01*
X464506Y110747D01*
X465494D01*
X466448Y111003D01*
X466991Y111316D01*
X466998Y111316D01*
X467479Y111020D01*
Y76809D01*
X467421Y72851D01*
X467413D01*
Y72298D01*
X463471Y66560D01*
X453991Y57080D01*
X408540D01*
X408349Y57542D01*
X408503Y57696D01*
X408997Y58552D01*
X409253Y59506D01*
Y60494D01*
X408997Y61449D01*
X408503Y62304D01*
X407804Y63003D01*
X406949Y63497D01*
X405994Y63753D01*
X405006D01*
X404051Y63497D01*
X403196Y63003D01*
X403042Y62849D01*
X402580Y63040D01*
Y66960D01*
X403042Y67151D01*
X403196Y66997D01*
X404051Y66503D01*
X405006Y66247D01*
X405994D01*
X406949Y66503D01*
X407804Y66997D01*
X408503Y67696D01*
X408997Y68551D01*
X409253Y69506D01*
Y69855D01*
X410011Y72277D01*
X411120Y73385D01*
X411463Y73898D01*
X411583Y74503D01*
Y81865D01*
X411463Y82470D01*
X411120Y82983D01*
X408483Y85620D01*
X407970Y85963D01*
X407365Y86083D01*
X407221D01*
X407087Y86583D01*
X407804Y86997D01*
X408503Y87696D01*
X408997Y88551D01*
X409253Y89506D01*
Y89724D01*
X409715Y89915D01*
X433269Y66361D01*
X434053Y65760D01*
X434966Y65381D01*
X435945Y65253D01*
X440125D01*
X440172Y65225D01*
X440736Y65074D01*
Y69000D01*
X441736D01*
Y70000D01*
X445662D01*
X445521Y70526D01*
Y107764D01*
X445392Y108744D01*
X445014Y109656D01*
X444413Y110440D01*
X438487Y116366D01*
X438163Y116927D01*
X437427Y117663D01*
X436526Y118183D01*
X436000Y118324D01*
Y114500D01*
X435000D01*
Y113500D01*
X431176D01*
X431317Y112974D01*
X431837Y112073D01*
X432573Y111337D01*
X433134Y111013D01*
X437951Y106196D01*
Y72973D01*
X437451Y72885D01*
X410954Y99382D01*
X410170Y99984D01*
X409635Y100205D01*
X409257Y100362D01*
X408278Y100491D01*
X402723D01*
X401743Y100362D01*
X401365Y100205D01*
X400830Y99984D01*
X400046Y99382D01*
X386435Y85771D01*
X385833Y84987D01*
X385612Y84452D01*
X385455Y84074D01*
X385326Y83094D01*
Y75179D01*
X379753Y69606D01*
X379253Y69813D01*
Y70494D01*
X378997Y71448D01*
X378503Y72304D01*
X377804Y73003D01*
X376948Y73497D01*
X375994Y73753D01*
X375006D01*
X374051Y73497D01*
X373196Y73003D01*
X372497Y72304D01*
X372003Y71448D01*
X371747Y70494D01*
Y69506D01*
X372003Y68551D01*
X372497Y67696D01*
X373196Y66997D01*
X374051Y66503D01*
X375006Y66247D01*
X375687D01*
X375894Y65747D01*
X373634Y63487D01*
X373073Y63163D01*
X372337Y62427D01*
X371817Y61526D01*
X371676Y61000D01*
X375500D01*
Y60000D01*
X376500D01*
Y56176D01*
X377026Y56317D01*
X377927Y56837D01*
X378663Y57573D01*
X378987Y58134D01*
X391788Y70935D01*
X392211Y71487D01*
X392711Y71317D01*
Y59446D01*
X384593Y51328D01*
X214248D01*
X213643Y51208D01*
X213130Y50865D01*
X209615Y47350D01*
X207837Y46698D01*
X207579D01*
X206766Y46480D01*
X206037Y46059D01*
X205854Y45877D01*
X204136Y45080D01*
X188019D01*
X171064Y45484D01*
X170198Y45935D01*
Y47198D01*
X163802D01*
Y41080D01*
X159299D01*
X159102Y41580D01*
X159559Y42037D01*
X159980Y42766D01*
X160198Y43579D01*
Y44421D01*
X159980Y45234D01*
X159559Y45963D01*
X158963Y46559D01*
X158234Y46980D01*
X157421Y47198D01*
X156579D01*
X155766Y46980D01*
X155037Y46559D01*
X154441Y45963D01*
X154020Y45234D01*
X153802Y44421D01*
Y43579D01*
X154020Y42766D01*
X154441Y42037D01*
X154897Y41580D01*
X154701Y41080D01*
X149299D01*
X149102Y41580D01*
X149559Y42037D01*
X149980Y42766D01*
X150198Y43579D01*
Y44421D01*
X149980Y45234D01*
X149559Y45963D01*
X148963Y46559D01*
X148234Y46980D01*
X147421Y47198D01*
X146579D01*
X145766Y46980D01*
X145037Y46559D01*
X144441Y45963D01*
X144020Y45234D01*
X143802Y44421D01*
Y43579D01*
X144020Y42766D01*
X144441Y42037D01*
X144897Y41580D01*
X144701Y41080D01*
X119355D01*
X80980Y79455D01*
Y85005D01*
X81480Y85212D01*
X81696Y84997D01*
X82551Y84503D01*
X83506Y84247D01*
X83855D01*
X86277Y83489D01*
X92383Y77382D01*
X92895Y77040D01*
X93500Y76920D01*
X104500D01*
X105105Y77040D01*
X105617Y77382D01*
X111723Y83489D01*
X114000Y84202D01*
X116277Y83489D01*
X127182Y72583D01*
X127695Y72240D01*
X128300Y72120D01*
X348900D01*
X349505Y72240D01*
X350017Y72583D01*
X371289Y93854D01*
X371747Y93605D01*
Y86247D01*
X378805D01*
X379012Y85747D01*
X377777Y84512D01*
X375355Y83753D01*
X375006D01*
X374051Y83497D01*
X373196Y83003D01*
X372497Y82304D01*
X372003Y81449D01*
X371747Y80494D01*
Y79506D01*
X372003Y78552D01*
X372497Y77696D01*
X373196Y76997D01*
X374051Y76503D01*
X375006Y76247D01*
X375994D01*
X376948Y76503D01*
X377804Y76997D01*
X378503Y77696D01*
X378997Y78552D01*
X379253Y79506D01*
Y79855D01*
X380012Y82276D01*
X430998Y133263D01*
X431481Y133134D01*
X431503Y133052D01*
X431997Y132196D01*
X432696Y131497D01*
X433552Y131003D01*
X434506Y130747D01*
X435494D01*
X436448Y131003D01*
X437304Y131497D01*
X437461Y131653D01*
X437922Y131462D01*
Y129657D01*
X437277Y129011D01*
X434855Y128253D01*
X434506D01*
X433552Y127997D01*
X432696Y127503D01*
X431997Y126804D01*
X431503Y125949D01*
X431247Y124994D01*
Y124006D01*
X431503Y123052D01*
X431997Y122196D01*
X432696Y121497D01*
X433552Y121003D01*
X434506Y120747D01*
X435494D01*
X436448Y121003D01*
X437304Y121497D01*
X438003Y122196D01*
X438497Y123052D01*
X438753Y124006D01*
Y124355D01*
X439511Y126777D01*
X440620Y127885D01*
X440963Y128398D01*
X441083Y129003D01*
Y146876D01*
X441545Y147067D01*
X446789Y141823D01*
D02*
G37*
G36*
X56129Y133787D02*
X55264Y124571D01*
X51088Y120395D01*
X45207Y122865D01*
X46047Y129612D01*
X51953Y135517D01*
X56129Y133787D01*
D02*
G37*
G36*
X66643Y105956D02*
X72548Y100050D01*
X70819Y95874D01*
X61602Y96739D01*
X57426Y100915D01*
X56561Y110131D01*
X66643Y105956D01*
D02*
G37*
G36*
X65040Y92124D02*
X64781Y91676D01*
X64494Y91753D01*
X64145D01*
X61724Y92511D01*
X44372Y109863D01*
Y112085D01*
X44872Y112292D01*
X65040Y92124D01*
D02*
G37*
G36*
X112521Y98756D02*
X106277Y92511D01*
X103855Y91753D01*
X103506D01*
X102551Y91497D01*
X101696Y91003D01*
X101449Y90756D01*
X99200Y89580D01*
X98800D01*
X96551Y90756D01*
X96304Y91003D01*
X95448Y91497D01*
X94494Y91753D01*
X94145D01*
X91724Y92511D01*
X90517Y93717D01*
X90005Y94060D01*
X89400Y94180D01*
X81800D01*
X81195Y94060D01*
X80682Y93717D01*
X78282Y91317D01*
X77940Y90805D01*
X77848Y90341D01*
X77334Y90275D01*
X77278Y90409D01*
X76676Y91193D01*
X71788Y96082D01*
X73086Y99218D01*
X112329D01*
X112521Y98756D01*
D02*
G37*
G36*
X161970Y90953D02*
X159047Y88029D01*
X158197Y90742D01*
X159258Y91803D01*
X161970Y90953D01*
D02*
G37*
G36*
X107802Y90742D02*
X106953Y88029D01*
X104030Y90953D01*
X106742Y91803D01*
X107802Y90742D01*
D02*
G37*
G36*
X93971Y90953D02*
X91047Y88029D01*
X90197Y90742D01*
X91258Y91803D01*
X93971Y90953D01*
D02*
G37*
G36*
X63971D02*
X61047Y88029D01*
X60198Y90742D01*
X61258Y91803D01*
X63971Y90953D01*
D02*
G37*
G36*
X415833Y125647D02*
X416011Y125470D01*
X416732Y125053D01*
X417425Y124868D01*
X417652Y124387D01*
X379753Y86488D01*
X379253Y86695D01*
Y93753D01*
X371895D01*
X371646Y94211D01*
X403855Y126420D01*
X414149D01*
X415833Y125647D01*
D02*
G37*
G36*
X101891Y85933D02*
X99372Y87250D01*
Y88750D01*
X101891Y90067D01*
Y85933D01*
D02*
G37*
G36*
X98628Y88750D02*
Y87250D01*
X96109Y85933D01*
Y90067D01*
X98628Y88750D01*
D02*
G37*
G36*
X117803Y85258D02*
X116742Y84197D01*
X114030Y85047D01*
X116953Y87971D01*
X117803Y85258D01*
D02*
G37*
G36*
X113970Y85047D02*
X111258Y84197D01*
X110197Y85258D01*
X111047Y87971D01*
X113970Y85047D01*
D02*
G37*
G36*
X87802Y85258D02*
X86742Y84197D01*
X84030Y85047D01*
X86953Y87971D01*
X87802Y85258D01*
D02*
G37*
G36*
X379303Y82742D02*
X378453Y80029D01*
X375530Y82953D01*
X378242Y83802D01*
X379303Y82742D01*
D02*
G37*
G36*
X401747Y89724D02*
Y89506D01*
X402003Y88551D01*
X402497Y87696D01*
X403196Y86997D01*
X403913Y86583D01*
X403779Y86083D01*
X403635D01*
X403030Y85963D01*
X402517Y85620D01*
X393396Y76499D01*
X392896Y76706D01*
Y81526D01*
X401285Y89915D01*
X401747Y89724D01*
D02*
G37*
G36*
X409303Y72742D02*
X408453Y70029D01*
X405529Y72953D01*
X408242Y73803D01*
X409303Y72742D01*
D02*
G37*
G36*
X474303Y72039D02*
X468225D01*
X474303Y65961D01*
X468225Y61785D01*
X464049Y65961D01*
X468225Y72039D01*
X468311Y77945D01*
X474217D01*
X474303Y72039D01*
D02*
G37*
G36*
X222123Y47706D02*
X220883Y46465D01*
X220635Y46095D01*
X220069Y45953D01*
X219963Y46059D01*
X219234Y46480D01*
X218421Y46698D01*
X217579D01*
X216766Y46480D01*
X216037Y46059D01*
X215441Y45463D01*
X215020Y44734D01*
X214802Y43921D01*
Y43079D01*
X215020Y42266D01*
X215416Y41580D01*
X215327Y41262D01*
X215252Y41080D01*
X210748D01*
X210673Y41262D01*
X210584Y41580D01*
X210980Y42266D01*
X211198Y43079D01*
Y43337D01*
X211850Y45115D01*
X214902Y48167D01*
X221931D01*
X222123Y47706D01*
D02*
G37*
G36*
X268927Y47328D02*
X267172Y45573D01*
X266522Y46918D01*
X267583Y47978D01*
X268927Y47328D01*
D02*
G37*
G36*
X211158Y45597D02*
X210398Y43524D01*
X208024Y45897D01*
X210097Y46658D01*
X211158Y45597D01*
D02*
G37*
G36*
X170885Y44658D02*
Y43157D01*
X169374Y42443D01*
Y45444D01*
X170885Y44658D01*
D02*
G37*
G36*
X206288Y41822D02*
X204284Y42750D01*
Y44250D01*
X206288Y45178D01*
Y41822D01*
D02*
G37*
G36*
X286302Y44936D02*
X285404Y43139D01*
X274345Y32080D01*
X241655D01*
X232096Y41639D01*
X231198Y43436D01*
Y45867D01*
X266038D01*
X266309Y45444D01*
X266302Y45421D01*
Y44579D01*
X266520Y43766D01*
X266941Y43037D01*
X267537Y42441D01*
X268266Y42020D01*
X269079Y41802D01*
X269921D01*
X270734Y42020D01*
X271463Y42441D01*
X272059Y43037D01*
X272480Y43766D01*
X272698Y44579D01*
Y45421D01*
X272480Y46234D01*
X272059Y46963D01*
X271463Y47559D01*
X271275Y47667D01*
X271409Y48167D01*
X277591D01*
X277725Y47667D01*
X277537Y47559D01*
X276941Y46963D01*
X276520Y46234D01*
X276302Y45421D01*
Y44579D01*
X276520Y43766D01*
X276941Y43037D01*
X277537Y42441D01*
X278266Y42020D01*
X279079Y41802D01*
X279921D01*
X280734Y42020D01*
X281463Y42441D01*
X282059Y43037D01*
X282480Y43766D01*
X282698Y44579D01*
Y45421D01*
X282480Y46234D01*
X282059Y46963D01*
X281463Y47559D01*
X281275Y47667D01*
X281409Y48167D01*
X286302D01*
Y44936D01*
D02*
G37*
G36*
X289236Y42614D02*
X287114Y41554D01*
X286054Y42614D01*
X287114Y44736D01*
X289236Y42614D01*
D02*
G37*
G36*
X187962Y41920D02*
X187981Y41923D01*
X188000Y41920D01*
X204136D01*
X204868Y41580D01*
X204758Y41080D01*
X170198D01*
Y41930D01*
X171029Y42323D01*
X187962Y41920D01*
D02*
G37*
G36*
X231446Y41114D02*
X230386Y40054D01*
X228264Y41114D01*
X230386Y43236D01*
X231446Y41114D01*
D02*
G37*
%LPC*%
G36*
X465494Y138253D02*
X464506D01*
X463552Y137997D01*
X462696Y137503D01*
X461997Y136804D01*
X461503Y135949D01*
X461247Y134994D01*
Y134006D01*
X461503Y133052D01*
X461997Y132196D01*
X462696Y131497D01*
X463552Y131003D01*
X464506Y130747D01*
X465494D01*
X466448Y131003D01*
X467304Y131497D01*
X468003Y132196D01*
X468497Y133052D01*
X468753Y134006D01*
Y134994D01*
X468497Y135949D01*
X468003Y136804D01*
X467304Y137503D01*
X466448Y137997D01*
X465494Y138253D01*
D02*
G37*
G36*
Y128253D02*
X464506D01*
X463552Y127997D01*
X462696Y127503D01*
X461997Y126804D01*
X461503Y125949D01*
X461247Y124994D01*
Y124006D01*
X461503Y123052D01*
X461997Y122196D01*
X462696Y121497D01*
X463552Y121003D01*
X464506Y120747D01*
X465494D01*
X466448Y121003D01*
X467304Y121497D01*
X468003Y122196D01*
X468497Y123052D01*
X468753Y124006D01*
Y124994D01*
X468497Y125949D01*
X468003Y126804D01*
X467304Y127503D01*
X466448Y127997D01*
X465494Y128253D01*
D02*
G37*
G36*
X434000Y118324D02*
X433474Y118183D01*
X432573Y117663D01*
X431837Y116927D01*
X431317Y116026D01*
X431176Y115500D01*
X434000D01*
Y118324D01*
D02*
G37*
G36*
X445662Y68000D02*
X442736D01*
Y65074D01*
X443300Y65225D01*
X444224Y65758D01*
X444978Y66513D01*
X445511Y67436D01*
X445662Y68000D01*
D02*
G37*
G36*
X374500Y59000D02*
X371676D01*
X371817Y58474D01*
X372337Y57573D01*
X373073Y56837D01*
X373974Y56317D01*
X374500Y56176D01*
Y59000D01*
D02*
G37*
%LPD*%
D17*
X471264Y69000D02*
D03*
X252236Y240000D02*
D03*
X319972Y296000D02*
D03*
X382736Y180500D02*
D03*
X179764Y171500D02*
D03*
X61972Y42500D02*
D03*
X344264Y95000D02*
D03*
D18*
X441736Y69000D02*
D03*
X198500Y285236D02*
D03*
X281764Y240000D02*
D03*
X349500Y296000D02*
D03*
X317500Y156236D02*
D03*
X412264Y180500D02*
D03*
X239000Y185764D02*
D03*
X150236Y171500D02*
D03*
X238500Y112264D02*
D03*
X91500Y42500D02*
D03*
X314736Y95000D02*
D03*
D19*
X27500Y156000D02*
D03*
Y177500D02*
D03*
X27000Y235000D02*
D03*
Y211500D02*
D03*
X27500Y261000D02*
D03*
X28500Y282500D02*
D03*
Y302500D02*
D03*
X29000Y324000D02*
D03*
D20*
X96476Y324500D02*
D03*
X111000Y220500D02*
D03*
X96976Y280500D02*
D03*
X95500Y229500D02*
D03*
X110524Y250000D02*
D03*
X47524Y204500D02*
D03*
Y254000D02*
D03*
X312024Y237500D02*
D03*
X370000Y128000D02*
D03*
X96976Y302500D02*
D03*
X528476Y152000D02*
D03*
X481024Y127500D02*
D03*
D21*
X48524Y324500D02*
D03*
X158953Y220500D02*
D03*
X49024Y280500D02*
D03*
X47547Y229500D02*
D03*
X158476Y250000D02*
D03*
X95476Y204500D02*
D03*
Y254000D02*
D03*
X359976Y237500D02*
D03*
X417953Y128000D02*
D03*
X49024Y302500D02*
D03*
X480524Y152000D02*
D03*
X528976Y127500D02*
D03*
D22*
X198500Y314764D02*
D03*
X317500Y185764D02*
D03*
X239000Y156236D02*
D03*
X238500Y82736D02*
D03*
D33*
X389111Y83094D02*
X402723Y96706D01*
X389111Y73611D02*
Y83094D01*
X375500Y60000D02*
X389111Y73611D01*
X398795Y73295D02*
X405500Y80000D01*
X398795Y57222D02*
Y73295D01*
Y57222D02*
X402723Y53294D01*
X455558D01*
X471264Y69000D01*
X441699Y69038D02*
X441736Y69000D01*
X435945Y69038D02*
X441699D01*
X408278Y96706D02*
X435945Y69038D01*
X402723Y96706D02*
X408278D01*
X441736Y69000D02*
Y107764D01*
X431515Y162451D02*
X449465Y144500D01*
X435000Y114500D02*
X441736Y107764D01*
X400785Y162451D02*
X431515D01*
X449465Y144500D02*
X465000D01*
X474909Y146385D02*
X480524Y152000D01*
X474909Y114926D02*
Y146385D01*
X471264Y69000D02*
Y111281D01*
X474909Y114926D01*
X152000Y118000D02*
X158705Y111294D01*
X204342D01*
X205311Y112264D01*
X238500D01*
X79000Y177500D02*
Y183055D01*
X27055Y235000D02*
X79000Y183055D01*
X27000Y235000D02*
X27055D01*
X74000Y118000D02*
X80705Y111294D01*
X116778D01*
X123483Y118000D01*
X152000D01*
X238500Y112264D02*
X255764Y95000D01*
X314736D01*
X112476Y287000D02*
X121000D01*
X96976Y302500D02*
X112476Y287000D01*
X119000Y177500D02*
X125509Y170991D01*
X47295Y120777D02*
X59308Y132791D01*
X113495D01*
X47295Y115223D02*
Y120777D01*
Y115223D02*
X59514Y103003D01*
X156997D01*
X172000Y88000D01*
X113495Y132791D02*
X125509Y144804D01*
Y170991D01*
X47295Y120777D02*
X49000Y122483D01*
X47295Y115223D02*
Y120777D01*
X49000Y122483D02*
Y147500D01*
X74000Y88000D02*
Y88517D01*
X47295Y115223D02*
X74000Y88517D01*
X382736Y180500D02*
X400785Y162451D01*
X472500Y152000D02*
X480524D01*
X465000Y144500D02*
X472500Y152000D01*
X339378Y296500D02*
X347378Y288500D01*
X382000D01*
X321500Y296500D02*
X339378D01*
X321000Y296000D02*
X321500Y296500D01*
X319972Y296000D02*
X321000D01*
X284582Y233196D02*
X319972Y268586D01*
X252236Y240000D02*
X259040Y233196D01*
X319972Y268586D02*
Y296000D01*
X259040Y233196D02*
X284582D01*
X305286Y296000D02*
X319972D01*
X290581Y281294D02*
X305286Y296000D01*
X275993Y281294D02*
X290581D01*
X258293Y298994D02*
X275993Y281294D01*
X251000Y298994D02*
X258293D01*
X250500Y298495D02*
X251000Y298994D01*
X250500Y298000D02*
Y298495D01*
X173632Y317000D02*
X175868Y314764D01*
X198500D01*
X151000Y317000D02*
X173632D01*
X132213D02*
X151000D01*
X125507Y323706D02*
X132213Y317000D01*
X97294Y323706D02*
X125507D01*
X96500Y324500D02*
X97294Y323706D01*
X96476Y324500D02*
X96500D01*
D34*
X385248Y49748D02*
X394292Y58792D01*
Y75160D02*
X403635Y84503D01*
X405500Y70000D02*
X410003Y74503D01*
X403635Y84503D02*
X407365D01*
X410003Y81865D01*
X394292Y58792D02*
Y75160D01*
X410003Y74503D02*
Y81865D01*
X214248Y49748D02*
X385248D01*
X378135Y176807D02*
Y184193D01*
Y176807D02*
X405939Y149003D01*
X438595D01*
X419303Y166954D02*
X489523D01*
X438595Y149003D02*
X439503Y148095D01*
X379043Y185101D02*
X401156D01*
X439503Y129003D02*
Y148095D01*
X378135Y184193D02*
X379043Y185101D01*
X401156D02*
X419303Y166954D01*
X489523D02*
X528976Y127500D01*
X128300Y73700D02*
X348900D01*
X403200Y128000D01*
X375500Y80000D02*
X435000Y139500D01*
X403200Y128000D02*
X417953D01*
X208000Y43500D02*
X214248Y49748D01*
X114000Y88000D02*
X128300Y73700D01*
X435000Y124500D02*
X439503Y129003D01*
X27500Y177500D02*
X32003Y172997D01*
X94497D01*
X67975Y200588D02*
X175588D01*
X28922Y239640D02*
X67975Y200588D01*
X21559Y240519D02*
Y295559D01*
X175588Y200588D02*
X197000Y222000D01*
X94497Y172997D02*
X99000Y177500D01*
X22438Y239640D02*
X28922D01*
X21559Y240519D02*
X22438Y239640D01*
X116497Y298865D02*
X119135Y301503D01*
X116497Y295135D02*
Y298865D01*
X119632Y292000D02*
X122368D01*
X99981Y284412D02*
X101896Y282497D01*
X136497Y301503D02*
X151000Y287000D01*
X28500Y282500D02*
X45491D01*
X122368Y292000D02*
X125503Y288865D01*
X116497Y295135D02*
X119632Y292000D01*
X110524Y250000D02*
Y266903D01*
X47403Y284412D02*
X99981D01*
X101896Y282497D02*
X122865D01*
X135123Y291503D02*
X139897D01*
X122865Y282497D02*
X125503Y285135D01*
X45491Y282500D02*
X47403Y284412D01*
X125503Y285135D02*
Y288865D01*
X110524Y266903D02*
X135123Y291503D01*
X119135Y301503D02*
X136497D01*
X139897Y291503D02*
X148903Y282497D01*
X153497D01*
X155600Y284600D02*
Y292400D01*
X153497Y282497D02*
X155600Y284600D01*
X151000Y297000D02*
X155600Y292400D01*
X151500Y98500D02*
X162000Y88000D01*
X104000D02*
X114500Y98500D01*
X151500D01*
X42792Y148092D02*
X46703Y152003D01*
X42792Y109208D02*
X64000Y88000D01*
X42792Y109208D02*
Y148092D01*
X46703Y152003D02*
X83503D01*
X109000Y177500D01*
X377000Y266400D02*
X386600Y276000D01*
X286764Y204000D02*
X455000D01*
X239000Y156236D02*
X286764Y204000D01*
X392000Y221000D02*
X407900Y236900D01*
X239000Y185764D02*
X274236Y221000D01*
X392000D01*
X362300Y266400D02*
X377000D01*
X475100D01*
X333400Y237500D02*
X362300Y266400D01*
X312024Y237500D02*
X333400D01*
X475100Y266400D02*
X481500Y260000D01*
X410400Y224400D02*
X448100D01*
X488500Y184000D01*
X236603Y303497D02*
X275003D01*
X280500Y298000D01*
X211097Y329003D02*
X236603Y303497D01*
X65762Y329003D02*
X211097D01*
X23859Y287100D02*
X65762Y329003D01*
X407900Y236900D02*
X412500Y241500D01*
X435000Y139500D02*
Y144500D01*
X392500Y251500D02*
X412500D01*
X382500Y261500D02*
X392500Y251500D01*
X392000Y308500D02*
X412000D01*
X382000Y318500D02*
X392000Y308500D01*
X34500Y254000D02*
X47524D01*
X27500Y261000D02*
X34500Y254000D01*
X47547Y229500D02*
X56547Y220500D01*
X111000D01*
X436400Y303900D02*
X446500Y314000D01*
X330500Y303900D02*
X436400D01*
X321400Y313000D02*
X330500Y303900D01*
X255500Y313000D02*
X321400D01*
X250500Y308000D02*
X255500Y313000D01*
X412000Y288500D02*
X477500D01*
X482000Y293000D01*
X416500Y294000D02*
X446500D01*
X412000Y298500D02*
X416500Y294000D01*
X501000Y204000D02*
X520500Y184500D01*
X488500Y204000D02*
X501000D01*
X188000Y43500D02*
X208000D01*
X167000Y44000D02*
X188000Y43500D01*
X21559Y295559D02*
X28500Y302500D01*
X23859Y280341D02*
Y287100D01*
Y280341D02*
X28100Y276100D01*
X46600D01*
X51500Y271200D01*
Y233453D02*
Y271200D01*
X47547Y229500D02*
X51500Y233453D01*
X179800Y250000D02*
X187800Y258000D01*
X158476Y250000D02*
X179800D01*
X267052Y47448D02*
X269500Y45000D01*
X224100Y47448D02*
X267052D01*
X222000Y45348D02*
X224100Y47448D01*
X222000Y41700D02*
Y45348D01*
X219800Y39500D02*
X222000Y41700D01*
X118700Y39500D02*
X219800D01*
X79400Y78800D02*
X118700Y39500D01*
X79400Y78800D02*
Y90200D01*
X81800Y92600D01*
X89400D01*
X94000Y88000D01*
X407900Y226900D02*
X410400Y224400D01*
X407900Y226900D02*
Y236900D01*
X228000Y43500D02*
X241000Y30500D01*
X275000D01*
X289500Y45000D01*
X95476Y204500D02*
X112976D01*
X158476Y250000D01*
X502000Y313000D02*
X518000D01*
X482000Y293000D02*
X502000Y313000D01*
X446500Y294000D02*
X453500Y301000D01*
X470000D01*
X482000Y313000D01*
X412500Y231500D02*
X461000D01*
X488500Y204000D01*
X382000Y298500D02*
X404000Y276500D01*
X501500D01*
X518500Y259500D01*
X512500Y245500D02*
X518500Y239500D01*
X448800Y245500D02*
X512500D01*
X447400Y246900D02*
X448800Y245500D01*
X387100Y246900D02*
X447400D01*
X382500Y251500D02*
X387100Y246900D01*
X84000Y88000D02*
X93500Y78500D01*
X104500D01*
X114000Y88000D01*
X94000D02*
X104000D01*
X39000Y324500D02*
X48524D01*
X38500Y324000D02*
X39000Y324500D01*
X29000Y324000D02*
X38500D01*
D35*
X12000Y342500D02*
D03*
X540000D02*
D03*
X537500Y11500D02*
D03*
X11500Y10000D02*
D03*
D36*
X121000Y317000D02*
D03*
X412000Y288500D02*
D03*
X280500Y288000D02*
D03*
X412500Y231500D02*
D03*
X375500Y90000D02*
D03*
X435000Y144500D02*
D03*
D37*
X121000Y307000D02*
D03*
Y297000D02*
D03*
Y287000D02*
D03*
X151000Y317000D02*
D03*
Y307000D02*
D03*
Y297000D02*
D03*
Y287000D02*
D03*
X412000Y298500D02*
D03*
Y308500D02*
D03*
Y318500D02*
D03*
X382000Y288500D02*
D03*
Y298500D02*
D03*
Y308500D02*
D03*
Y318500D02*
D03*
X280500Y298000D02*
D03*
Y308000D02*
D03*
Y318000D02*
D03*
X250500Y288000D02*
D03*
Y298000D02*
D03*
Y308000D02*
D03*
Y318000D02*
D03*
X412500Y241500D02*
D03*
Y251500D02*
D03*
Y261500D02*
D03*
X382500Y231500D02*
D03*
Y241500D02*
D03*
Y251500D02*
D03*
Y261500D02*
D03*
X64000Y88000D02*
D03*
X74000D02*
D03*
X84000D02*
D03*
X94000D02*
D03*
X104000D02*
D03*
X114000D02*
D03*
X54000Y118000D02*
D03*
X64000D02*
D03*
X74000D02*
D03*
X84000D02*
D03*
X94000D02*
D03*
X104000D02*
D03*
X114000D02*
D03*
X375500Y80000D02*
D03*
Y70000D02*
D03*
Y60000D02*
D03*
X405500Y90000D02*
D03*
Y80000D02*
D03*
Y70000D02*
D03*
Y60000D02*
D03*
X172000Y118000D02*
D03*
X162000D02*
D03*
X152000D02*
D03*
X182000Y88000D02*
D03*
X172000D02*
D03*
X162000D02*
D03*
X152000D02*
D03*
X435000Y134500D02*
D03*
Y124500D02*
D03*
Y114500D02*
D03*
X465000Y144500D02*
D03*
Y134500D02*
D03*
Y124500D02*
D03*
Y114500D02*
D03*
D38*
X482000Y313000D02*
D03*
X197000Y242000D02*
D03*
X446500Y314000D02*
D03*
X518000Y313000D02*
D03*
X481500Y240000D02*
D03*
X518500Y259500D02*
D03*
X488500Y184000D02*
D03*
X455000D02*
D03*
X520500Y184500D02*
D03*
X518000Y77500D02*
D03*
D39*
X482000Y303000D02*
D03*
Y293000D02*
D03*
X197000Y232000D02*
D03*
Y222000D02*
D03*
X446500Y304000D02*
D03*
Y294000D02*
D03*
X518000Y303000D02*
D03*
Y293000D02*
D03*
X481500Y250000D02*
D03*
Y260000D02*
D03*
X518500Y249500D02*
D03*
Y239500D02*
D03*
X488500Y194000D02*
D03*
Y204000D02*
D03*
X455000Y194000D02*
D03*
Y204000D02*
D03*
X520500Y194500D02*
D03*
Y204500D02*
D03*
X279500Y45000D02*
D03*
X269500D02*
D03*
X518000Y87500D02*
D03*
Y97500D02*
D03*
X218000Y43500D02*
D03*
X208000D02*
D03*
X157000Y44000D02*
D03*
X147000D02*
D03*
D40*
X289500Y45000D02*
D03*
X228000Y43500D02*
D03*
X167000Y44000D02*
D03*
D41*
X54000Y88000D02*
D03*
X182000Y118000D02*
D03*
D42*
X49000Y147500D02*
D03*
X59000D02*
D03*
X69000D02*
D03*
X79000D02*
D03*
X89000D02*
D03*
X99000D02*
D03*
X109000D02*
D03*
X119000D02*
D03*
X49000Y177500D02*
D03*
X59000D02*
D03*
X69000D02*
D03*
X79000D02*
D03*
X89000D02*
D03*
X99000D02*
D03*
X109000D02*
D03*
D43*
X119000D02*
D03*
D44*
X522921Y326941D02*
D03*
Y232453D02*
D03*
Y169461D02*
D03*
Y106468D02*
D03*
Y43476D02*
D03*
Y11980D02*
D03*
X491425Y326941D02*
D03*
Y295445D02*
D03*
Y263949D02*
D03*
Y232453D02*
D03*
Y137964D02*
D03*
Y106468D02*
D03*
Y74972D02*
D03*
Y43476D02*
D03*
Y11980D02*
D03*
X459929Y326941D02*
D03*
Y200957D02*
D03*
Y74972D02*
D03*
Y43476D02*
D03*
Y11980D02*
D03*
X428433Y326941D02*
D03*
Y106468D02*
D03*
Y43476D02*
D03*
Y11980D02*
D03*
X396937Y295445D02*
D03*
Y232453D02*
D03*
Y137964D02*
D03*
Y43476D02*
D03*
Y11980D02*
D03*
X365441Y326941D02*
D03*
Y295445D02*
D03*
Y232453D02*
D03*
Y169461D02*
D03*
Y137964D02*
D03*
Y106468D02*
D03*
Y11980D02*
D03*
X333945Y326941D02*
D03*
Y263949D02*
D03*
Y232453D02*
D03*
Y137964D02*
D03*
Y106468D02*
D03*
Y11980D02*
D03*
X302449Y326941D02*
D03*
Y232453D02*
D03*
Y169461D02*
D03*
Y137964D02*
D03*
Y11980D02*
D03*
X270953Y326941D02*
D03*
Y295445D02*
D03*
Y263949D02*
D03*
Y200957D02*
D03*
Y169461D02*
D03*
Y137964D02*
D03*
Y106468D02*
D03*
Y11980D02*
D03*
X239457Y295445D02*
D03*
Y263949D02*
D03*
Y232453D02*
D03*
Y200957D02*
D03*
Y169461D02*
D03*
Y137964D02*
D03*
Y11980D02*
D03*
X207961Y263949D02*
D03*
Y232453D02*
D03*
Y200957D02*
D03*
Y169461D02*
D03*
Y137964D02*
D03*
Y11980D02*
D03*
X176464Y263949D02*
D03*
Y137964D02*
D03*
Y11980D02*
D03*
X144968Y263949D02*
D03*
Y137964D02*
D03*
Y11980D02*
D03*
X113472Y169461D02*
D03*
Y74972D02*
D03*
Y11980D02*
D03*
X81976Y295445D02*
D03*
Y263949D02*
D03*
Y232453D02*
D03*
Y11980D02*
D03*
X50480D02*
D03*
X18984Y326941D02*
D03*
Y232453D02*
D03*
Y137964D02*
D03*
Y106468D02*
D03*
Y74972D02*
D03*
Y43476D02*
D03*
Y11980D02*
D03*
D45*
X386600Y276000D02*
D03*
X187800Y258000D02*
D03*
M02*
