G04*
G04 #@! TF.GenerationSoftware,Altium Limited,Altium Designer,22.7.1 (60)*
G04*
G04 Layer_Color=0*
%FSLAX25Y25*%
%MOIN*%
G70*
G04*
G04 #@! TF.SameCoordinates,62B07443-8612-450D-B8CB-4F7C4A51FEE5*
G04*
G04*
G04 #@! TF.FilePolarity,Positive*
G04*
G01*
G75*
%ADD47C,0.00394*%
D47*
X454532Y69000D02*
X458469D01*
X456500Y67032D02*
Y70969D01*
X25532Y156000D02*
X29469D01*
X27500Y154032D02*
Y157969D01*
X25532Y177500D02*
X29469D01*
X27500Y175532D02*
Y179469D01*
X25032Y235000D02*
X28969D01*
X27000Y233032D02*
Y236969D01*
X25032Y211500D02*
X28969D01*
X27000Y209532D02*
Y213469D01*
X25532Y261000D02*
X29469D01*
X27500Y259032D02*
Y262969D01*
X26532Y282500D02*
X30469D01*
X28500Y280532D02*
Y284469D01*
X26532Y302500D02*
X30469D01*
X28500Y300532D02*
Y304469D01*
X27032Y324000D02*
X30969D01*
X29000Y322032D02*
Y325969D01*
X70532Y324500D02*
X74469D01*
X72500Y322532D02*
Y326469D01*
X196531Y300000D02*
X200468D01*
X198500Y298032D02*
Y301969D01*
X267000Y238031D02*
Y241968D01*
X265031Y240000D02*
X268968D01*
X134976Y218532D02*
Y222469D01*
X133008Y220500D02*
X136945D01*
X73000Y278532D02*
Y282469D01*
X71032Y280500D02*
X74969D01*
X71524Y227532D02*
Y231469D01*
X69555Y229500D02*
X73492D01*
X334736Y294032D02*
Y297969D01*
X332768Y296000D02*
X336705D01*
X134500Y248032D02*
Y251969D01*
X132532Y250000D02*
X136469D01*
X71500Y202532D02*
Y206469D01*
X69532Y204500D02*
X73469D01*
X71500Y252032D02*
Y255969D01*
X69532Y254000D02*
X73469D01*
X336000Y235532D02*
Y239469D01*
X334031Y237500D02*
X337968D01*
X315532Y171000D02*
X319469D01*
X317500Y169031D02*
Y172968D01*
X393976Y126032D02*
Y129969D01*
X392008Y128000D02*
X395945D01*
X73000Y300532D02*
Y304469D01*
X71032Y302500D02*
X74969D01*
X397500Y178532D02*
Y182469D01*
X395532Y180500D02*
X399469D01*
X237032Y171000D02*
X240969D01*
X239000Y169032D02*
Y172969D01*
X504500Y150032D02*
Y153969D01*
X502532Y152000D02*
X506469D01*
X165000Y169532D02*
Y173469D01*
X163032Y171500D02*
X166969D01*
X236532Y97500D02*
X240469D01*
X238500Y95531D02*
Y99468D01*
X76736Y40532D02*
Y44469D01*
X74768Y42500D02*
X78705D01*
X329500Y93032D02*
Y96969D01*
X327532Y95000D02*
X331469D01*
X505000Y125532D02*
Y129469D01*
X503032Y127500D02*
X506969D01*
M02*
