G04*
G04 #@! TF.GenerationSoftware,Altium Limited,Altium Designer,22.7.1 (60)*
G04*
G04 Layer_Color=8388736*
%FSLAX25Y25*%
%MOIN*%
G70*
G04*
G04 #@! TF.SameCoordinates,62B07443-8612-450D-B8CB-4F7C4A51FEE5*
G04*
G04*
G04 #@! TF.FilePolarity,Negative*
G04*
G01*
G75*
%ADD16C,0.06800*%
%ADD17R,0.06102X0.06102*%
%ADD18C,0.06102*%
%ADD19C,0.06181*%
%ADD20R,0.04724X0.04724*%
%ADD21C,0.04724*%
%ADD22R,0.06102X0.06102*%
%ADD23R,0.06706X0.06706*%
%ADD24C,0.06706*%
%ADD25R,0.05595X0.05595*%
%ADD26C,0.05595*%
%ADD27R,0.05595X0.05595*%
%ADD28R,0.06706X0.06706*%
%ADD29C,0.06312*%
%ADD30R,0.06312X0.06312*%
%ADD31C,0.05800*%
%ADD32C,0.04737*%
D16*
X12000Y342500D02*
D03*
X540000D02*
D03*
X537500Y11500D02*
D03*
X11500Y10000D02*
D03*
D17*
X471264Y69000D02*
D03*
X252236Y240000D02*
D03*
X319972Y296000D02*
D03*
X382736Y180500D02*
D03*
X179764Y171500D02*
D03*
X61972Y42500D02*
D03*
X344264Y95000D02*
D03*
D18*
X441736Y69000D02*
D03*
X198500Y285236D02*
D03*
X281764Y240000D02*
D03*
X349500Y296000D02*
D03*
X317500Y156236D02*
D03*
X412264Y180500D02*
D03*
X239000Y185764D02*
D03*
X150236Y171500D02*
D03*
X238500Y112264D02*
D03*
X91500Y42500D02*
D03*
X314736Y95000D02*
D03*
D19*
X27500Y156000D02*
D03*
Y177500D02*
D03*
X27000Y235000D02*
D03*
Y211500D02*
D03*
X27500Y261000D02*
D03*
X28500Y282500D02*
D03*
Y302500D02*
D03*
X29000Y324000D02*
D03*
D20*
X96476Y324500D02*
D03*
X111000Y220500D02*
D03*
X96976Y280500D02*
D03*
X95500Y229500D02*
D03*
X110524Y250000D02*
D03*
X47524Y204500D02*
D03*
Y254000D02*
D03*
X312024Y237500D02*
D03*
X370000Y128000D02*
D03*
X96976Y302500D02*
D03*
X528476Y152000D02*
D03*
X481024Y127500D02*
D03*
D21*
X48524Y324500D02*
D03*
X158953Y220500D02*
D03*
X49024Y280500D02*
D03*
X47547Y229500D02*
D03*
X158476Y250000D02*
D03*
X95476Y204500D02*
D03*
Y254000D02*
D03*
X359976Y237500D02*
D03*
X417953Y128000D02*
D03*
X49024Y302500D02*
D03*
X480524Y152000D02*
D03*
X528976Y127500D02*
D03*
D22*
X198500Y314764D02*
D03*
X317500Y185764D02*
D03*
X239000Y156236D02*
D03*
X238500Y82736D02*
D03*
D23*
X121000Y317000D02*
D03*
X412000Y288500D02*
D03*
X280500Y288000D02*
D03*
X412500Y231500D02*
D03*
X375500Y90000D02*
D03*
X435000Y144500D02*
D03*
D24*
X121000Y307000D02*
D03*
Y297000D02*
D03*
Y287000D02*
D03*
X151000Y317000D02*
D03*
Y307000D02*
D03*
Y297000D02*
D03*
Y287000D02*
D03*
X412000Y298500D02*
D03*
Y308500D02*
D03*
Y318500D02*
D03*
X382000Y288500D02*
D03*
Y298500D02*
D03*
Y308500D02*
D03*
Y318500D02*
D03*
X280500Y298000D02*
D03*
Y308000D02*
D03*
Y318000D02*
D03*
X250500Y288000D02*
D03*
Y298000D02*
D03*
Y308000D02*
D03*
Y318000D02*
D03*
X412500Y241500D02*
D03*
Y251500D02*
D03*
Y261500D02*
D03*
X382500Y231500D02*
D03*
Y241500D02*
D03*
Y251500D02*
D03*
Y261500D02*
D03*
X64000Y88000D02*
D03*
X74000D02*
D03*
X84000D02*
D03*
X94000D02*
D03*
X104000D02*
D03*
X114000D02*
D03*
X54000Y118000D02*
D03*
X64000D02*
D03*
X74000D02*
D03*
X84000D02*
D03*
X94000D02*
D03*
X104000D02*
D03*
X114000D02*
D03*
X375500Y80000D02*
D03*
Y70000D02*
D03*
Y60000D02*
D03*
X405500Y90000D02*
D03*
Y80000D02*
D03*
Y70000D02*
D03*
Y60000D02*
D03*
X172000Y118000D02*
D03*
X162000D02*
D03*
X152000D02*
D03*
X182000Y88000D02*
D03*
X172000D02*
D03*
X162000D02*
D03*
X152000D02*
D03*
X435000Y134500D02*
D03*
Y124500D02*
D03*
Y114500D02*
D03*
X465000Y144500D02*
D03*
Y134500D02*
D03*
Y124500D02*
D03*
Y114500D02*
D03*
D25*
X482000Y313000D02*
D03*
X197000Y242000D02*
D03*
X446500Y314000D02*
D03*
X518000Y313000D02*
D03*
X481500Y240000D02*
D03*
X518500Y259500D02*
D03*
X488500Y184000D02*
D03*
X455000D02*
D03*
X520500Y184500D02*
D03*
X518000Y77500D02*
D03*
D26*
X482000Y303000D02*
D03*
Y293000D02*
D03*
X197000Y232000D02*
D03*
Y222000D02*
D03*
X446500Y304000D02*
D03*
Y294000D02*
D03*
X518000Y303000D02*
D03*
Y293000D02*
D03*
X481500Y250000D02*
D03*
Y260000D02*
D03*
X518500Y249500D02*
D03*
Y239500D02*
D03*
X488500Y194000D02*
D03*
Y204000D02*
D03*
X455000Y194000D02*
D03*
Y204000D02*
D03*
X520500Y194500D02*
D03*
Y204500D02*
D03*
X279500Y45000D02*
D03*
X269500D02*
D03*
X518000Y87500D02*
D03*
Y97500D02*
D03*
X218000Y43500D02*
D03*
X208000D02*
D03*
X157000Y44000D02*
D03*
X147000D02*
D03*
D27*
X289500Y45000D02*
D03*
X228000Y43500D02*
D03*
X167000Y44000D02*
D03*
D28*
X54000Y88000D02*
D03*
X182000Y118000D02*
D03*
D29*
X49000Y147500D02*
D03*
X59000D02*
D03*
X69000D02*
D03*
X79000D02*
D03*
X89000D02*
D03*
X99000D02*
D03*
X109000D02*
D03*
X119000D02*
D03*
X49000Y177500D02*
D03*
X59000D02*
D03*
X69000D02*
D03*
X79000D02*
D03*
X89000D02*
D03*
X99000D02*
D03*
X109000D02*
D03*
D30*
X119000D02*
D03*
D31*
X522921Y326941D02*
D03*
Y232453D02*
D03*
Y169461D02*
D03*
Y106468D02*
D03*
Y43476D02*
D03*
Y11980D02*
D03*
X491425Y326941D02*
D03*
Y295445D02*
D03*
Y263949D02*
D03*
Y232453D02*
D03*
Y137964D02*
D03*
Y106468D02*
D03*
Y74972D02*
D03*
Y43476D02*
D03*
Y11980D02*
D03*
X459929Y326941D02*
D03*
Y200957D02*
D03*
Y74972D02*
D03*
Y43476D02*
D03*
Y11980D02*
D03*
X428433Y326941D02*
D03*
Y106468D02*
D03*
Y43476D02*
D03*
Y11980D02*
D03*
X396937Y295445D02*
D03*
Y232453D02*
D03*
Y137964D02*
D03*
Y43476D02*
D03*
Y11980D02*
D03*
X365441Y326941D02*
D03*
Y295445D02*
D03*
Y232453D02*
D03*
Y169461D02*
D03*
Y137964D02*
D03*
Y106468D02*
D03*
Y11980D02*
D03*
X333945Y326941D02*
D03*
Y263949D02*
D03*
Y232453D02*
D03*
Y137964D02*
D03*
Y106468D02*
D03*
Y11980D02*
D03*
X302449Y326941D02*
D03*
Y232453D02*
D03*
Y169461D02*
D03*
Y137964D02*
D03*
Y11980D02*
D03*
X270953Y326941D02*
D03*
Y295445D02*
D03*
Y263949D02*
D03*
Y200957D02*
D03*
Y169461D02*
D03*
Y137964D02*
D03*
Y106468D02*
D03*
Y11980D02*
D03*
X239457Y295445D02*
D03*
Y263949D02*
D03*
Y232453D02*
D03*
Y200957D02*
D03*
Y169461D02*
D03*
Y137964D02*
D03*
Y11980D02*
D03*
X207961Y263949D02*
D03*
Y232453D02*
D03*
Y200957D02*
D03*
Y169461D02*
D03*
Y137964D02*
D03*
Y11980D02*
D03*
X176464Y263949D02*
D03*
Y137964D02*
D03*
Y11980D02*
D03*
X144968Y263949D02*
D03*
Y137964D02*
D03*
Y11980D02*
D03*
X113472Y169461D02*
D03*
Y74972D02*
D03*
Y11980D02*
D03*
X81976Y295445D02*
D03*
Y263949D02*
D03*
Y232453D02*
D03*
Y11980D02*
D03*
X50480D02*
D03*
X18984Y326941D02*
D03*
Y232453D02*
D03*
Y137964D02*
D03*
Y106468D02*
D03*
Y74972D02*
D03*
Y43476D02*
D03*
Y11980D02*
D03*
D32*
X386600Y276000D02*
D03*
X187800Y258000D02*
D03*
M02*
